<svg xmlns="http://www.w3.org/2000/svg" xmlns:xlink="http://www.w3.org/1999/xlink" width="812.18" height="323.479" viewBox="0 0 812.18 323.479"><defs><style>.a,.c{fill:#005c97;}.a,.d,.j,.k{opacity:0.1;}.b,.k{fill:none;stroke-miterlimit:10;}.b{stroke:#3f3d56;stroke-width:4px;}.e{fill:#3f3d56;}.f{fill:#e6c229;}.g{fill:url(#a);}.h{fill:#be6f72;}.i{fill:#18162f;}.k{stroke:#000;}.l{fill:url(#b);}.m{fill:#2f2e41;}.n{fill:#fbbebe;}.o{fill:#e8e8f0;}</style><linearGradient id="a" x1="0.5" y1="1" x2="0.5" gradientUnits="objectBoundingBox"><stop offset="0" stop-color="gray" stop-opacity="0.251"/><stop offset="0.54" stop-color="gray" stop-opacity="0.122"/><stop offset="1" stop-color="gray" stop-opacity="0.102"/></linearGradient><linearGradient id="b" x1="0.5" y1="1" x2="0.5" y2="-0.001" xlink:href="#a"/></defs><g transform="translate(0 -88.557)"><ellipse class="a" cx="406.09" cy="6.566" rx="406.09" ry="6.566" transform="translate(0 344.994)"/><ellipse class="a" cx="406.09" cy="6.566" rx="406.09" ry="6.566" transform="translate(0 398.905)"/><ellipse class="a" cx="406.09" cy="6.566" rx="406.09" ry="6.566" transform="translate(0 232.482)"/><ellipse class="a" cx="406.09" cy="6.566" rx="406.09" ry="6.566" transform="translate(0 288.734)"/><path class="b" d="M713.4,625.316c1.934-3.587-.259-7.974-2.779-11.168s-5.6-6.521-5.536-10.589c.1-5.847,6.306-9.307,11.264-12.4A55.056,55.056,0,0,0,726.469,583a14.914,14.914,0,0,0,3.1-4.165c1.03-2.282,1-4.891.934-7.41q-.319-12.516-1.238-25.018" transform="translate(-221.124 -275.883)"/><path class="c" d="M744.078,542.809a9.122,9.122,0,0,0-4.557-7.477l-2.045,4.039.067-4.891a9.122,9.122,0,1,0,6.536,8.329Z" transform="translate(-226.499 -272.697)"/><path class="c" d="M722.467,624.551a9.122,9.122,0,0,1-17.222-3.705,8.892,8.892,0,0,1,.593-3.705,9.13,9.13,0,0,1,17.044.1l-5.7,4.639,6.269-1.482A9.07,9.07,0,0,1,722.467,624.551Z" transform="translate(-221.161 -292.696)"/><path class="c" d="M719.072,598.9a9.122,9.122,0,0,1-2.89-17.9l-.052,3.757,2.067-4.091h0a9.125,9.125,0,1,1,.852,18.23Z" transform="translate(-222.271 -284.751)"/><path class="c" d="M748.948,579.009a9.122,9.122,0,1,1,4.031-17.044l-1.608,4.446,3.283-3.246A9.122,9.122,0,0,1,748.918,579Z" transform="translate(-229.997 -279.603)"/><path class="d" d="M742.843,546.988c-2.1.23-4.15.882-6.269,1.015s-4.446-.378-5.765-2.016a29.253,29.253,0,0,1-1.69-2.964,6.492,6.492,0,0,0-2.3-2.164,9.122,9.122,0,1,0,17.044,6.062C743.532,546.929,743.184,546.951,742.843,546.988Z" transform="translate(-226.494 -274.446)"/><path class="d" d="M748.961,580.833a9.122,9.122,0,0,1-8.678-13.013,6.748,6.748,0,0,1,1.83,1.838,30.95,30.95,0,0,0,1.808,3.016c1.423,1.667,3.853,2.223,6.054,2.112s4.328-.741,6.521-.926c.3,0,.608-.044.919-.052A9.122,9.122,0,0,1,748.961,580.833Z" transform="translate(-230.011 -281.427)"/><path class="d" d="M719.073,600.782a9.122,9.122,0,0,1-8.752-12.842,7.409,7.409,0,0,1,1.934,1.853,30.578,30.578,0,0,0,1.979,3.075c1.534,1.712,4.128,2.319,6.454,2.223s4.446-.6,6.669-.741a9.137,9.137,0,0,1-8.285,6.432Z" transform="translate(-222.273 -286.638)"/><path class="d" d="M722.467,626.58a9.122,9.122,0,0,1-17.222-3.705,8.893,8.893,0,0,1,.593-3.705,9.11,9.11,0,0,1,2,1.786c.867,1.052,1.438,2.223,2.445,3.238,1.86,1.83,4.876,2.586,7.551,2.653a38.32,38.32,0,0,0,4.632-.267Z" transform="translate(-221.161 -294.725)"/><path class="b" d="M103.4,553.316c1.934-3.587-.259-7.974-2.779-11.168s-5.6-6.536-5.536-10.589c.1-5.847,6.306-9.307,11.264-12.4A55.062,55.062,0,0,0,116.469,511a14.918,14.918,0,0,0,3.1-4.165c1.03-2.282,1-4.891.934-7.41q-.326-12.516-1.238-25.018" transform="translate(-63.158 -257.238)"/><path class="c" d="M134.078,470.809a9.122,9.122,0,0,0-4.557-7.477l-2.045,4.039.067-4.891a9.122,9.122,0,1,0,6.536,8.329Z" transform="translate(-68.533 -254.052)"/><path class="c" d="M112.467,552.551a9.122,9.122,0,0,1-17.222-3.705,8.892,8.892,0,0,1,.593-3.705,9.13,9.13,0,0,1,17.044.1l-5.7,4.639,6.269-1.482A9.07,9.07,0,0,1,112.467,552.551Z" transform="translate(-63.196 -274.051)"/><path class="c" d="M109.072,526.9a9.122,9.122,0,0,1-2.89-17.9l-.052,3.757,2.067-4.091h0a9.125,9.125,0,0,1,.852,18.23Z" transform="translate(-64.306 -266.106)"/><path class="c" d="M138.948,507.009a9.122,9.122,0,1,1,4.031-17.044l-1.608,4.446,3.283-3.246A9.122,9.122,0,0,1,138.918,507Z" transform="translate(-72.032 -260.958)"/><path class="d" d="M132.843,474.988c-2.1.23-4.15.882-6.269,1.015s-4.446-.378-5.765-2.016a29.25,29.25,0,0,1-1.69-2.964,6.493,6.493,0,0,0-2.3-2.164,9.122,9.122,0,1,0,17.044,6.062C133.532,474.929,133.184,474.951,132.843,474.988Z" transform="translate(-68.528 -255.8)"/><path class="d" d="M138.961,508.833a9.122,9.122,0,0,1-8.678-13.013,6.751,6.751,0,0,1,1.83,1.838,30.911,30.911,0,0,0,1.808,3.016c1.423,1.667,3.853,2.223,6.054,2.112s4.328-.741,6.521-.926c.3,0,.608-.044.919-.052A9.122,9.122,0,0,1,138.961,508.833Z" transform="translate(-72.046 -262.782)"/><path class="d" d="M109.073,528.782a9.122,9.122,0,0,1-8.752-12.842,7.41,7.41,0,0,1,1.934,1.853,30.555,30.555,0,0,0,1.979,3.075c1.534,1.712,4.128,2.32,6.454,2.223s4.446-.6,6.669-.741A9.137,9.137,0,0,1,109.073,528.782Z" transform="translate(-64.307 -267.992)"/><path class="d" d="M112.467,554.58a9.122,9.122,0,0,1-17.222-3.705,8.893,8.893,0,0,1,.593-3.705,9.109,9.109,0,0,1,2,1.786c.867,1.052,1.438,2.223,2.445,3.238,1.86,1.83,4.876,2.586,7.551,2.653A38.32,38.32,0,0,0,112.467,554.58Z" transform="translate(-63.196 -276.08)"/><path class="b" d="M506.535,470.951c-1.934-3.579.259-7.966,2.786-11.16s5.595-6.521,5.528-10.589c-.089-5.854-6.3-9.307-11.264-12.405a54.841,54.841,0,0,1-10.108-8.151,14.659,14.659,0,0,1-3.112-4.157c-1.023-2.29-.993-4.891-.934-7.41q.334-12.516,1.238-25.017" transform="translate(-165.271 -235.912)"/><path class="c" d="M478.387,388.45a9.115,9.115,0,0,1,4.55-7.477l2.045,4.039-.059-4.891a9.354,9.354,0,0,1,3-.363,9.122,9.122,0,1,1-9.537,8.692Z" transform="translate(-162.415 -232.724)"/><path class="c" d="M499.988,470.165a9.122,9.122,0,1,0-.437-7.344l5.7,4.639-6.269-1.482A9.072,9.072,0,0,0,499.988,470.165Z" transform="translate(-167.75 -252.697)"/><path class="c" d="M503.381,444.536a9.122,9.122,0,0,0,2.9-17.9l.044,3.757-2.068-4.09h0a9.122,9.122,0,0,0-9.559,8.663,9.014,9.014,0,0,0,.393,3.112,9.115,9.115,0,0,0,8.292,6.454Z" transform="translate(-166.638 -244.778)"/><path class="c" d="M473.493,424.629a9.122,9.122,0,1,0-4.039-17.044l1.615,4.446-3.32-3.179a9.048,9.048,0,0,0-2.964,6.3,8.825,8.825,0,0,0,.23,2.512,9.115,9.115,0,0,0,8.478,6.966Z" transform="translate(-158.892 -239.625)"/><path class="d" d="M479.693,392.628c2.1.23,4.15.882,6.262,1.015s4.446-.378,5.773-2.016a29.175,29.175,0,0,0,1.682-2.964,6.514,6.514,0,0,1,2.3-2.164,9.122,9.122,0,1,1-17.044,6.054C479,392.562,479.344,392.591,479.693,392.628Z" transform="translate(-162.491 -234.473)"/><path class="d" d="M473.585,426.453a9.13,9.13,0,0,0,8.678-13.013,6.781,6.781,0,0,0-1.838,1.838,30.905,30.905,0,0,1-1.808,3.016c-1.415,1.667-3.846,2.223-6.047,2.112s-4.328-.741-6.521-.926c-.3,0-.615-.044-.919-.052a9.115,9.115,0,0,0,8.455,7.025Z" transform="translate(-158.984 -241.449)"/><path class="d" d="M503.525,446.422a9.115,9.115,0,0,0,8.752-12.842,7.285,7.285,0,0,0-1.927,1.853,30.539,30.539,0,0,1-1.979,3.075c-1.541,1.712-4.128,2.319-6.462,2.223s-4.446-.6-6.669-.741A9.115,9.115,0,0,0,503.525,446.422Z" transform="translate(-166.782 -246.664)"/><path class="d" d="M500.34,472.22a9.122,9.122,0,0,0,16.636-7.41,8.76,8.76,0,0,0-2,1.786c-.867,1.052-1.482,2.223-2.445,3.238-1.867,1.83-4.876,2.586-7.559,2.653A39.973,39.973,0,0,1,500.34,472.22Z" transform="translate(-168.102 -254.752)"/><circle class="e" cx="74.074" cy="74.074" r="74.074" transform="translate(503.737 88.557)"/><path class="f" d="M851.73,408.115c-2.579-2.579-8.781-6.469-11.857-7.922-3.549-1.7-4.854-1.675-7.366.141-2.09,1.482-3.446,2.912-5.847,2.386s-7.158-4.113-11.76-8.7-8.174-9.315-8.685-11.753.9-3.764,2.393-5.854c1.808-2.512,1.86-3.816.141-7.366-1.482-3.075-5.328-9.263-7.929-11.857s-3.164-2.023-4.587-1.482a26.527,26.527,0,0,0-4.2,2.223c-2.579,1.727-4.024,3.164-5.039,5.328s-2.164,6.18,3.742,16.7a93.141,93.141,0,0,0,16.377,21.839h0A93.283,93.283,0,0,0,829.024,418.2c10.508,5.928,14.532,4.75,16.7,3.742s3.6-2.438,5.321-5.039a26.2,26.2,0,0,0,2.223-4.2C853.753,411.28,854.331,410.7,851.73,408.115Z" transform="translate(-242.121 -226.38)"/><path class="d" d="M805.821,300.86a74.1,74.1,0,1,0,74.067,74.079A74.1,74.1,0,0,0,805.821,300.86Zm0,138.293a64.226,64.226,0,1,1,64.226-64.226,64.226,64.226,0,0,1-64.226,64.226Z" transform="translate(-228.01 -212.295)"/><circle class="e" cx="74.074" cy="74.074" r="74.074" transform="translate(333.557 201.069)"/><path class="f" d="M629.23,522.385,607.051,544.95a.4.4,0,0,0,0,.578l15.562,16.547a2.678,2.678,0,1,1-3.787,3.787l-15.48-16.488a.422.422,0,0,0-.593,0l-3.772,3.809a16.577,16.577,0,0,1-11.857,4.987,16.94,16.94,0,0,1-12.064-5.128l-3.624-3.705a.422.422,0,0,0-.593,0L555.4,565.788A2.678,2.678,0,1,1,551.613,562l15.5-16.51a.445.445,0,0,0,0-.578l-22.179-22.565a.408.408,0,0,0-.7.289v45.152a6.61,6.61,0,0,0,6.588,6.588h72.526a6.61,6.61,0,0,0,6.588-6.588V522.674a.408.408,0,0,0-.711-.289Z" transform="translate(-179.471 -269.621)"/><path class="f" d="M587.985,550.327a11.219,11.219,0,0,0,8.092-3.335l32.3-32.88a6.447,6.447,0,0,0-4.076-1.482H551.726a6.4,6.4,0,0,0-4.076,1.482l32.309,32.88A11.175,11.175,0,0,0,587.985,550.327Z" transform="translate(-180.354 -267.135)"/><path class="d" d="M574.911,452.69a74.1,74.1,0,1,0,74.067,74.079A74.1,74.1,0,0,0,574.911,452.69Zm0,138.293a64.226,64.226,0,1,1,64.226-64.226,64.226,64.226,0,0,1-64.226,64.226Z" transform="translate(-168.214 -251.613)"/><circle class="e" cx="74.074" cy="74.074" r="74.074" transform="translate(157.76 145.751)"/><path class="f" d="M354.53,430.16,325,498.291l2.757,2.757,26.781-11.812,26.781,11.812,2.757-2.757Z" transform="translate(-122.696 -245.779)"/><path class="d" d="M338.941,378a74.061,74.061,0,1,0,.012,0Zm0,138.293a52.855,52.855,0,1,1,.008.03Z" transform="translate(-107.107 -232.271)"/><path class="g" d="M828.569,592.636q-1.008-2.46-2.067-4.906a14.563,14.563,0,0,0-2.527-4.365,4.623,4.623,0,0,0-1.482-1.112,6.319,6.319,0,0,0-1.934-.385,15.428,15.428,0,0,0-3.038-.081c-.393-.119-.837-.274-1.275-.452a10.582,10.582,0,0,0,7.885-9.819c0-.148,0-.3,0-.452a10.56,10.56,0,0,0-10.515-10.6,10.375,10.375,0,0,0-5.521,1.578,9.908,9.908,0,0,0-11.116,5.358,12.249,12.249,0,0,0-3.779,9.115c0,.156,0,.319,0,.467.193,5.758,3.913,10.375,8.611,10.841a4.937,4.937,0,0,0-1.364.911c-1.437,1.386-1.675,3.587-1.83,5.587l-.111,1.482-2.49.889a.459.459,0,0,0-.111.808l2.379,1.7v.422a1.853,1.853,0,0,0,.044.482,3.4,3.4,0,0,0-.919,1.312,6.059,6.059,0,0,0-.215,2.4l.089,2.068a16.234,16.234,0,0,0,.63,4.6c.311.919,1.66,3.135,2.631,3.149-.9,4.076-1.134,12.672-1.134,12.672-.111.111.2.215.741.3.533,4.091,2.275,15.562,5.365,20.608a43.449,43.449,0,0,1,1.163,5.009s.882,10.9,2.045,14.139c.993,2.757,1.779,9.559,1.993,11.531a1.134,1.134,0,0,0-.823.845c-.585,1.764-4.38,4.446-4.38,4.446a18.347,18.347,0,0,0-3.275,2.1c-1.193,1.075-1.149,2.045,4.15,1.438,10.226-1.178,11.975-4.446,11.975-4.446s-.163-.548-.408-1.26a13.677,13.677,0,0,0-1.341-3.164c-.148-.141-.3.1-.474.467a63.453,63.453,0,0,1-.7-14.31s.289-5.009-1.171-8.544a16.172,16.172,0,0,1,0-5.595c.585-2.357-2.334-13.85-2.334-13.85l-1.675-8.463a2.43,2.43,0,0,1,.467.986l.044.17.044.245a.46.46,0,0,0,.119.23c1.141,4.743,4.268,17.881,4.268,19.808,0,2.357,2.92,8.248,2.92,8.248s1.163,9.722,3.209,13.546c1.556,2.912,1.593,7.181,1.519,9.063h0s-.348,2.423-.934,3.009a7.161,7.161,0,0,0-1.1,1.919l-.067.141s-.874,1.771-.289,2.068a14.354,14.354,0,0,0,7.01.882s1.171-1.482,1.171-2.06a9.288,9.288,0,0,0-.133-1.052c-.215-1.393-.615-3.586-.622-3.609.245-.949-.741-3.587-.741-3.587l-.3-8.248a38.074,38.074,0,0,0-2.045-16.5s-1.482-5.3-1.163-6.773-.585-17.088-.585-17.088l-.089-.222a16.874,16.874,0,0,1,.089-3.312c.289-3.535-.874-10.9-1.171-11.19a9.71,9.71,0,0,1-.415-2.438c.067-.615.267-2.416.541-4.654a83.653,83.653,0,0,0,8.611-.741,1.074,1.074,0,0,0,.741-.3,1.037,1.037,0,0,0,.171-.6C831.874,601.054,830.251,596.741,828.569,592.636Zm-5.876,9.345c.3-2.112.63-4.157.956-5.676l.044.133a41.233,41.233,0,0,1,1.408,4.669A15.881,15.881,0,0,1,822.692,601.98Z" transform="translate(-243.941 -279.521)"/><path class="h" d="M802.37,648.478s1.749,15.732,5.536,21.846a42.429,42.429,0,0,1,1.163,4.95s.874,10.775,2.038,13.976,2.038,11.946,2.038,11.946,4.076,4.654,5.536.874a61.37,61.37,0,0,1-.874-15.147s.289-4.95-1.163-8.448a15.793,15.793,0,0,1,0-5.528c.578-2.334-2.334-13.687-2.334-13.687l-2.327-11.36Z" transform="translate(-246.316 -302.165)"/><path class="i" d="M821.291,723.387s-1.749,3.2-11.938,4.365c-5.291.6-5.328-.356-4.135-1.423a18.448,18.448,0,0,1,3.261-2.075s3.787-2.616,4.365-4.365,2.623-.289,2.623-.289c2.912,4.365,3.5-1.171,4.076-.585a13.141,13.141,0,0,1,1.341,3.12C821.128,722.839,821.291,723.387,821.291,723.387Z" transform="translate(-246.889 -320.569)"/><path class="d" d="M821.291,724.492s-1.749,3.2-11.938,4.365c-5.291.6-5.328-.356-4.135-1.423.83.526,2.5.741,5.876-.615,4.854-1.986,8.374-3.135,9.789-3.579C821.128,723.944,821.291,724.492,821.291,724.492Z" transform="translate(-246.889 -321.675)"/><path class="d" d="M820.46,686.923s.289-4.95-1.164-8.448a15.8,15.8,0,0,1,0-5.528c.578-2.334-2.334-13.687-2.334-13.687l-2.327-11.36-2.016.119,2.3,11.242s2.912,11.353,2.334,13.687a15.8,15.8,0,0,0,0,5.528c1.482,3.5,1.163,8.448,1.163,8.448a61.374,61.374,0,0,0,.874,15.147,2.549,2.549,0,0,1-.845,1.2,1.9,1.9,0,0,0,2.883-1.2A61.378,61.378,0,0,1,820.46,686.923Z" transform="translate(-248.97 -302.165)"/><path class="e" d="M813.515,562.42a10.375,10.375,0,0,0-5.5,1.564,9.893,9.893,0,0,0-11.116,5.3,12.064,12.064,0,0,0-3.772,9.011c0,6.2,4.172,11.212,9.315,11.212,3.705,0,6.951-2.638,8.44-6.454a10.23,10.23,0,0,0,2.623.341,10.486,10.486,0,1,0,0-20.971Z" transform="translate(-243.922 -280.029)"/><path class="h" d="M828.154,650.65l.875,2.327s.874,15.436.578,16.9,1.171,6.669,1.171,6.669a37.282,37.282,0,0,1,2.038,16.3L833.1,701s1.164,3.2.586,3.787-4.972-.519-4.972-.519.585-6.114-1.482-9.9-3.2-13.4-3.2-13.4-2.912-5.825-2.912-8.151-4.661-21.26-4.661-21.26Z" transform="translate(-249.965 -302.877)"/><path class="e" d="M801.572,643.853s.3-10.486,1.482-13.687a21.732,21.732,0,0,0,1.3-4.646s17.629,3.187,19.089,2.023c0,0,.289,4.076.585,4.365s1.482,7.573,1.164,11.071,0,3.49,0,3.49-11.946,1.749-12.235,0-1.163-1.741-1.163-1.741S800.994,644.4,801.572,643.853Z" transform="translate(-246.104 -296.369)"/><g class="j" transform="translate(555.468 331.174)"><path d="M811.191,650.05s-7.366-.2-9.589-.6v.6c-.578.578,10.2.874,10.2.874a.74.74,0,0,1,.4.163C811.806,650.05,811.191,650.05,811.191,650.05Z" transform="translate(-801.58 -633.74)"/><path d="M827.95,632.615c-.3-.289-.585-4.365-.585-4.365a1.255,1.255,0,0,1-.5.178,14.719,14.719,0,0,0,.5,3.312,46.256,46.256,0,0,1,1.163,11.071c-.319,3.5,0,3.49,0,3.49s-9.448,1.386-11.738.459a3.515,3.515,0,0,0,.089.415c.289,1.749,12.235,0,12.235,0s-.3,0,0-3.49A43.292,43.292,0,0,0,827.95,632.615Z" transform="translate(-805.519 -628.25)"/><path d="M811.191,650.05s-7.366-.2-9.589-.6v.6c-.578.578,10.2.874,10.2.874a.74.74,0,0,1,.4.163C811.806,650.05,811.191,650.05,811.191,650.05Z" transform="translate(-801.58 -633.74)"/><path d="M827.95,632.615c-.3-.289-.585-4.365-.585-4.365a1.255,1.255,0,0,1-.5.178,14.719,14.719,0,0,0,.5,3.312,46.256,46.256,0,0,1,1.163,11.071c-.319,3.5,0,3.49,0,3.49s-9.448,1.386-11.738.459a3.515,3.515,0,0,0,.089.415c.289,1.749,12.235,0,12.235,0s-.3,0,0-3.49A43.292,43.292,0,0,0,827.95,632.615Z" transform="translate(-805.519 -628.25)"/></g><path class="h" d="M816.709,586.134a3.859,3.859,0,0,0,1.112,1.438,2.489,2.489,0,0,0,1.045.452c-.652.378-1.364.66-2.016,1.037a35.835,35.835,0,0,0-2.964,2.223,6.032,6.032,0,0,1-3.4,1.319,4.165,4.165,0,0,0,.474-4.142,3.869,3.869,0,0,1-.519-1.438,2.583,2.583,0,0,1,1.43-1.927c.556-.378,1.126-.741,1.7-1.1.452-.282,1.134-.874,1.7-.852s.637.526.741,1.045A8.212,8.212,0,0,0,816.709,586.134Z" transform="translate(-248.406 -285.394)"/><path class="d" d="M816.709,586.134a3.859,3.859,0,0,0,1.112,1.438,2.489,2.489,0,0,0,1.045.452c-.652.378-1.364.66-2.016,1.037a35.835,35.835,0,0,0-2.964,2.223,6.032,6.032,0,0,1-3.4,1.319,4.165,4.165,0,0,0,.474-4.142,3.869,3.869,0,0,1-.519-1.438,2.583,2.583,0,0,1,1.43-1.927c.556-.378,1.126-.741,1.7-1.1.452-.282,1.134-.874,1.7-.852s.637.526.741,1.045A8.212,8.212,0,0,0,816.709,586.134Z" transform="translate(-248.406 -285.394)"/><circle class="h" cx="6.699" cy="6.699" r="6.699" transform="translate(568.429 304.526)"/><path class="i" d="M837.961,727.219c0,.585-1.163,2.038-1.163,2.038a14.421,14.421,0,0,1-6.988-.874c-.585-.289.289-2.038.289-2.038l.067-.141a7.074,7.074,0,0,1,1.1-1.9c.578-.578.926-2.964.926-2.964,1.808-2.964,5.017,1.282,5.017,1.282s.408,2.223.623,3.572A10.169,10.169,0,0,1,837.961,727.219Z" transform="translate(-253.369 -320.911)"/><path class="d" d="M837.961,729.278c0,.585-1.163,2.038-1.163,2.038a14.422,14.422,0,0,1-6.988-.875c-.585-.289.289-2.038.289-2.038l.067-.141a14.08,14.08,0,0,0,6.343,1.3l1.326-1.326C837.909,728.737,837.961,729.129,837.961,729.278Z" transform="translate(-253.369 -322.97)"/><circle class="h" cx="6.551" cy="6.551" r="6.551" transform="translate(555.18 290.691)"/><path class="h" d="M802.158,599.528c-1.438,1.371-1.675,3.542-1.823,5.521l-.222,2.9a14.629,14.629,0,0,0-.052,2.349c0,.482.119.971.163,1.482s.059,1.156.067,1.741V617.8a5.054,5.054,0,0,0,.474,2.571,1.749,1.749,0,0,0,2.223.8,2.534,2.534,0,0,0,.919-1.423,22.117,22.117,0,0,0,1.482-5.424c.059-.645.067-1.289.126-1.934s.17-1.319.267-1.971c.415-2.727.6-5.484.785-8.233.052-.815.786-4.024-.282-4.38-.519-.17-1.593.363-2.09.541a5.884,5.884,0,0,0-2.038,1.178Z" transform="translate(-245.712 -289.184)"/><path class="d" d="M802.158,599.528c-1.438,1.371-1.675,3.542-1.823,5.521l-.222,2.9a14.629,14.629,0,0,0-.052,2.349c0,.482.119.971.163,1.482s.059,1.156.067,1.741V617.8a5.054,5.054,0,0,0,.474,2.571,1.749,1.749,0,0,0,2.223.8,2.534,2.534,0,0,0,.919-1.423,22.117,22.117,0,0,0,1.482-5.424c.059-.645.067-1.289.126-1.934s.17-1.319.267-1.971c.415-2.727.6-5.484.785-8.233.052-.815.786-4.024-.282-4.38-.519-.17-1.593.363-2.09.541a5.884,5.884,0,0,0-2.038,1.178Z" transform="translate(-245.712 -289.184)"/><path class="i" d="M816.89,588.16s-4.95,3.787-7.862,4.661c0,0-1.727,1.971-2.023,2.445s-.889,5.706-1.482,6.877-2.038,3.787,0,6.4a11.1,11.1,0,0,1,.289,3.5c-.289.874-1.349,4.076-.385,4.224s3.883,2.179,6.5,1.6,12.383,2.223,12.383,2.223,1.615-15.006,2.786-17.659l-2.623-.874s-7.277-4.365-2.912-11.064C821.551,590.494,817.46,589.62,816.89,588.16Z" transform="translate(-246.86 -286.694)"/><path class="e" d="M796.775,611.171l6.017,4.261a.444.444,0,0,0,.526,0l1.63-1.223a.46.46,0,0,0,0-.7l-4.632-4.113a.444.444,0,0,0-.452-.089l-2.972,1.067a.452.452,0,0,0-.119.793Z" transform="translate(-244.819 -292.165)"/><path class="h" d="M799.306,625.143a16.129,16.129,0,0,1-.63-4.543l-.089-2.053a5.929,5.929,0,0,1,.215-2.371,3.876,3.876,0,0,1,2.5-2.186,8.625,8.625,0,0,1,3.4-.245.875.875,0,0,1,.437.119.816.816,0,0,1,.237.4,2.683,2.683,0,0,1,.133,2.141,2.224,2.224,0,0,1-.682.7c-.808.578-1.749.963-2.512,1.593a.912.912,0,0,0-.341.43,1,1,0,0,0,0,.467,7.466,7.466,0,0,0,.385,1.193,1.178,1.178,0,0,0,.334.5c.141.119.326.163.474.274.319.259.986.6.949,1.008-.111,1.482-1,3.142-1.349,4.609C802.1,630.056,799.736,626.4,799.306,625.143Z" transform="translate(-245.327 -293.302)"/><g class="j" transform="translate(563.175 315.301)"><path d="M812.143,628.226h-.163a4.989,4.989,0,0,0,1.9,0h.185a6.667,6.667,0,0,0-1.927,0Z" transform="translate(-811.98 -612.352)"/><path d="M831.831,606.83c-1.045,2.349-2.586,15.073-2.86,17.6,1.023.267,1.7.459,1.7.459s1.6-14.969,2.771-17.622Z" transform="translate(-816.38 -606.83)"/></g><path class="h" d="M824.144,598.818a2.223,2.223,0,0,0,.956,1.445,12.825,12.825,0,0,1,1.7,1.719,12.178,12.178,0,0,1,1.682,3.372,41.307,41.307,0,0,1,1.4,4.609c-3.705,1.719-7.914,1.638-11.857,2.771a9.462,9.462,0,0,0-4.446,2.631,6.127,6.127,0,0,0-1.638,4.824.63.63,0,0,0,.089.289.623.623,0,0,0,.519.208,4.448,4.448,0,0,0,2.72-.934,12.947,12.947,0,0,0,2.082-2.045,3.35,3.35,0,0,1,1.482-1.1,24.254,24.254,0,0,1,6.669-.652,84.055,84.055,0,0,0,9.937-.785.8.8,0,0,0,.889-.889c.326-4.372-1.3-8.641-2.964-12.694q-1-2.438-2.06-4.854a14.378,14.378,0,0,0-2.52-4.313,4.446,4.446,0,0,0-1.482-1.1,6.268,6.268,0,0,0-1.986-.371,14.078,14.078,0,0,0-3.253-.059,6.936,6.936,0,0,0-.311,1.682,14.572,14.572,0,0,0,1.793,5.684C823.655,598.537,823.974,598.552,824.144,598.818Z" transform="translate(-248.786 -287.386)"/><path class="k" d="M812.151,606.67a5.431,5.431,0,0,0-.741,2.831,3.813,3.813,0,0,0,.185,1.156,3.749,3.749,0,0,0,2.364,2.223" transform="translate(-248.657 -291.488)"/><path class="e" d="M812.813,573a3.4,3.4,0,0,0-1.074.17c-.971-1.482-3.253-2.5-5.928-2.5-3.542,0-6.41,1.83-6.41,4.083s2.868,4.076,6.41,4.076a9.019,9.019,0,0,0,3.846-.815A3.49,3.49,0,1,0,812.8,573Z" transform="translate(-245.547 -282.165)"/><path class="d" d="M813.1,580.1a3.483,3.483,0,0,1-3.142-1.979,9.019,9.019,0,0,1-3.846.816c-3.535,0-6.4-1.823-6.4-4.076a2.45,2.45,0,0,1,0-.408,2.763,2.763,0,0,0-.326,1.282c0,2.223,2.868,4.076,6.41,4.076a9.017,9.017,0,0,0,3.846-.815,3.49,3.49,0,0,0,6.573-.867A3.476,3.476,0,0,1,813.1,580.1Z" transform="translate(-245.542 -283.144)"/><path class="d" d="M796.9,571a9.893,9.893,0,0,1,11.116-5.3,10.478,10.478,0,0,1,15.947,8.048v-.874a10.478,10.478,0,0,0-15.984-8.892,9.893,9.893,0,0,0-11.116,5.3,12.064,12.064,0,0,0-3.772,9.011v.874A11.856,11.856,0,0,1,796.9,571Z" transform="translate(-243.912 -280.029)"/><path class="b" d="M885.484,549.429c1.934-3.579-.259-7.974-2.786-11.167s-5.595-6.514-5.528-10.589c.089-5.847,6.3-9.3,11.264-12.405a54.764,54.764,0,0,0,10.108-8.151,14.764,14.764,0,0,0,3.112-4.157c1.023-2.29.993-4.891.934-7.41q-.326-12.524-1.238-25.017" transform="translate(-265.686 -256.233)"/><path class="c" d="M916.148,466.891a9.107,9.107,0,0,0-4.55-7.47l-2.045,4.039.059-4.891a8.951,8.951,0,0,0-3-.363,9.122,9.122,0,1,0,9.537,8.685Z" transform="translate(-271.058 -253.039)"/><path class="c" d="M894.547,548.614a9.122,9.122,0,1,1,.437-7.351l-5.7,4.639,6.269-1.482A9.069,9.069,0,0,1,894.547,548.614Z" transform="translate(-265.723 -273.011)"/><path class="c" d="M891.149,522.979a9.122,9.122,0,0,1-2.9-17.9l-.044,3.757,2.068-4.083h0a9.125,9.125,0,1,1,.852,18.23Z" transform="translate(-266.83 -265.094)"/><path class="c" d="M921.02,503.1a9.122,9.122,0,1,1,4.039-17.044l-1.615,4.446,3.32-3.186a9.07,9.07,0,0,1,2.964,6.3,8.812,8.812,0,0,1-.23,2.512A9.122,9.122,0,0,1,921.02,503.1Z" transform="translate(-274.559 -259.945)"/><path class="d" d="M914.922,471.068c-2.1.237-4.157.889-6.269,1.023s-4.446-.378-5.773-2.023A28.317,28.317,0,0,1,901.2,467.1a6.559,6.559,0,0,0-2.3-2.164,9.122,9.122,0,1,0,17.044,6.054C915.6,471.009,915.263,471.031,914.922,471.068Z" transform="translate(-271.055 -254.785)"/><path class="d" d="M921.033,504.923a9.13,9.13,0,0,1-8.678-13.013,6.751,6.751,0,0,1,1.838,1.83A29.218,29.218,0,0,0,916,496.756c1.415,1.675,3.846,2.223,6.047,2.119s4.328-.741,6.521-.926c.3,0,.615-.052.919-.059A9.122,9.122,0,0,1,921.033,504.923Z" transform="translate(-274.572 -261.77)"/><path class="d" d="M891.149,524.857A9.115,9.115,0,0,1,882.4,512a7.52,7.52,0,0,1,1.927,1.853c.741,1,1.149,2.156,1.979,3.075,1.541,1.719,4.128,2.319,6.462,2.268s4.446-.608,6.669-.778a9.122,9.122,0,0,1-8.285,6.44Z" transform="translate(-266.83 -266.972)"/><path class="d" d="M894.565,550.67a9.13,9.13,0,0,1-16.636-7.41,8.938,8.938,0,0,1,2,1.786c.875,1.06,1.445,2.223,2.445,3.246,1.867,1.83,4.876,2.579,7.558,2.653A39.976,39.976,0,0,0,894.565,550.67Z" transform="translate(-265.741 -275.067)"/><path class="b" d="M1044.484,701.428c1.934-3.579-.259-7.974-2.786-11.167s-5.595-6.514-5.528-10.589c.089-5.847,6.3-9.3,11.264-12.405a54.765,54.765,0,0,0,10.108-8.151,14.773,14.773,0,0,0,3.112-4.157c1.023-2.29.993-4.891.934-7.411q-.319-12.523-1.238-25.017" transform="translate(-306.861 -295.595)"/><path class="c" d="M1075.161,618.892a9.107,9.107,0,0,0-4.55-7.47l-2.045,4.039.059-4.891a8.945,8.945,0,0,0-2.964-.363,9.122,9.122,0,1,0,9.537,8.685Z" transform="translate(-312.246 -292.401)"/><path class="c" d="M1053.547,700.615a9.122,9.122,0,1,1,.437-7.351l-5.7,4.639,6.269-1.482a9.068,9.068,0,0,1-1.008,4.194Z" transform="translate(-306.898 -312.373)"/><path class="c" d="M1050.149,674.979a9.122,9.122,0,0,1-2.9-17.9l-.044,3.757,2.068-4.083h0a9.125,9.125,0,1,1,.852,18.23Z" transform="translate(-308.005 -304.456)"/><path class="c" d="M1080.02,655.1a9.122,9.122,0,1,1,4.039-17.044l-1.616,4.446,3.32-3.186a9.071,9.071,0,0,1,2.964,6.3,8.807,8.807,0,0,1-.23,2.512A9.122,9.122,0,0,1,1080.02,655.1Z" transform="translate(-315.734 -299.307)"/><path class="d" d="M1073.922,623.068c-2.1.237-4.157.889-6.269,1.023s-4.446-.378-5.773-2.023a28.327,28.327,0,0,1-1.682-2.964,6.557,6.557,0,0,0-2.3-2.164,9.122,9.122,0,1,0,17.044,6.054C1074.6,623.009,1074.263,623.031,1073.922,623.068Z" transform="translate(-312.229 -294.147)"/><path class="d" d="M1080.033,656.923a9.13,9.13,0,0,1-8.678-13.013,6.751,6.751,0,0,1,1.838,1.83,29.21,29.21,0,0,0,1.808,3.016c1.415,1.675,3.846,2.223,6.047,2.119s4.328-.741,6.521-.926c.3,0,.615-.052.919-.059A9.122,9.122,0,0,1,1080.033,656.923Z" transform="translate(-315.747 -301.132)"/><path class="d" d="M1050.149,676.857A9.114,9.114,0,0,1,1041.4,664a7.526,7.526,0,0,1,1.927,1.853c.741,1,1.149,2.156,1.979,3.075,1.541,1.719,4.127,2.319,6.462,2.268s4.446-.608,6.669-.778A9.122,9.122,0,0,1,1050.149,676.857Z" transform="translate(-308.005 -306.334)"/><path class="d" d="M1053.565,702.67a9.13,9.13,0,0,1-16.636-7.41,8.937,8.937,0,0,1,2,1.786c.875,1.06,1.482,2.223,2.446,3.246,1.867,1.83,4.876,2.579,7.559,2.653A39.977,39.977,0,0,0,1053.565,702.67Z" transform="translate(-306.916 -314.429)"/><path class="l" d="M495.28,580.638a7.27,7.27,0,0,0-2.9-5.869,8.522,8.522,0,0,0-7.121-8.359,8.507,8.507,0,0,0-5.669-6.336h0a7.245,7.245,0,0,0-1.052-.245h-1.252a8.344,8.344,0,0,0-8.062,7.129c-2.6-.6-4.98.178-5.417,1.823a2.224,2.224,0,0,0,.074,1.319,5.735,5.735,0,0,0,3.824,3.1l.252.074.378.1h.081a6.552,6.552,0,0,0-.622,2.808,6.477,6.477,0,0,0,3.49,5.78l-.17.1a2.313,2.313,0,0,0-.563.786,11.757,11.757,0,0,0-1.089,2.623c-.185.786-.215,1.6-.445,2.379-.43,1.43-1.527,2.638-1.653,4.128-.059.667.052,1.482-.422,1.912a2.31,2.31,0,0,1-.378.267,3.059,3.059,0,0,0-.823.867,2.874,2.874,0,0,1-.578.83c-.43.319-1.134.289-1.341.786s.333,1.082.208,1.623-.585.645-.919.949a3.3,3.3,0,0,0-.793,1.482,4.861,4.861,0,0,1-4-1.023,7.472,7.472,0,0,1,.415,1.482,6.49,6.49,0,0,0-2.156-1.082,6.808,6.808,0,0,1-2.3-1.7l1.23-.171-5.432-8.292-1.608-.333,1.438,2.764a.882.882,0,0,0-.489.585,2.512,2.512,0,0,0-.052.941,16.848,16.848,0,0,0,.371,2.223l.415,1.941c.037.178.082.363.133.541a5.11,5.11,0,0,0-1.608.178,13.991,13.991,0,0,0-3.342-.793,1.852,1.852,0,0,0-.741,0,1.919,1.919,0,0,0-.7.571,22.79,22.79,0,0,0-2.482,3.5c-2.964,5.083-6.825,9.522-10.478,14.117-2.52,1.023-5.061,1.993-7.6,2.964l-5.469,2.09a8.292,8.292,0,0,1-3.394.741c-.519,0-1.163-.111-1.482.333a3.12,3.12,0,0,0-.333.741l-.563.059h0a6.476,6.476,0,0,0-1.312-2.416.83.83,0,0,0-.615.474c-.133.245-.215.511-.371.741-.289.43-.8.637-1.163,1s-.593.926-.993,1.3a3.927,3.927,0,0,1-1.86.741,11.736,11.736,0,0,0-2.912,1.1,4.692,4.692,0,0,1-1.075.5,4.039,4.039,0,0,1-1.267.044l-2.89-.215a2.281,2.281,0,0,0-.778.037,1.482,1.482,0,0,0-.919,1.482,2.334,2.334,0,0,0,.919,1.593,5.881,5.881,0,0,0,1.645.852,48.288,48.288,0,0,0,7.707,2.282v.585a13.154,13.154,0,0,0,5.928,1.408.918.918,0,0,0,.445-.081.978.978,0,0,0,.371-.578,23.84,23.84,0,0,0,1.156-5.677h0a2.964,2.964,0,0,0,1.045-.267c.993-.274,1.986.408,3.016.519,1.267.141,2.438-.6,3.639-1.052l.519-.171a5.687,5.687,0,0,1-1.2,1.149c-.5.356-1.052.623-1.534.993a10.561,10.561,0,0,1-1.3,1.008,8.169,8.169,0,0,1-1,.385,6.6,6.6,0,0,0-1.43.741,2.9,2.9,0,0,0-.971.948,1.423,1.423,0,0,0-.081,1.334,1.407,1.407,0,0,0,.956.667,3.922,3.922,0,0,0,1.178,0c1.571-.119,3.135-.259,4.7-.4a12.521,12.521,0,0,0,1.964-.282c.341-.081.682-.193,1.023-.289a9.129,9.129,0,0,1,1.786-.267,1.482,1.482,0,0,1,.519.052c.363.119.622.489.993.563a1.481,1.481,0,0,0,.741-.1,16.541,16.541,0,0,1,3.475-.37,1.435,1.435,0,0,0,1.349-.6c.237-.474-.193-1.237-.385-1.867a5.714,5.714,0,0,1-.163-1.23,7.7,7.7,0,0,0-.86-2.92,7.62,7.62,0,0,1-.645-1.334,33.706,33.706,0,0,0,6.4-3.246,11.434,11.434,0,0,1,3.646-1.756,9.915,9.915,0,0,1,4.58.533,104.178,104.178,0,0,1,10.5,3.661c1.638.674,3.268,1.386,4.958,1.9a7.728,7.728,0,0,0,1.764,1.712,8.152,8.152,0,0,0,3.816,1.045,50.019,50.019,0,0,0,5.372.2,9.061,9.061,0,0,0,4-.741,4.117,4.117,0,0,0,.837-.556,3.321,3.321,0,0,0,2.638-.971,6.4,6.4,0,0,0,2.008-3.172c.437-1.69.1-3.705,1.141-5.054.274-.37.637-.667.911-1.037a2.92,2.92,0,0,0,.474-1.712.346.346,0,0,1,.044-.067,6.28,6.28,0,0,0,.445-1.7,9.742,9.742,0,0,1,.482-1.349,41.611,41.611,0,0,0,1.378-3.994,23.33,23.33,0,0,0,.637-2.742c.111-.741.178-1.482.237-2.223a13.808,13.808,0,0,1,.674-3.431,27.923,27.923,0,0,0,1.556-8.211v-.163a5.506,5.506,0,0,0,4.876-5.6,5.847,5.847,0,0,0-.511-2.393,7.41,7.41,0,0,0,.993-3.735Zm-26.514,32.213c.082.289.178.571.274.852-.437-.422-.86-.859-1.3-1.289.17.059.348.111.511.178a2.761,2.761,0,0,1,.489.259Zm-2.1-1.423c-2.564-2.223-5.528-3.95-8.151-6.106,1.43.7,2.823,1.526,4.2,2.312q2.453,1.4,4.972,2.69a4.069,4.069,0,0,1-1.045,1.1Zm1.089-5.6.126-.126v.882l-.689-.237a6.133,6.133,0,0,0,.541-.519Zm-22.55,6a21.215,21.215,0,0,0,2.727-3.89c1.015,1.771,2.668,3.053,4.068,4.542C449.743,612.192,447.475,611.947,445.208,611.829Z" transform="translate(-141.063 -279.358)"/><path class="m" d="M415.35,438.25l1.615.326,5.506,8.144-2.423.326Z" transform="translate(-107.559 -127.358)"/><path class="n" d="M414.49,645.432a31.71,31.71,0,0,0,1.615,4.2,39.993,39.993,0,0,0,5.372-1.534,16.914,16.914,0,0,0-1.119-1.482,5.527,5.527,0,0,0-1.519-1.163,4.18,4.18,0,0,0-1.845,0C416.165,645.432,415.327,645.447,414.49,645.432Z" transform="translate(-145.87 -301.505)"/><path class="m" d="M414.01,646.787a3.349,3.349,0,0,1-1.838-2.09,6.729,6.729,0,0,0-1.4-2.5.8.8,0,0,0-.622.467c-.133.237-.215.5-.363.741-.3.422-.815.63-1.186.986s-.593.911-.993,1.275a3.942,3.942,0,0,1-1.875.741,12.152,12.152,0,0,0-2.964,1.089,5.12,5.12,0,0,1-1.089.489,4.314,4.314,0,0,1-1.275,0l-2.92-.208a2.284,2.284,0,0,0-.741,0,1.415,1.415,0,0,0-.926,1.482,2.223,2.223,0,0,0,.926,1.571,6.154,6.154,0,0,0,1.66.845,48.853,48.853,0,0,0,7.825,2.223v.578a13.548,13.548,0,0,0,5.965,1.386,1.008,1.008,0,0,0,.445-.074.978.978,0,0,0,.37-.578,23.121,23.121,0,0,0,1.223-6.343,5.054,5.054,0,0,0-.126-1.638c-.163-.526.385-.3-.119-.511" transform="translate(-141.033 -300.689)"/><path class="m" d="M475.846,632.733c-8.655.519-17.207-2.016-25.877-2.282a12.634,12.634,0,0,0-3.216.2,16.209,16.209,0,0,0-3.186,1.237c-4.646,2.164-9.456,3.957-14.258,5.743l-5.521,2.053a8.359,8.359,0,0,1-3.416.741c-.526,0-1.171-.111-1.482.326-.9,1.334-.474,3.283.119,4.78.193.482.519,1.008,1.037,1.06a3.013,3.013,0,0,0,1.052-.267c1-.267,2,.408,3.038.519,1.275.133,2.46-.593,3.668-1.037,2-.741,4.18-.741,6.284-1.067a28.154,28.154,0,0,0,9.841-4.083,11.487,11.487,0,0,1,3.668-1.734,10.152,10.152,0,0,1,4.617.526,105.959,105.959,0,0,1,10.589,3.6,49.332,49.332,0,0,0,5.528,2.023,20.008,20.008,0,0,0,12.4-.741c1.386-.548,2.89-1.482,2.964-3.009.052-.852-.615-1.6-1.052-2.334-.282-.467-.571-.934-.874-1.386C480.285,635.452,478.476,632.577,475.846,632.733Z" transform="translate(-146.876 -297.639)"/><path class="d" d="M475.846,632.733c-8.655.519-17.207-2.016-25.877-2.282a12.634,12.634,0,0,0-3.216.2,16.209,16.209,0,0,0-3.186,1.237c-4.646,2.164-9.456,3.957-14.258,5.743l-5.521,2.053a8.359,8.359,0,0,1-3.416.741c-.526,0-1.171-.111-1.482.326-.9,1.334-.474,3.283.119,4.78.193.482.519,1.008,1.037,1.06a3.013,3.013,0,0,0,1.052-.267c1-.267,2,.408,3.038.519,1.275.133,2.46-.593,3.668-1.037,2-.741,4.18-.741,6.284-1.067a28.154,28.154,0,0,0,9.841-4.083,11.487,11.487,0,0,1,3.668-1.734,10.152,10.152,0,0,1,4.617.526,105.959,105.959,0,0,1,10.589,3.6,49.332,49.332,0,0,0,5.528,2.023,20.008,20.008,0,0,0,12.4-.741c1.386-.548,2.89-1.482,2.964-3.009.052-.852-.615-1.6-1.052-2.334-.282-.467-.571-.934-.874-1.386C480.285,635.452,478.476,632.577,475.846,632.733Z" transform="translate(-146.876 -297.639)"/><path class="n" d="M436.92,644.741q2.03.689,4.1,1.275c.741-1.267,2.223-2.149,2.542-3.6a.341.341,0,0,0,0-.193.356.356,0,0,0-.156-.141,7.766,7.766,0,0,0-3.216-.941c-.889-.052-1.3.874-1.7,1.527C438.335,642.955,437.283,644.882,436.92,644.741Z" transform="translate(-151.679 -300.413)"/><path class="m" d="M434.8,644.062a2.964,2.964,0,0,1-1.993-1.312c-.185-.333-.393-.785-.778-.741s-.511.445-.593.793a22.236,22.236,0,0,1-1.119,3.846,7.217,7.217,0,0,1-2.394,3.149c-.5.348-1.06.608-1.556.978a10.687,10.687,0,0,1-1.312.993,7.776,7.776,0,0,1-1.008.371,6.99,6.99,0,0,0-1.438.741,2.853,2.853,0,0,0-.986.941,1.356,1.356,0,0,0-.074,1.312,1.4,1.4,0,0,0,.956.652,4.037,4.037,0,0,0,1.193,0c1.578-.111,3.157-.252,4.735-.393a13.679,13.679,0,0,0,1.979-.274l1.03-.282a8.2,8.2,0,0,1,1.8-.267,1.4,1.4,0,0,1,.526.052c.363.119.622.482,1,.556a1.674,1.674,0,0,0,.741-.1,16.362,16.362,0,0,1,3.505-.363,1.479,1.479,0,0,0,1.364-.593c.3-.578-.193-1.223-.393-1.845a5.932,5.932,0,0,1-.163-1.208,7.365,7.365,0,0,0-.867-2.875c-.4-.741-.949-1.556-.667-2.342a2.224,2.224,0,0,0,.267-.808C438.449,643.773,435.529,644.225,434.8,644.062Z" transform="translate(-147.665 -300.638)"/><path class="n" d="M475.872,612.141a6.759,6.759,0,0,1-3.453-3.424c-.141-.326-.259-.674-.4-1a7.6,7.6,0,0,0-2.06-2.868,1.015,1.015,0,0,0-.741-.319.808.808,0,0,0-.556.6,2.291,2.291,0,0,0-.059.926,16.518,16.518,0,0,0,.37,2.164l.422,1.912a4.2,4.2,0,0,0,.259.852,2.964,2.964,0,0,0,.7.837c.385.356.778.7,1.171,1.037a4.02,4.02,0,0,0,.741.511,4.306,4.306,0,0,0,1.312.385,11.161,11.161,0,0,1,4.921,1.9V614.23a1.882,1.882,0,0,0-.37-1.03,6.572,6.572,0,0,0-2.26-1.06Z" transform="translate(-159.878 -290.934)"/><path class="d" d="M475.872,612.141a6.759,6.759,0,0,1-3.453-3.424c-.141-.326-.259-.674-.4-1a7.6,7.6,0,0,0-2.06-2.868,1.015,1.015,0,0,0-.741-.319.808.808,0,0,0-.556.6,2.291,2.291,0,0,0-.059.926,16.518,16.518,0,0,0,.37,2.164l.422,1.912a4.2,4.2,0,0,0,.259.852,2.964,2.964,0,0,0,.7.837c.385.356.778.7,1.171,1.037a4.02,4.02,0,0,0,.741.511,4.306,4.306,0,0,0,1.312.385,11.161,11.161,0,0,1,4.921,1.9V614.23a1.882,1.882,0,0,0-.37-1.03,6.572,6.572,0,0,0-2.26-1.06Z" transform="translate(-159.878 -290.934)"/><ellipse class="m" cx="2.105" cy="2.119" rx="2.105" ry="2.119" transform="translate(331.512 302.34)"/><path class="m" d="M495.351,590.458a2.275,2.275,0,0,0-1.66.237,2.305,2.305,0,0,0-.571.778,11.3,11.3,0,0,0-1.1,2.579c-.185.741-.215,1.578-.452,2.342-.43,1.408-1.534,2.6-1.66,4.068-.059.66.052,1.43-.43,1.875a2.726,2.726,0,0,1-.378.274,2.846,2.846,0,0,0-.83.852,2.793,2.793,0,0,1-.585.808c-.43.319-1.141.289-1.349.741s.333,1.067.208,1.6-.593.637-.926.934a3.239,3.239,0,0,0-.8,1.482,4.943,4.943,0,0,1-4.031-1,12.836,12.836,0,0,1,.63,4.609,1.883,1.883,0,0,1-.371,1.423,25.659,25.659,0,0,1,4.943.859,3.409,3.409,0,0,0,2.156,0,3.6,3.6,0,0,0,.993-.785,6.33,6.33,0,0,0,2.038-3.142,18.452,18.452,0,0,0,.037-2.127,11.994,11.994,0,0,1,.541-2.586,30.772,30.772,0,0,0,.941-5.321c.1-1.112,1.06-2,1.564-2.964a14.515,14.515,0,0,0,1.993-5.928C496.285,591.384,496.048,590.532,495.351,590.458Z" transform="translate(-163.04 -287.273)"/><path class="d" d="M495.351,590.458a2.275,2.275,0,0,0-1.66.237,2.305,2.305,0,0,0-.571.778,11.3,11.3,0,0,0-1.1,2.579c-.185.741-.215,1.578-.452,2.342-.43,1.408-1.534,2.6-1.66,4.068-.059.66.052,1.43-.43,1.875a2.726,2.726,0,0,1-.378.274,2.846,2.846,0,0,0-.83.852,2.793,2.793,0,0,1-.585.808c-.43.319-1.141.289-1.349.741s.333,1.067.208,1.6-.593.637-.926.934a3.239,3.239,0,0,0-.8,1.482,4.943,4.943,0,0,1-4.031-1,12.836,12.836,0,0,1,.63,4.609,1.883,1.883,0,0,1-.371,1.423,25.659,25.659,0,0,1,4.943.859,3.409,3.409,0,0,0,2.156,0,3.6,3.6,0,0,0,.993-.785,6.33,6.33,0,0,0,2.038-3.142,18.452,18.452,0,0,0,.037-2.127,11.994,11.994,0,0,1,.541-2.586,30.772,30.772,0,0,0,.941-5.321c.1-1.112,1.06-2,1.564-2.964a14.515,14.515,0,0,0,1.993-5.928C496.285,591.384,496.048,590.532,495.351,590.458Z" transform="translate(-163.04 -287.273)"/><path class="m" d="M482.676,629.77c-1.8-.859-3.12-2.453-4.58-3.824-2.779-2.616-6.18-4.446-9.107-6.914a64.173,64.173,0,0,0-5.8-4.876,14.5,14.5,0,0,0-6.217-2.171,1.655,1.655,0,0,0-.741,0,1.7,1.7,0,0,0-.7.556,22.4,22.4,0,0,0-2.512,3.446c-3.705,6.3-8.974,11.59-13.339,17.444a1.112,1.112,0,0,0-.215.415,1.03,1.03,0,0,0,.163.645l.889,1.734c.5.978,1.3,2.112,2.364,1.919a2.585,2.585,0,0,0,1.238-.793l3.987-3.816,4.18-3.994c2.445-2.334,4.935-4.728,6.536-7.722,1.245,2.164,3.461,3.579,4.972,5.558.578.741,1.052,1.578,1.571,2.379.823,1.275,1.764,2.475,2.7,3.705l4.794,6.114a9.176,9.176,0,0,0,2.223,2.223,8.486,8.486,0,0,0,3.846,1.03,50.847,50.847,0,0,0,5.417.193,9.339,9.339,0,0,0,4.039-.741,3.661,3.661,0,0,0,2.186-3.253,4.771,4.771,0,0,0-.689-2.023A16.515,16.515,0,0,0,482.676,629.77Z" transform="translate(-152.336 -292.853)"/><ellipse class="o" cx="1.623" cy="1.63" rx="1.623" ry="1.63" transform="translate(333.29 304.296)"/><path class="n" d="M502.693,590.751a3.12,3.12,0,0,1,.178,2.342,9.493,9.493,0,0,1-1.045,2.156,10.266,10.266,0,0,1-1.356,1.927,13.958,13.958,0,0,0,7.129-2.045,10.351,10.351,0,0,0,4.5-3.92,2.075,2.075,0,0,1-1.66-.311,5.931,5.931,0,0,1-1.267-1.178l-1.252-1.408a5.637,5.637,0,0,1-.741-1.015,2.8,2.8,0,0,1-.333-1.638,9.529,9.529,0,0,1-1.66,1.378c-.9.585-1.882,1.008-2.786,1.586-.311.208-1.023.533-.837.948S502.441,590.306,502.693,590.751Z" transform="translate(-168.136 -286.047)"/><path class="d" d="M502.693,590.751a3.12,3.12,0,0,1,.178,2.342,9.493,9.493,0,0,1-1.045,2.156,10.266,10.266,0,0,1-1.356,1.927,13.958,13.958,0,0,0,7.129-2.045,10.351,10.351,0,0,0,4.5-3.92,2.075,2.075,0,0,1-1.66-.311,5.931,5.931,0,0,1-1.267-1.178l-1.252-1.408a5.637,5.637,0,0,1-.741-1.015,2.8,2.8,0,0,1-.333-1.638,9.529,9.529,0,0,1-1.66,1.378c-.9.585-1.882,1.008-2.786,1.586-.311.208-1.023.533-.837.948S502.441,590.306,502.693,590.751Z" transform="translate(-168.136 -286.047)"/><path class="o" d="M500.063,592.768a2.112,2.112,0,0,0,0,2.445c.074.089.341.645.452.652a.407.407,0,0,0,.282-.148,18.581,18.581,0,0,0,1.586-1.89,3.526,3.526,0,0,1,2.016-1.319,4.357,4.357,0,0,1,2.779.867,2.638,2.638,0,0,1,.956.741,2.585,2.585,0,0,1,.311,1.06,51.047,51.047,0,0,1,.282,6.736,26.543,26.543,0,0,1-.319,4.854c-.163.823-.4,1.63-.511,2.468a15.748,15.748,0,0,0-.1,2.223v3.1a8.152,8.152,0,0,0,.119,1.7c.148.674.467,1.3.682,1.964a12.847,12.847,0,0,1,.452,2.319l.422,3.2a4.047,4.047,0,0,1-.378,2.964c-.274.363-.637.66-.919,1.023-1.045,1.364-.741,3.312-1.149,4.98a6.21,6.21,0,0,1-2.03,3.112,3.357,3.357,0,0,1-2.675.956c-1.3-.245-2.082-1.6-2.438-2.883a11.526,11.526,0,0,0-1.252-3.757,9.965,9.965,0,0,0-2.475-2.068,4.276,4.276,0,0,1-1.934-2.512c-.081-.467,0-.949-.081-1.423a3.357,3.357,0,0,0-2.068-2.72c-.667-.259-1.482-.356-1.867-.963a4.5,4.5,0,0,0,1.949-2.616,13.437,13.437,0,0,0,.474-3.305l.222-3.705a12.377,12.377,0,0,1,.882-4.809c.326-.667.741-1.3,1.075-1.956a21.238,21.238,0,0,0,1.149-2.868c.534-1.527,1.067-3.053,1.541-4.594a8.658,8.658,0,0,1,.845-2.142C498.737,593.754,499.315,592.917,500.063,592.768Z" transform="translate(-165.476 -287.82)"/><path class="m" d="M492.323,616.721h.986l.208-1.482a3.089,3.089,0,0,1,.207-.867,5.188,5.188,0,0,1,.571-.83c.963-1.371.9-3.187,1.134-4.854a24.7,24.7,0,0,1,2.164-6.343l1.912-4.261a5.878,5.878,0,0,0,.415-1.089,6.535,6.535,0,0,0,.119-1.26c0-.66.207-3.061.23-3.705,0-.245-.541-.111-.652-.326-.237-.474-.563.808-1.015,1.089a2.49,2.49,0,0,0-.882,1.289c-.415,1.067-.667,2.223-1.052,3.283a6.706,6.706,0,0,1-1.786,2.9c-.393.341-.845.615-1.215.986-1.186,1.171-1.3,3.031-1.341,4.706C492.293,606.984,492.1,616.721,492.323,616.721Z" transform="translate(-165.999 -287.585)"/><path class="m" d="M508.359,590.435a3.364,3.364,0,0,0-1.756,2.408,12.182,12.182,0,0,1-.889,2.964c-1.2,2.09-4.261,2.7-5.113,4.958a9.114,9.114,0,0,0-.341,2.334c-.148,1.623-.682,3.186-.845,4.8a21.394,21.394,0,0,0,.089,3.772l1.075,12.761a17.046,17.046,0,0,1-.319,5.617,5.409,5.409,0,0,0,3.216-.533c1-.459,1.919-1.089,2.89-1.623a29.775,29.775,0,0,0,4.958-2.786,3.031,3.031,0,0,0,.667-.741,6.411,6.411,0,0,0,.445-1.675,9.043,9.043,0,0,1,.482-1.319,38.878,38.878,0,0,0,1.393-3.942,22.643,22.643,0,0,0,.637-2.7c.119-.741.185-1.482.245-2.223a13.039,13.039,0,0,1,.682-3.372,27.158,27.158,0,0,0,1.564-8.092,4.231,4.231,0,0,0-.081-1.186,6.345,6.345,0,0,0-.652-1.356c-.445-.837-.741-1.756-1.126-2.608a12.827,12.827,0,0,0-4.38-4.6C510.337,590.709,509.329,590.087,508.359,590.435Z" transform="translate(-167.851 -287.258)"/><path class="n" d="M477.235,617.066a7.729,7.729,0,0,1-2.038-1.549c-.267-.311-.489-.659-.741-.971a5.046,5.046,0,0,0-2.564-1.482,12.524,12.524,0,0,0-2.964-.289,5.378,5.378,0,0,0-1.979.237,2.016,2.016,0,0,0-1.312,1.408,2.334,2.334,0,0,0,1,2.075,4.714,4.714,0,0,0,1.993.963,15.934,15.934,0,0,0,1.8.215c3.542.371,6.706,2.3,9.811,4.053q4.09,2.327,8.344,4.328a17.344,17.344,0,0,0,.141-2.557c0-.637-.052-1.615-.652-1.993a13.083,13.083,0,0,0-2.653-.793,41.745,41.745,0,0,1-5.343-2.164A26.582,26.582,0,0,1,477.235,617.066Z" transform="translate(-159.115 -293.066)"/><ellipse class="n" cx="6.314" cy="6.351" rx="6.314" ry="6.351" transform="translate(327.302 291.276)"/><path class="m" d="M508.49,599.9a10.123,10.123,0,0,0-1.223,2.29c-.741,1.6-2,2.964-2.616,4.661s-.622,3.876-1.89,5.261a1.845,1.845,0,0,0-.556.8,3.82,3.82,0,0,1-.059.578c-.185.5-1.008.526-1.163,1.045-.044.148,0,.311-.074.459-.126.333-.571.385-.86.585-.615.415-.489,1.378-.926,1.979a1.667,1.667,0,0,1-1.578.556,5.56,5.56,0,0,1-1.638-.615,1.578,1.578,0,0,0-.593-.185,1.222,1.222,0,0,0-.682.237,4.2,4.2,0,0,0-1.7,3.594,11.738,11.738,0,0,0,.978,4.024,1.616,1.616,0,0,0,.319.6,1.416,1.416,0,0,0,1.571.119,7.4,7.4,0,0,1,1.534-.689c.978-.178,1.934.5,2.927.437a4.068,4.068,0,0,0,1.971-.867,10.894,10.894,0,0,0,2.653-2.223c.43-.571.741-1.215,1.126-1.823A23.393,23.393,0,0,1,507.6,618.6l3.646-4.446a10.235,10.235,0,0,0,.978-1.349,9.506,9.506,0,0,0,.741-2.038,15.61,15.61,0,0,0,.741-3.624,13.926,13.926,0,0,0-.267-3.038,10.74,10.74,0,0,0-.741-2.9C511.906,599.528,509.979,598.165,508.49,599.9Z" transform="translate(-166.182 -289.526)"/><path class="i" d="M519.942,581.8a7.114,7.114,0,0,0-2.92-5.78,8.455,8.455,0,0,0-7.181-8.233,8.2,8.2,0,0,0-16.162.437c-2.623-.593-5.024.178-5.461,1.793s1.415,3.705,4.179,4.446a7.786,7.786,0,0,0,2.683.267,8.211,8.211,0,0,0,5.647,3.52,8.426,8.426,0,0,0,6.165,6.358,7.079,7.079,0,0,0,1.9,2.631v.615a5.343,5.343,0,1,0,10.686,0,5.705,5.705,0,0,0-.511-2.364A7.145,7.145,0,0,0,519.942,581.8Z" transform="translate(-164.947 -279.712)"/><path class="d" d="M489.994,570.357c.437-1.615,2.838-2.386,5.461-1.793a8.344,8.344,0,0,1,8.151-7.025h.541a8.029,8.029,0,0,0-2.327-.348,8.344,8.344,0,0,0-8.151,7.025c-2.623-.593-5.024.178-5.461,1.793s1.415,3.705,4.18,4.446a8.157,8.157,0,0,0,1.586.274C491.328,573.936,489.556,572.009,489.994,570.357Z" transform="translate(-164.944 -279.71)"/><path class="d" d="M513.023,592.991a5.56,5.56,0,0,1,0-.608,6.92,6.92,0,0,1-1.9-2.631,8.4,8.4,0,0,1-6.165-6.366,8.187,8.187,0,0,1-5.654-3.512,7.1,7.1,0,0,1-1.578-.045,8.233,8.233,0,0,0,5.447,3.238,8.426,8.426,0,0,0,6.165,6.358,7.077,7.077,0,0,0,1.9,2.631v.615a5.439,5.439,0,0,0,5.313,5.528A5.528,5.528,0,0,1,513.023,592.991Z" transform="translate(-167.424 -284.537)"/><ellipse class="n" cx="0.971" cy="1.297" rx="0.971" ry="1.297" transform="translate(334.171 298.479) rotate(-37.22)"/></g></svg>