<svg xmlns="http://www.w3.org/2000/svg" width="27.688" height="20.737" viewBox="0 0 27.688 20.737"><defs><style>.a{fill:#222426;}</style></defs><g transform="translate(0 0)"><path class="a" d="M25.14,64.267H2.548a2.549,2.549,0,0,0,0,5.1H25.14a2.549,2.549,0,0,0,0-5.1Z" transform="translate(0 -64.267)"/><path class="a" d="M25.14,208.867H2.548a2.549,2.549,0,0,0,0,5.1H25.14a2.549,2.549,0,0,0,0-5.1Z" transform="translate(0 -201.047)"/><path class="a" d="M25.14,353.467H2.548a2.549,2.549,0,0,0,0,5.1H25.14a2.549,2.549,0,0,0,0-5.1Z" transform="translate(0 -337.828)"/></g></svg>