<svg xmlns="http://www.w3.org/2000/svg" width="607.027" height="536.829" viewBox="0 0 607.027 536.829"><defs><style>.a{fill:#e6c229;}.b,.j{fill:#3f3d56;}.c{fill:#005c97;}.d{fill:none;stroke:#3f3d56;stroke-width:2px;}.d,.j{stroke-miterlimit:10;}.e{opacity:0.1;}.f{fill:#2f2e41;}.g{fill:#ffb9b9;}.h{opacity:0.05;}.i{fill:#f2f2f2;}.j{stroke:#1b065e;}.k{opacity:0.8;}</style></defs><circle class="a" cx="259.322" cy="259.322" r="259.322" transform="translate(56.154 0)"/><path class="b" d="M384.96,673.084c-16.7,25.617-12.127,58.2-12.127,58.2s31.66-8.952,48.364-34.569,12.127-58.2,12.127-58.2S401.665,647.467,384.96,673.084Z" transform="translate(-237.337 -230.547)"/><path class="c" d="M348.109,733.517s-.407-.065-1.155-.216c-.6-.121-1.419-.294-2.423-.532-8.972-2.115-32.826-9.266-48.422-28.068-19.519-23.542-18.7-56.433-18.7-56.433s29.845,4.85,49.512,25.991q1.278,1.363,2.487,2.825c16.984,20.484,18.567,48.045,18.693,54.859C348.122,732.963,348.109,733.517,348.109,733.517Z" transform="translate(-212.702 -233.08)"/><path class="d" d="M339.482,673.084c16.7,25.617,12.127,58.2,12.127,58.2s-31.66-8.952-48.364-34.569-12.127-58.2-12.127-58.2S322.778,647.467,339.482,673.084Z" transform="translate(-216.114 -230.547)"/><path class="e" d="M365.351,741.061c-.441.532-.831.986-1.151,1.358-.709.809-1.112,1.233-1.112,1.233s-.489-.614-1.311-1.765c-4.512-6.29-19.026-28.656-17.906-54.491q.091-2.031.3-4.019,1.278,1.363,2.488,2.825C363.642,706.686,365.225,734.248,365.351,741.061Z" transform="translate(-229.948 -242.199)"/><path class="c" d="M391.181,671.593c-1.32,30.553-24,54.388-24,54.388s-20.54-25.7-19.219-56.256,24-54.388,24-54.388S392.5,641.04,391.181,671.593Z" transform="translate(-231.01 -224.527)"/><line class="d" y1="108.532" x2="4.986" transform="translate(136.17 392.056)"/><ellipse class="b" cx="303.514" cy="24.777" rx="303.514" ry="24.777" transform="translate(0 487.276)"/><path class="f" d="M645.82,376.1c-7.567,2.555-14.422,8.532-15.972,16.367-.718,3.632-.278,7.407-.882,11.06-1.4,8.471-8.051,14.94-14.184,20.95s-12.467,12.992-12.914,21.566c-.49,9.389,6.319,18.186,5.141,27.514-1.369,10.837-12.815,17.86-15.645,28.41-1.889,7.045.426,14.634,4.235,20.854,7.259,11.854,19.666,19.9,32.88,24.215s27.285,5.222,41.184,5.367c16.923.177,35.3-1.276,48.013-12.445a38.464,38.464,0,0,0,12.769-25.041c1.208-12.938-4.192-26.306-.467-38.755,2.344-7.835,8.223-14.99,7.345-23.12-.858-7.95-7.8-13.585-12.564-20.007-4.447-6-7.146-13.078-9.791-20.059l-9.05-23.887c-1.779-4.7-3.732-9.634-7.7-12.717-7.422-5.77-19.356-4.636-28.035-3.446C662.135,374.034,653.563,373.488,645.82,376.1Z" transform="translate(-294.069 -161.318)"/><path class="g" d="M655.409,471.151s4.012,13.038-26.076,28.081,3.009,31.09,3.009,31.09l35.1,8.023s36.1-5.014,40.116-11.032,11.032-26.076,9.026-29.084a46.893,46.893,0,0,0-5.015-6.017S687.5,488.2,688.5,477.168,655.409,471.151,655.409,471.151Z" transform="translate(-300.824 -186.783)"/><path class="e" d="M655.409,471.151s4.012,13.038-26.076,28.081,3.009,31.09,3.009,31.09l35.1,8.023s36.1-5.014,40.116-11.032,11.032-26.076,9.026-29.084a46.893,46.893,0,0,0-5.015-6.017S687.5,488.2,688.5,477.168,655.409,471.151,655.409,471.151Z" transform="translate(-300.824 -186.783)"/><circle class="g" cx="32.093" cy="32.093" r="32.093" transform="translate(342.049 240.741)"/><path class="c" d="M664.628,534.68s-38.65-2.827-39.383-29.495c0,0-13.771-1.6-17.782,2.416s-17.049,7.02-17.049,17.049,22.064,40.116,22.064,40.116,12.035,40.116,7.02,47.137-6.017,25.073-6.017,25.073,50.145-4.012,58.169,0,40.116,4.012,42.122,0-2.006-54.157-2.006-54.157,9.026-12.035,7.02-26.076l24.07-28.081s-9.026-27.078-23.067-27.078c0,0-19.055-5.015-19.557-2.507S709.759,529.665,664.628,534.68Z" transform="translate(-293.996 -194.149)"/><path class="g" d="M568.737,662.415s9.026,14.041,32.093,17.049,27.078-5.014,25.073-7.02-26.076-11.032-26.076-11.032L585.786,650.38Z" transform="translate(-288.367 -233.629)"/><path class="g" d="M773.339,650.38l-26.076,15.044s-34.1-2.006-21.061,8.023,37.108,6.017,37.108,6.017l23.067-11.032Z" transform="translate(-328.493 -233.629)"/><path class="f" d="M611.517,685.6s-24.07,59.171,5.015,68.2,109.317,7.02,127.369-5.014,23.067-28.081,20.058-33.1-23.067-19.055-37.107-20.058S611.517,685.6,611.517,685.6Z" transform="translate(-297.048 -242.777)"/><path class="h" d="M611.517,685.6s-24.07,59.171,5.015,68.2,109.317,7.02,127.369-5.014,23.067-28.081,20.058-33.1-23.067-19.055-37.107-20.058S611.517,685.6,611.517,685.6Z" transform="translate(-297.048 -242.777)"/><path class="f" d="M740.73,686.372s84.959-30.755,83.956,6.353-54.157,47.137-54.157,47.137l-16.047,2.006-88.255,3.009s3.009-16.046-4.012-18.052c0,0,23.067-6.017,24.07-7.02s58.169-21.061,62.18-22.064,16.047-9.026,25.073-8.023c0,0,10.029-8.023,21.061-6.017l-31.09,2.006Z" transform="translate(-312.645 -239.869)"/><path class="e" d="M740.73,686.372s84.959-30.755,83.956,6.353-54.157,47.137-54.157,47.137l-16.047,2.006-88.255,3.009s3.009-16.046-4.012-18.052c0,0,23.067-6.017,24.07-7.02s58.169-21.061,62.18-22.064,16.047-9.026,25.073-8.023c0,0,10.029-8.023,21.061-6.017l-31.09,2.006Z" transform="translate(-312.645 -239.869)"/><path class="f" d="M558,604.737l10.711,24.439L633.9,606.108l5.015-13.038-17.049-3.009-34.276,6.017-14.866,4.012Z" transform="translate(-144.925 -153.253)"/><path class="e" d="M558,604.737l10.711,24.439L633.9,606.108l5.015-13.038-17.049-3.009-34.276,6.017-14.866,4.012Z" transform="translate(-144.925 -153.253)"/><path class="f" d="M554.274,719.531s19.055,24.07,41.119,30.087,34.1-2.006,34.1-2.006l-7.02-28.081-3.009-18.052-13.038-9.026L580.35,680.418l-31.09-10.029s-13.038-2.006-13.038,0,12.035,32.093,12.035,32.093Z" transform="translate(-279.922 -238.594)"/><path class="i" d="M591.768,754.642s4.011,29.084,9.026,31.09,20.058-2.006,24.07-4.012,17.648-11.26,17.648-11.26S594.777,752.636,591.768,754.642Z" transform="translate(-294.348 -260.667)"/><path class="g" d="M521.709,671.348l19.055,3.008-2.006,23.067-26.578-6.456Z" transform="translate(-133.025 -174.365)"/><path class="i" d="M729.8,763.834s-8.93,10.63.1,16.647l6.017,5.015s20.058,4.012,22.064,6.017S768,788.5,768,788.5s1-30.087,0-32.093-13.038-4.012-14.041-2.006-13.038,5.015-20.058,3.009Z" transform="translate(-329.174 -260.431)"/><path class="f" d="M590.329,684.778s-70.2-41.119-81.235-26.076-23.067,36.1,9.026,52.151S650.5,760,650.5,760s15.044-23.067,15.044-29.084c0,0-53.154-24.07-62.18-26.076s-45.131-25.073-50.145-27.078-12.035-8.023-12.035-8.023Z" transform="translate(-269.843 -234.93)"/><path class="c" d="M586.663,527.1l-4.012,3.009s-9.026,23.067-10.029,36.1-13.038,53.154-12.035,58.169,2.006,9.026,8.023,14.041c0,0,8.023-18.052,22.064-15.044l17.049-62.18Z" transform="translate(-286.235 -201.609)"/><path class="c" d="M778.815,527.1l8.023,9.026s5.015,12.035,5.015,15.044,10.029,47.137,11.032,49.142,5.015,27.078,0,33.1-14.041,10.029-14.041,10.029,6.017-21.061-13.038-22.064l2.006-8.023L759.76,553.171Z" transform="translate(-337.98 -201.609)"/><path class="b" d="M598.542,615.914v52.827a12.7,12.7,0,0,0,12.512,12.7l110.477,1.637a12.7,12.7,0,0,0,12.879-12.211l2.032-52.833a12.7,12.7,0,0,0-12.507-13.187l-112.509-1.63a12.7,12.7,0,0,0-12.885,12.7Z" transform="translate(-296.108 -221.378)"/><ellipse class="f" cx="34.545" cy="18.601" rx="34.545" ry="18.601" transform="translate(341.479 234.603)"/><circle class="i" cx="8.023" cy="8.023" r="8.023" transform="translate(362.107 414.244)"/><path class="f" d="M972.941,655.635v91.622c0,1.574-.847,1.8-2.224,2.562-4.645,2.576-16.094,7.166-29.839-.1-1.411-.746-2.28-1-2.28-2.594v-90.9S956.063,663.266,972.941,655.635Z" transform="translate(-384.428 -234.993)"/><ellipse class="j" cx="17.171" cy="3.647" rx="17.171" ry="3.647" transform="translate(554.17 416.933)"/><g class="k" transform="translate(555.348 458.302)"><circle cx="0.385" cy="0.385" r="0.385" transform="translate(31.215)"/><circle cx="0.385" cy="0.385" r="0.385" transform="translate(29.259 0.547)"/><circle cx="0.385" cy="0.385" r="0.385" transform="translate(26.843 1.317)"/><circle cx="0.385" cy="0.385" r="0.385" transform="translate(22.51 2.251)"/><circle cx="0.385" cy="0.385" r="0.385" transform="translate(17.942 2.804)"/><circle cx="0.385" cy="0.385" r="0.385" transform="translate(13.212 3.021)"/><circle cx="0.385" cy="0.385" r="0.385" transform="translate(6.421 2.088)"/><circle cx="0.385" cy="0.385" r="0.385" transform="translate(8.671 2.636)"/><circle cx="0.385" cy="0.385" r="0.385" transform="translate(2.218 1.317)"/><circle cx="0.385" cy="0.385" r="0.385" transform="translate(4.242 1.703)"/><circle cx="0.385" cy="0.385" r="0.385" transform="translate(0 0.547)"/><circle cx="0.385" cy="0.385" r="0.385" transform="translate(24.63 1.865)"/><circle cx="0.385" cy="0.385" r="0.385" transform="translate(20.16 2.636)"/><circle cx="0.385" cy="0.385" r="0.385" transform="translate(15.31 3.021)"/><circle cx="0.385" cy="0.385" r="0.385" transform="translate(10.897 3.021)"/></g><g class="k" transform="translate(555.348 460.198)"><circle cx="0.385" cy="0.385" r="0.385" transform="translate(31.215)"/><circle cx="0.385" cy="0.385" r="0.385" transform="translate(29.259 0.547)"/><circle cx="0.385" cy="0.385" r="0.385" transform="translate(26.843 1.317)"/><circle cx="0.385" cy="0.385" r="0.385" transform="translate(22.51 2.251)"/><circle cx="0.385" cy="0.385" r="0.385" transform="translate(17.942 2.804)"/><circle cx="0.385" cy="0.385" r="0.385" transform="translate(13.212 3.021)"/><circle cx="0.385" cy="0.385" r="0.385" transform="translate(6.421 2.088)"/><circle cx="0.385" cy="0.385" r="0.385" transform="translate(8.671 2.636)"/><circle cx="0.385" cy="0.385" r="0.385" transform="translate(2.218 1.317)"/><circle cx="0.385" cy="0.385" r="0.385" transform="translate(4.242 1.703)"/><circle cx="0.385" cy="0.385" r="0.385" transform="translate(0 0.547)"/><circle cx="0.385" cy="0.385" r="0.385" transform="translate(24.63 1.865)"/><circle cx="0.385" cy="0.385" r="0.385" transform="translate(20.16 2.636)"/><circle cx="0.385" cy="0.385" r="0.385" transform="translate(15.31 3.021)"/><circle cx="0.385" cy="0.385" r="0.385" transform="translate(10.897 3.021)"/></g><g class="k" transform="translate(555.348 462.094)"><circle cx="0.385" cy="0.385" r="0.385" transform="translate(31.215)"/><circle cx="0.385" cy="0.385" r="0.385" transform="translate(29.259 0.547)"/><circle cx="0.385" cy="0.385" r="0.385" transform="translate(26.843 1.317)"/><circle cx="0.385" cy="0.385" r="0.385" transform="translate(22.51 2.251)"/><circle cx="0.385" cy="0.385" r="0.385" transform="translate(17.942 2.804)"/><circle cx="0.385" cy="0.385" r="0.385" transform="translate(13.212 3.021)"/><circle cx="0.385" cy="0.385" r="0.385" transform="translate(6.421 2.088)"/><circle cx="0.385" cy="0.385" r="0.385" transform="translate(8.671 2.636)"/><circle cx="0.385" cy="0.385" r="0.385" transform="translate(2.218 1.317)"/><circle cx="0.385" cy="0.385" r="0.385" transform="translate(4.242 1.703)"/><circle cx="0.385" cy="0.385" r="0.385" transform="translate(0 0.547)"/><circle cx="0.385" cy="0.385" r="0.385" transform="translate(24.63 1.865)"/><circle cx="0.385" cy="0.385" r="0.385" transform="translate(20.16 2.636)"/><circle cx="0.385" cy="0.385" r="0.385" transform="translate(15.31 3.021)"/><circle cx="0.385" cy="0.385" r="0.385" transform="translate(10.897 3.021)"/></g><g class="k" transform="translate(555.348 463.99)"><circle cx="0.385" cy="0.385" r="0.385" transform="translate(31.215)"/><circle cx="0.385" cy="0.385" r="0.385" transform="translate(29.259 0.547)"/><circle cx="0.385" cy="0.385" r="0.385" transform="translate(26.843 1.317)"/><circle cx="0.385" cy="0.385" r="0.385" transform="translate(22.51 2.251)"/><circle cx="0.385" cy="0.385" r="0.385" transform="translate(17.942 2.804)"/><circle cx="0.385" cy="0.385" r="0.385" transform="translate(13.212 3.021)"/><circle cx="0.385" cy="0.385" r="0.385" transform="translate(6.421 2.088)"/><circle cx="0.385" cy="0.385" r="0.385" transform="translate(8.671 2.636)"/><circle cx="0.385" cy="0.385" r="0.385" transform="translate(2.218 1.317)"/><circle cx="0.385" cy="0.385" r="0.385" transform="translate(4.242 1.703)"/><circle cx="0.385" cy="0.385" r="0.385" transform="translate(0 0.547)"/><circle cx="0.385" cy="0.385" r="0.385" transform="translate(24.63 1.865)"/><circle cx="0.385" cy="0.385" r="0.385" transform="translate(20.16 2.636)"/><circle cx="0.385" cy="0.385" r="0.385" transform="translate(15.31 3.021)"/><circle cx="0.385" cy="0.385" r="0.385" transform="translate(10.897 3.021)"/></g><g class="k" transform="translate(555.348 465.886)"><circle cx="0.385" cy="0.385" r="0.385" transform="translate(31.215)"/><circle cx="0.385" cy="0.385" r="0.385" transform="translate(29.259 0.547)"/><circle cx="0.385" cy="0.385" r="0.385" transform="translate(26.843 1.317)"/><circle cx="0.385" cy="0.385" r="0.385" transform="translate(22.51 2.251)"/><circle cx="0.385" cy="0.385" r="0.385" transform="translate(17.942 2.804)"/><circle cx="0.385" cy="0.385" r="0.385" transform="translate(13.212 3.021)"/><circle cx="0.385" cy="0.385" r="0.385" transform="translate(6.421 2.088)"/><circle cx="0.385" cy="0.385" r="0.385" transform="translate(8.671 2.636)"/><circle cx="0.385" cy="0.385" r="0.385" transform="translate(2.218 1.317)"/><circle cx="0.385" cy="0.385" r="0.385" transform="translate(4.242 1.703)"/><circle cx="0.385" cy="0.385" r="0.385" transform="translate(0 0.547)"/><circle cx="0.385" cy="0.385" r="0.385" transform="translate(24.63 1.865)"/><circle cx="0.385" cy="0.385" r="0.385" transform="translate(20.16 2.636)"/><circle cx="0.385" cy="0.385" r="0.385" transform="translate(15.31 3.021)"/><circle cx="0.385" cy="0.385" r="0.385" transform="translate(10.897 3.021)"/></g><g class="k" transform="translate(555.348 467.782)"><circle cx="0.385" cy="0.385" r="0.385" transform="translate(31.215)"/><circle cx="0.385" cy="0.385" r="0.385" transform="translate(29.259 0.547)"/><circle cx="0.385" cy="0.385" r="0.385" transform="translate(26.843 1.317)"/><circle cx="0.385" cy="0.385" r="0.385" transform="translate(22.51 2.251)"/><circle cx="0.385" cy="0.385" r="0.385" transform="translate(17.942 2.804)"/><circle cx="0.385" cy="0.385" r="0.385" transform="translate(13.212 3.021)"/><circle cx="0.385" cy="0.385" r="0.385" transform="translate(6.421 2.088)"/><circle cx="0.385" cy="0.385" r="0.385" transform="translate(8.671 2.636)"/><circle cx="0.385" cy="0.385" r="0.385" transform="translate(2.218 1.317)"/><circle cx="0.385" cy="0.385" r="0.385" transform="translate(4.242 1.703)"/><circle cx="0.385" cy="0.385" r="0.385" transform="translate(0 0.547)"/><circle cx="0.385" cy="0.385" r="0.385" transform="translate(24.63 1.865)"/><circle cx="0.385" cy="0.385" r="0.385" transform="translate(20.16 2.636)"/><circle cx="0.385" cy="0.385" r="0.385" transform="translate(15.31 3.021)"/><circle cx="0.385" cy="0.385" r="0.385" transform="translate(10.897 3.021)"/></g><g class="k" transform="translate(555.348 469.677)"><circle cx="0.385" cy="0.385" r="0.385" transform="translate(31.215)"/><circle cx="0.385" cy="0.385" r="0.385" transform="translate(29.259 0.547)"/><circle cx="0.385" cy="0.385" r="0.385" transform="translate(26.843 1.317)"/><circle cx="0.385" cy="0.385" r="0.385" transform="translate(22.51 2.251)"/><circle cx="0.385" cy="0.385" r="0.385" transform="translate(17.942 2.804)"/><circle cx="0.385" cy="0.385" r="0.385" transform="translate(13.212 3.021)"/><circle cx="0.385" cy="0.385" r="0.385" transform="translate(6.421 2.088)"/><circle cx="0.385" cy="0.385" r="0.385" transform="translate(8.671 2.636)"/><circle cx="0.385" cy="0.385" r="0.385" transform="translate(2.218 1.317)"/><circle cx="0.385" cy="0.385" r="0.385" transform="translate(4.242 1.703)"/><circle cx="0.385" cy="0.385" r="0.385" transform="translate(0 0.547)"/><circle cx="0.385" cy="0.385" r="0.385" transform="translate(24.63 1.865)"/><circle cx="0.385" cy="0.385" r="0.385" transform="translate(20.16 2.636)"/><circle cx="0.385" cy="0.385" r="0.385" transform="translate(15.31 3.021)"/><circle cx="0.385" cy="0.385" r="0.385" transform="translate(10.897 3.021)"/></g><g class="k" transform="translate(555.348 471.573)"><circle cx="0.385" cy="0.385" r="0.385" transform="translate(31.215)"/><circle cx="0.385" cy="0.385" r="0.385" transform="translate(29.259 0.547)"/><circle cx="0.385" cy="0.385" r="0.385" transform="translate(26.843 1.317)"/><circle cx="0.385" cy="0.385" r="0.385" transform="translate(22.51 2.251)"/><circle cx="0.385" cy="0.385" r="0.385" transform="translate(17.942 2.804)"/><circle cx="0.385" cy="0.385" r="0.385" transform="translate(13.212 3.021)"/><circle cx="0.385" cy="0.385" r="0.385" transform="translate(6.421 2.088)"/><circle cx="0.385" cy="0.385" r="0.385" transform="translate(8.671 2.636)"/><circle cx="0.385" cy="0.385" r="0.385" transform="translate(2.218 1.317)"/><circle cx="0.385" cy="0.385" r="0.385" transform="translate(4.242 1.703)"/><circle cx="0.385" cy="0.385" r="0.385" transform="translate(0 0.547)"/><circle cx="0.385" cy="0.385" r="0.385" transform="translate(24.63 1.865)"/><circle cx="0.385" cy="0.385" r="0.385" transform="translate(20.16 2.636)"/><circle cx="0.385" cy="0.385" r="0.385" transform="translate(15.31 3.021)"/><circle cx="0.385" cy="0.385" r="0.385" transform="translate(10.897 3.021)"/></g><g class="k" transform="translate(555.348 473.469)"><circle cx="0.385" cy="0.385" r="0.385" transform="translate(31.215)"/><circle cx="0.385" cy="0.385" r="0.385" transform="translate(29.259 0.547)"/><circle cx="0.385" cy="0.385" r="0.385" transform="translate(26.843 1.317)"/><circle cx="0.385" cy="0.385" r="0.385" transform="translate(22.51 2.251)"/><circle cx="0.385" cy="0.385" r="0.385" transform="translate(17.942 2.804)"/><circle cx="0.385" cy="0.385" r="0.385" transform="translate(13.212 3.021)"/><circle cx="0.385" cy="0.385" r="0.385" transform="translate(6.421 2.088)"/><circle cx="0.385" cy="0.385" r="0.385" transform="translate(8.671 2.636)"/><circle cx="0.385" cy="0.385" r="0.385" transform="translate(2.218 1.317)"/><circle cx="0.385" cy="0.385" r="0.385" transform="translate(4.242 1.703)"/><circle cx="0.385" cy="0.385" r="0.385" transform="translate(0 0.547)"/><circle cx="0.385" cy="0.385" r="0.385" transform="translate(24.63 1.865)"/><circle cx="0.385" cy="0.385" r="0.385" transform="translate(20.16 2.636)"/><circle cx="0.385" cy="0.385" r="0.385" transform="translate(15.31 3.021)"/><circle cx="0.385" cy="0.385" r="0.385" transform="translate(10.897 3.021)"/></g><g class="k" transform="translate(555.348 475.365)"><circle cx="0.385" cy="0.385" r="0.385" transform="translate(31.215)"/><circle cx="0.385" cy="0.385" r="0.385" transform="translate(29.259 0.547)"/><circle cx="0.385" cy="0.385" r="0.385" transform="translate(26.843 1.317)"/><circle cx="0.385" cy="0.385" r="0.385" transform="translate(22.51 2.251)"/><circle cx="0.385" cy="0.385" r="0.385" transform="translate(17.942 2.804)"/><circle cx="0.385" cy="0.385" r="0.385" transform="translate(13.212 3.021)"/><circle cx="0.385" cy="0.385" r="0.385" transform="translate(6.421 2.088)"/><circle cx="0.385" cy="0.385" r="0.385" transform="translate(8.671 2.636)"/><circle cx="0.385" cy="0.385" r="0.385" transform="translate(2.218 1.317)"/><circle cx="0.385" cy="0.385" r="0.385" transform="translate(4.242 1.703)"/><circle cx="0.385" cy="0.385" r="0.385" transform="translate(0 0.547)"/><circle cx="0.385" cy="0.385" r="0.385" transform="translate(24.63 1.865)"/><circle cx="0.385" cy="0.385" r="0.385" transform="translate(20.16 2.636)"/><circle cx="0.385" cy="0.385" r="0.385" transform="translate(15.31 3.021)"/><circle cx="0.385" cy="0.385" r="0.385" transform="translate(10.897 3.021)"/></g><g class="k" transform="translate(555.348 477.261)"><circle cx="0.385" cy="0.385" r="0.385" transform="translate(31.215)"/><circle cx="0.385" cy="0.385" r="0.385" transform="translate(29.259 0.547)"/><circle cx="0.385" cy="0.385" r="0.385" transform="translate(26.843 1.317)"/><circle cx="0.385" cy="0.385" r="0.385" transform="translate(22.51 2.251)"/><circle cx="0.385" cy="0.385" r="0.385" transform="translate(17.942 2.804)"/><circle cx="0.385" cy="0.385" r="0.385" transform="translate(13.212 3.021)"/><circle cx="0.385" cy="0.385" r="0.385" transform="translate(6.421 2.088)"/><circle cx="0.385" cy="0.385" r="0.385" transform="translate(8.671 2.636)"/><circle cx="0.385" cy="0.385" r="0.385" transform="translate(2.218 1.317)"/><circle cx="0.385" cy="0.385" r="0.385" transform="translate(4.242 1.703)"/><circle cx="0.385" cy="0.385" r="0.385" transform="translate(0 0.547)"/><circle cx="0.385" cy="0.385" r="0.385" transform="translate(24.63 1.865)"/><circle cx="0.385" cy="0.385" r="0.385" transform="translate(20.16 2.636)"/><circle cx="0.385" cy="0.385" r="0.385" transform="translate(15.31 3.021)"/><circle cx="0.385" cy="0.385" r="0.385" transform="translate(10.897 3.021)"/></g><g class="k" transform="translate(555.348 479.157)"><circle cx="0.385" cy="0.385" r="0.385" transform="translate(31.215)"/><circle cx="0.385" cy="0.385" r="0.385" transform="translate(29.259 0.547)"/><circle cx="0.385" cy="0.385" r="0.385" transform="translate(26.843 1.317)"/><circle cx="0.385" cy="0.385" r="0.385" transform="translate(22.51 2.251)"/><circle cx="0.385" cy="0.385" r="0.385" transform="translate(17.942 2.804)"/><circle cx="0.385" cy="0.385" r="0.385" transform="translate(13.212 3.021)"/><circle cx="0.385" cy="0.385" r="0.385" transform="translate(6.421 2.088)"/><circle cx="0.385" cy="0.385" r="0.385" transform="translate(8.671 2.636)"/><circle cx="0.385" cy="0.385" r="0.385" transform="translate(2.218 1.317)"/><circle cx="0.385" cy="0.385" r="0.385" transform="translate(4.242 1.703)"/><circle cx="0.385" cy="0.385" r="0.385" transform="translate(0 0.547)"/><circle cx="0.385" cy="0.385" r="0.385" transform="translate(24.63 1.865)"/><circle cx="0.385" cy="0.385" r="0.385" transform="translate(20.16 2.636)"/><circle cx="0.385" cy="0.385" r="0.385" transform="translate(15.31 3.021)"/><circle cx="0.385" cy="0.385" r="0.385" transform="translate(10.897 3.021)"/></g><g class="k" transform="translate(555.348 481.053)"><circle cx="0.385" cy="0.385" r="0.385" transform="translate(31.215)"/><circle cx="0.385" cy="0.385" r="0.385" transform="translate(29.259 0.547)"/><circle cx="0.385" cy="0.385" r="0.385" transform="translate(26.843 1.317)"/><circle cx="0.385" cy="0.385" r="0.385" transform="translate(22.51 2.251)"/><circle cx="0.385" cy="0.385" r="0.385" transform="translate(17.942 2.804)"/><circle cx="0.385" cy="0.385" r="0.385" transform="translate(13.212 3.021)"/><circle cx="0.385" cy="0.385" r="0.385" transform="translate(6.421 2.088)"/><circle cx="0.385" cy="0.385" r="0.385" transform="translate(8.671 2.636)"/><circle cx="0.385" cy="0.385" r="0.385" transform="translate(2.218 1.317)"/><circle cx="0.385" cy="0.385" r="0.385" transform="translate(4.242 1.703)"/><circle cx="0.385" cy="0.385" r="0.385" transform="translate(0 0.547)"/><circle cx="0.385" cy="0.385" r="0.385" transform="translate(24.63 1.865)"/><circle cx="0.385" cy="0.385" r="0.385" transform="translate(20.16 2.636)"/><circle cx="0.385" cy="0.385" r="0.385" transform="translate(15.31 3.021)"/><circle cx="0.385" cy="0.385" r="0.385" transform="translate(10.897 3.021)"/></g><g class="k" transform="translate(555.348 482.948)"><circle cx="0.385" cy="0.385" r="0.385" transform="translate(31.215)"/><circle cx="0.385" cy="0.385" r="0.385" transform="translate(29.259 0.547)"/><circle cx="0.385" cy="0.385" r="0.385" transform="translate(26.843 1.317)"/><circle cx="0.385" cy="0.385" r="0.385" transform="translate(22.51 2.251)"/><circle cx="0.385" cy="0.385" r="0.385" transform="translate(17.942 2.804)"/><circle cx="0.385" cy="0.385" r="0.385" transform="translate(13.212 3.021)"/><circle cx="0.385" cy="0.385" r="0.385" transform="translate(6.421 2.088)"/><circle cx="0.385" cy="0.385" r="0.385" transform="translate(8.671 2.636)"/><circle cx="0.385" cy="0.385" r="0.385" transform="translate(2.218 1.317)"/><circle cx="0.385" cy="0.385" r="0.385" transform="translate(4.242 1.703)"/><circle cx="0.385" cy="0.385" r="0.385" transform="translate(0 0.547)"/><circle cx="0.385" cy="0.385" r="0.385" transform="translate(24.63 1.865)"/><circle cx="0.385" cy="0.385" r="0.385" transform="translate(20.16 2.636)"/><circle cx="0.385" cy="0.385" r="0.385" transform="translate(15.31 3.021)"/><circle cx="0.385" cy="0.385" r="0.385" transform="translate(10.897 3.021)"/></g><g class="k" transform="translate(555.348 484.844)"><circle cx="0.385" cy="0.385" r="0.385" transform="translate(31.215)"/><circle cx="0.385" cy="0.385" r="0.385" transform="translate(29.259 0.547)"/><circle cx="0.385" cy="0.385" r="0.385" transform="translate(26.843 1.317)"/><circle cx="0.385" cy="0.385" r="0.385" transform="translate(22.51 2.251)"/><circle cx="0.385" cy="0.385" r="0.385" transform="translate(17.942 2.804)"/><circle cx="0.385" cy="0.385" r="0.385" transform="translate(13.212 3.021)"/><circle cx="0.385" cy="0.385" r="0.385" transform="translate(6.421 2.088)"/><circle cx="0.385" cy="0.385" r="0.385" transform="translate(8.671 2.636)"/><circle cx="0.385" cy="0.385" r="0.385" transform="translate(2.218 1.317)"/><circle cx="0.385" cy="0.385" r="0.385" transform="translate(4.242 1.703)"/><circle cx="0.385" cy="0.385" r="0.385" transform="translate(0 0.547)"/><circle cx="0.385" cy="0.385" r="0.385" transform="translate(24.63 1.865)"/><circle cx="0.385" cy="0.385" r="0.385" transform="translate(20.16 2.636)"/><circle cx="0.385" cy="0.385" r="0.385" transform="translate(15.31 3.021)"/><circle cx="0.385" cy="0.385" r="0.385" transform="translate(10.897 3.021)"/></g><g class="k" transform="translate(555.348 486.74)"><circle cx="0.385" cy="0.385" r="0.385" transform="translate(31.215)"/><circle cx="0.385" cy="0.385" r="0.385" transform="translate(29.259 0.547)"/><circle cx="0.385" cy="0.385" r="0.385" transform="translate(26.843 1.317)"/><circle cx="0.385" cy="0.385" r="0.385" transform="translate(22.51 2.251)"/><circle cx="0.385" cy="0.385" r="0.385" transform="translate(17.942 2.804)"/><circle cx="0.385" cy="0.385" r="0.385" transform="translate(13.212 3.021)"/><circle cx="0.385" cy="0.385" r="0.385" transform="translate(6.421 2.088)"/><circle cx="0.385" cy="0.385" r="0.385" transform="translate(8.671 2.636)"/><circle cx="0.385" cy="0.385" r="0.385" transform="translate(2.218 1.317)"/><circle cx="0.385" cy="0.385" r="0.385" transform="translate(4.242 1.703)"/><circle cx="0.385" cy="0.385" r="0.385" transform="translate(0 0.547)"/><circle cx="0.385" cy="0.385" r="0.385" transform="translate(24.63 1.865)"/><circle cx="0.385" cy="0.385" r="0.385" transform="translate(20.16 2.636)"/><circle cx="0.385" cy="0.385" r="0.385" transform="translate(15.31 3.021)"/><circle cx="0.385" cy="0.385" r="0.385" transform="translate(10.897 3.021)"/></g><g class="k" transform="translate(555.348 488.636)"><circle cx="0.385" cy="0.385" r="0.385" transform="translate(31.215)"/><circle cx="0.385" cy="0.385" r="0.385" transform="translate(29.259 0.547)"/><circle cx="0.385" cy="0.385" r="0.385" transform="translate(26.843 1.317)"/><circle cx="0.385" cy="0.385" r="0.385" transform="translate(22.51 2.251)"/><circle cx="0.385" cy="0.385" r="0.385" transform="translate(17.942 2.804)"/><circle cx="0.385" cy="0.385" r="0.385" transform="translate(13.212 3.021)"/><circle cx="0.385" cy="0.385" r="0.385" transform="translate(6.421 2.088)"/><circle cx="0.385" cy="0.385" r="0.385" transform="translate(8.671 2.636)"/><circle cx="0.385" cy="0.385" r="0.385" transform="translate(2.218 1.317)"/><circle cx="0.385" cy="0.385" r="0.385" transform="translate(4.242 1.703)"/><circle cx="0.385" cy="0.385" r="0.385" transform="translate(0 0.547)"/><circle cx="0.385" cy="0.385" r="0.385" transform="translate(24.63 1.865)"/><circle cx="0.385" cy="0.385" r="0.385" transform="translate(20.16 2.636)"/><circle cx="0.385" cy="0.385" r="0.385" transform="translate(15.31 3.021)"/><circle cx="0.385" cy="0.385" r="0.385" transform="translate(10.897 3.021)"/></g><g class="k" transform="translate(555.348 490.532)"><circle cx="0.385" cy="0.385" r="0.385" transform="translate(31.215)"/><circle cx="0.385" cy="0.385" r="0.385" transform="translate(29.259 0.547)"/><circle cx="0.385" cy="0.385" r="0.385" transform="translate(26.843 1.317)"/><circle cx="0.385" cy="0.385" r="0.385" transform="translate(22.51 2.251)"/><circle cx="0.385" cy="0.385" r="0.385" transform="translate(17.942 2.804)"/><circle cx="0.385" cy="0.385" r="0.385" transform="translate(13.212 3.021)"/><circle cx="0.385" cy="0.385" r="0.385" transform="translate(6.421 2.088)"/><circle cx="0.385" cy="0.385" r="0.385" transform="translate(8.671 2.636)"/><circle cx="0.385" cy="0.385" r="0.385" transform="translate(2.218 1.317)"/><circle cx="0.385" cy="0.385" r="0.385" transform="translate(4.242 1.703)"/><circle cx="0.385" cy="0.385" r="0.385" transform="translate(0 0.547)"/><circle cx="0.385" cy="0.385" r="0.385" transform="translate(24.63 1.865)"/><circle cx="0.385" cy="0.385" r="0.385" transform="translate(20.16 2.636)"/><circle cx="0.385" cy="0.385" r="0.385" transform="translate(15.31 3.021)"/><circle cx="0.385" cy="0.385" r="0.385" transform="translate(10.897 3.021)"/></g><g class="k" transform="translate(555.348 492.428)"><circle cx="0.385" cy="0.385" r="0.385" transform="translate(31.215)"/><circle cx="0.385" cy="0.385" r="0.385" transform="translate(29.259 0.547)"/><circle cx="0.385" cy="0.385" r="0.385" transform="translate(26.843 1.317)"/><circle cx="0.385" cy="0.385" r="0.385" transform="translate(22.51 2.251)"/><circle cx="0.385" cy="0.385" r="0.385" transform="translate(17.942 2.804)"/><circle cx="0.385" cy="0.385" r="0.385" transform="translate(13.212 3.021)"/><circle cx="0.385" cy="0.385" r="0.385" transform="translate(6.421 2.088)"/><circle cx="0.385" cy="0.385" r="0.385" transform="translate(8.671 2.636)"/><circle cx="0.385" cy="0.385" r="0.385" transform="translate(2.218 1.317)"/><circle cx="0.385" cy="0.385" r="0.385" transform="translate(4.242 1.703)"/><circle cx="0.385" cy="0.385" r="0.385" transform="translate(0 0.547)"/><circle cx="0.385" cy="0.385" r="0.385" transform="translate(24.63 1.865)"/><circle cx="0.385" cy="0.385" r="0.385" transform="translate(20.16 2.636)"/><circle cx="0.385" cy="0.385" r="0.385" transform="translate(15.31 3.021)"/><circle cx="0.385" cy="0.385" r="0.385" transform="translate(10.897 3.021)"/></g><g class="k" transform="translate(555.348 494.324)"><circle cx="0.385" cy="0.385" r="0.385" transform="translate(31.215)"/><circle cx="0.385" cy="0.385" r="0.385" transform="translate(29.259 0.547)"/><circle cx="0.385" cy="0.385" r="0.385" transform="translate(26.843 1.317)"/><circle cx="0.385" cy="0.385" r="0.385" transform="translate(22.51 2.251)"/><circle cx="0.385" cy="0.385" r="0.385" transform="translate(17.942 2.804)"/><circle cx="0.385" cy="0.385" r="0.385" transform="translate(13.212 3.021)"/><circle cx="0.385" cy="0.385" r="0.385" transform="translate(6.421 2.088)"/><circle cx="0.385" cy="0.385" r="0.385" transform="translate(8.671 2.636)"/><circle cx="0.385" cy="0.385" r="0.385" transform="translate(2.218 1.317)"/><circle cx="0.385" cy="0.385" r="0.385" transform="translate(4.242 1.703)"/><circle cx="0.385" cy="0.385" r="0.385" transform="translate(0 0.547)"/><circle cx="0.385" cy="0.385" r="0.385" transform="translate(24.63 1.865)"/><circle cx="0.385" cy="0.385" r="0.385" transform="translate(20.16 2.636)"/><circle cx="0.385" cy="0.385" r="0.385" transform="translate(15.31 3.021)"/><circle cx="0.385" cy="0.385" r="0.385" transform="translate(10.897 3.021)"/></g><g class="k" transform="translate(555.348 496.219)"><circle cx="0.385" cy="0.385" r="0.385" transform="translate(31.215)"/><circle cx="0.385" cy="0.385" r="0.385" transform="translate(29.259 0.547)"/><circle cx="0.385" cy="0.385" r="0.385" transform="translate(26.843 1.317)"/><circle cx="0.385" cy="0.385" r="0.385" transform="translate(22.51 2.251)"/><circle cx="0.385" cy="0.385" r="0.385" transform="translate(17.942 2.804)"/><circle cx="0.385" cy="0.385" r="0.385" transform="translate(13.212 3.021)"/><circle cx="0.385" cy="0.385" r="0.385" transform="translate(6.421 2.088)"/><circle cx="0.385" cy="0.385" r="0.385" transform="translate(8.671 2.636)"/><circle cx="0.385" cy="0.385" r="0.385" transform="translate(2.218 1.317)"/><circle cx="0.385" cy="0.385" r="0.385" transform="translate(4.242 1.703)"/><circle cx="0.385" cy="0.385" r="0.385" transform="translate(0 0.547)"/><circle cx="0.385" cy="0.385" r="0.385" transform="translate(24.63 1.865)"/><circle cx="0.385" cy="0.385" r="0.385" transform="translate(20.16 2.636)"/><circle cx="0.385" cy="0.385" r="0.385" transform="translate(15.31 3.021)"/><circle cx="0.385" cy="0.385" r="0.385" transform="translate(10.897 3.021)"/></g><g class="k" transform="translate(555.348 498.115)"><circle cx="0.385" cy="0.385" r="0.385" transform="translate(31.215)"/><circle cx="0.385" cy="0.385" r="0.385" transform="translate(29.259 0.547)"/><circle cx="0.385" cy="0.385" r="0.385" transform="translate(26.843 1.317)"/><circle cx="0.385" cy="0.385" r="0.385" transform="translate(22.51 2.251)"/><circle cx="0.385" cy="0.385" r="0.385" transform="translate(17.942 2.804)"/><circle cx="0.385" cy="0.385" r="0.385" transform="translate(13.212 3.021)"/><circle cx="0.385" cy="0.385" r="0.385" transform="translate(6.421 2.088)"/><circle cx="0.385" cy="0.385" r="0.385" transform="translate(8.671 2.636)"/><circle cx="0.385" cy="0.385" r="0.385" transform="translate(2.218 1.317)"/><circle cx="0.385" cy="0.385" r="0.385" transform="translate(4.242 1.703)"/><circle cx="0.385" cy="0.385" r="0.385" transform="translate(0 0.547)"/><circle cx="0.385" cy="0.385" r="0.385" transform="translate(24.63 1.865)"/><circle cx="0.385" cy="0.385" r="0.385" transform="translate(20.16 2.636)"/><circle cx="0.385" cy="0.385" r="0.385" transform="translate(15.31 3.021)"/><circle cx="0.385" cy="0.385" r="0.385" transform="translate(10.897 3.021)"/></g><g class="k" transform="translate(555.348 500.011)"><circle cx="0.385" cy="0.385" r="0.385" transform="translate(31.215)"/><circle cx="0.385" cy="0.385" r="0.385" transform="translate(29.259 0.547)"/><circle cx="0.385" cy="0.385" r="0.385" transform="translate(26.843 1.317)"/><circle cx="0.385" cy="0.385" r="0.385" transform="translate(22.51 2.251)"/><circle cx="0.385" cy="0.385" r="0.385" transform="translate(17.942 2.804)"/><circle cx="0.385" cy="0.385" r="0.385" transform="translate(13.212 3.021)"/><circle cx="0.385" cy="0.385" r="0.385" transform="translate(6.421 2.088)"/><circle cx="0.385" cy="0.385" r="0.385" transform="translate(8.671 2.636)"/><circle cx="0.385" cy="0.385" r="0.385" transform="translate(2.218 1.317)"/><circle cx="0.385" cy="0.385" r="0.385" transform="translate(4.242 1.703)"/><circle cx="0.385" cy="0.385" r="0.385" transform="translate(0 0.547)"/><circle cx="0.385" cy="0.385" r="0.385" transform="translate(24.63 1.865)"/><circle cx="0.385" cy="0.385" r="0.385" transform="translate(20.16 2.636)"/><circle cx="0.385" cy="0.385" r="0.385" transform="translate(15.31 3.021)"/><circle cx="0.385" cy="0.385" r="0.385" transform="translate(10.897 3.021)"/></g><g class="k" transform="translate(555.348 501.907)"><circle cx="0.385" cy="0.385" r="0.385" transform="translate(31.215)"/><circle cx="0.385" cy="0.385" r="0.385" transform="translate(29.259 0.547)"/><circle cx="0.385" cy="0.385" r="0.385" transform="translate(26.843 1.317)"/><circle cx="0.385" cy="0.385" r="0.385" transform="translate(22.51 2.251)"/><circle cx="0.385" cy="0.385" r="0.385" transform="translate(17.942 2.804)"/><circle cx="0.385" cy="0.385" r="0.385" transform="translate(13.212 3.021)"/><circle cx="0.385" cy="0.385" r="0.385" transform="translate(6.421 2.088)"/><circle cx="0.385" cy="0.385" r="0.385" transform="translate(8.671 2.636)"/><circle cx="0.385" cy="0.385" r="0.385" transform="translate(2.218 1.317)"/><circle cx="0.385" cy="0.385" r="0.385" transform="translate(4.242 1.703)"/><circle cx="0.385" cy="0.385" r="0.385" transform="translate(0 0.547)"/><circle cx="0.385" cy="0.385" r="0.385" transform="translate(24.63 1.865)"/><circle cx="0.385" cy="0.385" r="0.385" transform="translate(20.16 2.636)"/><circle cx="0.385" cy="0.385" r="0.385" transform="translate(15.31 3.021)"/><circle cx="0.385" cy="0.385" r="0.385" transform="translate(10.897 3.021)"/></g></svg>