<svg xmlns="http://www.w3.org/2000/svg" xmlns:xlink="http://www.w3.org/1999/xlink" width="758.738" height="490.707" viewBox="0 0 758.738 490.707"><defs><style>.a{fill:#005c97;}.b{fill:#444053;}.c{fill:#fff;}.d,.l{fill:#1b065e;}.d,.k{opacity:0.2;}.e{fill:url(#a);}.f{fill:#65617d;}.g,.s{opacity:0.1;}.h{fill:#fbbebe;}.i{fill:#3f3d56;}.j{fill:#e7effd;}.m{fill:url(#b);}.n{opacity:0.05;}.o{fill:#ee8e9e;}.p{fill:#e3e8f4;}.q{fill:#e6e8ec;}.r{fill:#565387;}.t{fill:#f1f1f1;}.u{fill:#2f2e41;}.v{fill:url(#c);}.w{fill:#be6f72;}.x{fill:#f3f5f9;}.y{fill:#67647e;}.z{fill:none;}</style><linearGradient id="a" x1="0.5" y1="1" x2="0.5" gradientUnits="objectBoundingBox"><stop offset="0" stop-color="gray" stop-opacity="0.251"/><stop offset="0.535" stop-color="gray" stop-opacity="0.122"/><stop offset="1" stop-color="gray" stop-opacity="0.102"/></linearGradient><linearGradient id="b" x1="0.5" y1="1" x2="0.5" y2="0" xlink:href="#a"/><linearGradient id="c" x1="-4.618" y1="1" x2="-4.618" y2="0" xlink:href="#a"/></defs><g transform="translate(-21.903 -77.555)"><path class="a" d="M673.128,726.118s-9.081-5.992-18.082-1.73c0,0,2.773,5.341,14.165,4.832Z" transform="translate(-195.172 -239.196)"/><path class="a" d="M678.9,727.7s2.762,10.523-4.162,17.682c0,0-4.169-4.34-.033-14.966Z" transform="translate(-199.877 -240.462)"/><path class="a" d="M688.976,711.705s-.67-8.949-20.877-5.98c0,0-.1,5.774,7,8.51S685.438,714.664,688.976,711.705Z" transform="translate(-198.665 -234.565)"/><path class="a" d="M695.952,713.95s8.543,2.747.926,21.7c0,0-5.635-1.26-6.634-8.8S692.246,716.7,695.952,713.95Z" transform="translate(-204.469 -236.87)"/><path class="a" d="M706.62,692.061s1.156-14.726-19.493-13.214c0,0-1.467,13.328,15.848,16.755Z" transform="translate(-203.724 -226.925)"/><path class="a" d="M723.694,669.8s-2.832-16.686-23.473-11.713c0,0-.077,14.428,20.1,15.691Z" transform="translate(-207.241 -221.171)"/><path class="a" d="M736.582,646.66s-4.739-16.291-25.191-11.389c0,0,4.866,14.619,23.834,14.391Z" transform="translate(-210.227 -215.081)"/><path class="a" d="M749.692,623.79s-4.634-16.872-24.374-11.806c0,0,6.588,16.026,23.076,14.677Z" transform="translate(-213.937 -208.866)"/><path class="a" d="M758.807,600.806s-3.563-20.632-21.976-16.066c0,0,5.349,18.767,20.619,19.068Z" transform="translate(-216.995 -201.699)"/><path class="a" d="M766.23,575.043s-4.274-20.8-22.886-14.749c0,0,7.307,19.653,21.588,17.62Z" transform="translate(-218.736 -195.058)"/><path class="a" d="M771.627,549.225s-6.789-20.794-21.191-20.231c0,0,6.943,21.965,19.988,24.4Z" transform="translate(-220.619 -187.028)"/><path class="a" d="M775.41,524.5s-7.389-25.035-19.109-23.1c0,0,5.115,19.133,18.693,27Z" transform="translate(-222.172 -179.655)"/><path class="a" d="M777.358,496.757s-6.924-20.86-18.5-21.69c0,0,4.712,20.523,18.24,27.111Z" transform="translate(-222.852 -172.659)"/><path class="a" d="M780.035,470.547s-8.637-20.883-16.285-21.353c0,0,3.752,20.561,15.521,24.781Z" transform="translate(-224.145 -165.748)"/><path class="a" d="M782.512,444.894s-5.31-22.68-12.948-24.561c0,0,1.045,18.551,12.181,26.258Z" transform="translate(-225.678 -158.056)"/><path class="a" d="M786.816,414.127s-5.585-18.074-11.768-20.831c0,0,1.222,21.311,10.335,25.253Z" transform="translate(-227.134 -150.84)"/><path class="a" d="M792.568,389.148l1.127-31.874s-11.542,24.055-1.977,37.5Z" transform="translate(-230.537 -141.27)"/><path class="a" d="M804.7,348.858s8.323-23.276,10.323-24.573c0,0-16.326,15.1-14.733,34.526Z" transform="translate(-233.848 -132.458)"/><path class="a" d="M713.1,696.606s14.647-1.917,14.206,18.782c0,0-13.234,2.155-17.553-14.959Z" transform="translate(-209.755 -232.329)"/><path class="a" d="M731.744,673.516s16.924-.056,15.545,21.131c0,0-14.2,2.538-18.89-17.131Z" transform="translate(-214.733 -225.559)"/><path class="a" d="M745.229,652.382s15.361-7.2,25.191,11.389c0,0-14.19,6-26.548-8.387Z" transform="translate(-218.894 -219.514)"/><path class="a" d="M758.311,627.939s15.728-7.666,24.964,10.5c0,0-16.384,5.641-26.262-7.629Z" transform="translate(-222.397 -212.931)"/><path class="a" d="M766.054,605.067s15.14-14.462,27.222.164c0,0-15.466,11.9-27.918,3.057Z" transform="translate(-224.631 -205.558)"/><path class="a" d="M772.964,577.721s15.233-14.789,27.218.681c0,0-17.1,12.137-27.76,2.423Z" transform="translate(-226.514 -198.271)"/><path class="a" d="M777.013,550.3s11.734-18.46,25.547-14.343c0,0-12.174,19.556-25.417,18.684Z" transform="translate(-227.727 -188.704)"/><path class="a" d="M781.585,525.585s11.834-23.266,23.005-19.226c0,0-8.521,17.878-23.307,23.136Z" transform="translate(-228.854 -180.865)"/><path class="a" d="M782.379,497.068s12.156-18.312,23.541-16.076c0,0-9.933,18.567-24.716,21.374Z" transform="translate(-228.84 -174.166)"/><path class="a" d="M784.049,470.215s9.419-20.542,17.078-20.724c0,0-4.525,20.4-16.445,24.178Z" transform="translate(-229.56 -165.825)"/><path class="a" d="M786.579,445.6s10.469-20.807,18.336-20.849c0,0-5.357,17.791-17.987,22.678Z" transform="translate(-230.241 -159.221)"/><path class="a" d="M788.709,416.442s7.833-17.219,14.316-19.17c0,0-3.916,20.984-13.455,23.737Z" transform="translate(-230.789 -151.896)"/><path class="a" d="M794.567,390.177l17.5-26.663s-4.484,26.3-20.058,31.743Z" transform="translate(-231.698 -142.917)"/><path class="a" d="M808.733,354.68s20.343-14.044,21.079-16.311c0,0-10.377,19.668-29.559,23.139Z" transform="translate(-233.945 -136.183)"/><path class="a" d="M813.178,343.973s23.356-22.453,29.319-22.43c0,0-19.261.881-29.879,21.233Z" transform="translate(-237.244 -131.694)"/><path class="b" d="M789.015,407.275l.852.109c4.388-34.355,10.787-54.658,18.017-57.17l-.282-.812C799.939,352.064,793.511,372.076,789.015,407.275Z" transform="translate(-230.893 -139.235)"/><path class="b" d="M780.282,508.969l1.285.108c.27-3.208.478-6.492.619-9.76,1.225-28.436,3.126-54.544,5.626-74.12l-.745-.92c-2.505,19.611-4.943,46.513-6.169,74.985C780.758,502.513,780.551,505.779,780.282,508.969Z" transform="translate(-228.509 -159.352)"/><path class="b" d="M646.813,693.569c.226-.1,22.856-10.2,46.345-34.311a186.437,186.437,0,0,0,33.878-47.995c10.859-22.111,17.478-49.29,19.7-75.689l-1.34.63C740.41,595.458,713.432,635.97,691.98,658,668.72,681.9,646.344,691.9,646.121,692Z" transform="translate(-193.169 -190.293)"/><path class="c" d="M511.187,358.83V637.966c0,8.3-8.007,15.052-17.894,15.052H114.568c-9.887,0-17.894-6.75-17.894-15.052V358.83c0-8.317,8.007-16.793,17.894-16.793H493.293C503.18,342.038,511.187,350.514,511.187,358.83Z" transform="translate(-45.932 -139.757)"/><path class="d" d="M511.187,359.932v43.881H96.675V359.932a17.888,17.888,0,0,1,17.894-17.894H493.293a17.888,17.888,0,0,1,17.894,17.894Z" transform="translate(-45.932 -137.28)"/><circle class="c" cx="11.965" cy="11.965" r="11.965" transform="translate(61.51 223.652)"/><circle class="c" cx="11.965" cy="11.965" r="11.965" transform="translate(96.322 223.652)"/><circle class="c" cx="11.965" cy="11.965" r="11.965" transform="translate(131.135 223.652)"/><path class="e" d="M187.051,715.071s-11.57,2.8-16.149,8.033a15.574,15.574,0,0,1-6.159,3.913V719.1c2.645-4.444,5.315-9.387,5.315-9.387.121-.243,1.085-3.651,1.085-3.651,2.169-1.7-.121-7.668-.121-7.668s1.326-3.773.6-4.5-.121-2.678.482-3.53a4.409,4.409,0,0,0,.482-2.678c0-.73-.964-1.826-2.531-2.434s.121-1.582,1.085-1.826,1.205-2.556.121-3.773.121-1.947.723-3.286-1.928-1.1-1.928-1.1V662.98h0s-.723-4.017-1.446-11.078-3.5-7.788-3.5-7.788a31.548,31.548,0,0,1-4.339-1.705,29.687,29.687,0,0,0-4.581-1.7,23.476,23.476,0,0,1-5.9-.818,18.109,18.109,0,0,0-4.031-.873c-.148-.069-.289-.142-.434-.215a15.778,15.778,0,0,1-7.314-7.748c-.074-.167-.142-.332-.209-.5A17.2,17.2,0,0,0,140.231,628l.012-.021c0,.124.005.249.005.373,0,.052,0,.1,0,.156,0,.3,0,.6-.012.9l0,0v.026c1.924-3.4,7.5-4.172,8.03-8.048a4.068,4.068,0,0,0,.035-.531v-.024c0-.131-.006-.261-.016-.392-.072-1.082-.442-2.16-.515-3.254a6.339,6.339,0,0,1,.015-.939l0,.018c.249-3.011,2.52-5.629,3.56-8.554a10.478,10.478,0,0,0,.543-2.434l0-.022q.038-.377.051-.755c0-.063,0-.125,0-.188q0-.263,0-.526a11.389,11.389,0,0,0-3.762-8.225c-1.921-1.67-4.461-2.719-5.791-4.9-.62-1.017-.926-2.212-1.6-3.192-1.274-1.846-3.617-2.6-5.829-2.865s-4.493-.177-6.611-.874c-1.5-.493-2.864-1.365-4.381-1.8a8.385,8.385,0,0,0-9.006,3.247c-.8,1.167-1.323,2.564-2.4,3.474-2.208,1.866-5.955,1.056-7.89,3.209a5.716,5.716,0,0,0-1.056,4.442l0,.058q.016.192.035.383c.006.06.012.119.018.178s.014.127.022.191c.068.59.154,1.178.228,1.744.011.086.02.173.03.26.021.176.042.352.059.528.013.129.023.257.034.386q.02.239.035.479c.008.125.016.25.023.376a25.978,25.978,0,0,1-2.764,12.981c-1.823,3.58-4.535,6.875-5.007,10.872a11.525,11.525,0,0,0-.052,1.972c0,.077.006.155.011.232.008.118.021.237.033.355.013.136.025.272.042.407.01.077.021.155.032.232.025.18.051.36.081.539.007.038.014.077.021.115.479,2.724,1.563,5.413,2.141,8.146a22.57,22.57,0,0,1,.431,3.078v.021q.034.493.047.987c.011.446.005.892-.009,1.338a20.993,20.993,0,0,1-2.809.863c-1.688.245-6.631,4.626-6.269,5.722s-2.213,8.774-2.285,9l0,0h0l-4.066,27.994s-2.147,2.069-1.476,3.408-.13,3.651-.13,3.651-3.627,1.582-2.822,2.556.438,2.8-.117,4.017-1.458,3.408,0,3.773.251,5.112.251,5.112,5.087-.584,4.713,2.434c-.119.964,3.558,3.606,5.093,4.664v14.541a44.507,44.507,0,0,1-6.026-2.044c-3.133-1.461-20.729-4.26-24.586,4.138s5.3,19.6,7.593,20.813a15.676,15.676,0,0,1,2.651,2.556c.482.852,3.254,1.1,3.254,1.1a20.446,20.446,0,0,1,3.616,2.069c.533.539,4.938,1.938,10.163,3.026h0s-4.218,9.712,2.663,8.91,10.234-4.188,15.086-4.188c1.939,0,5.54-.27,9.166-.595a24.181,24.181,0,0,1,2.694.636,34.469,34.469,0,0,0,6.267,1.339s5.423,2.921,8.316,2.191a1.9,1.9,0,0,0,.657-.351l.066-.014a3.864,3.864,0,0,0,1.742-1.493c3.62.37,7.741.9,9.293,1.5,3,1.158,24.438-.445,24.438-.445s13.851.272,17.821,1.473,2.558-12.253-4.764-13.768a29.861,29.861,0,0,0-5.958-.527,13.067,13.067,0,0,0,1.384-1.682c2.639-.24,4.372-.388,4.372-.388s6.99-3.408,10.967-5.477a25.012,25.012,0,0,0,6.749-5.355s3.5-2.191,4.941-3.043,2.169-3.651,2.169-3.651C214.89,711.785,187.051,715.071,187.051,715.071Zm-31.384-31.147c0-.41,0-.82,0-1.227.385.278.329.713,0,1.227Zm.115,8.608c.291.384.575.734.779,1,.779,1-.631,1.485-.529,3.16.023.376.055.9.091,1.476h0c-.148-2.4-.269-4.39-.341-5.631Z" transform="translate(-35.74 -202.321)"/><path class="f" d="M93.047,782.069a71.2,71.2,0,0,1-9.882-3.013c-3.133-1.446-20.729-4.218-24.586,4.1s5.3,19.4,7.593,20.608,24.586-15.306,24.586-15.306l17.6,7.412,3.374-11.509Z" transform="translate(-35.74 -253.445)"/><rect class="f" width="76.56" height="26.634" rx="13.317" transform="translate(64.748 530.914)"/><path class="g" d="M192.189,800.125a13.319,13.319,0,0,1-13.316,13.32H128.946a13.318,13.318,0,0,1,0-26.636h49.927a13.317,13.317,0,0,1,13.316,13.315Z" transform="translate(-50.882 -255.895)"/><path class="h" d="M144.881,805.885a63.65,63.65,0,0,1-13.939,1.883c-6.264-.088-35.57,12.086-35.57,12.086s-4.218,9.616,2.663,8.822,10.234-4.146,15.086-4.146,20.115-1.676,20.115-1.676L147.924,812Z" transform="translate(-45.258 -260.876)"/><path class="h" d="M156.557,670.915l-13.771,2.715-.893.177s-10.886-2.892-11.248-3.135S120.4,657.115,120.4,657.115a19.937,19.937,0,0,0,8.923-2.209c.141-.08.278-.166.416-.253a8.687,8.687,0,0,0,3.724-4.548c.069-.2.13-.4.188-.618a12.219,12.219,0,0,0-.116-5.929c-1.331-5.619,1.754-7.166,5.864-7.032,5.937.2,14.021,3.9,14.021,3.9a16.46,16.46,0,0,0,1.269,5.5c.065.163.137.325.21.492a15.684,15.684,0,0,0,7.314,7.672c.145.072.286.145.434.213.437.21.9.409,1.381.589C174.515,658.865,156.557,670.915,156.557,670.915Z" transform="translate(-52.128 -215.788)"/><path class="g" d="M159.432,646.413A17.358,17.358,0,0,1,138,650.1a11.667,11.667,0,0,0,.072-6.548c-3.254-13.739,19.885-3.131,19.885-3.131a16.675,16.675,0,0,0,1.479,5.987Z" transform="translate(-56.659 -215.661)"/><path class="h" d="M160.709,627.258a17.263,17.263,0,0,1-2.628,9.183,17.062,17.062,0,0,1-1.927,2.531,17.272,17.272,0,0,1-11.75,5.608c-.347.022-.7.033-1.049.033a17.355,17.355,0,1,1,17.355-17.355Z" transform="translate(-53.59 -208.671)"/><path class="g" d="M156.557,677.124l-13.771,2.715-.893.177s-10.886-2.892-11.248-3.135S120.4,663.324,120.4,663.324a19.937,19.937,0,0,0,8.923-2.209c.141-.08.278-.166.416-.253A16.16,16.16,0,0,0,141.488,666a16.708,16.708,0,0,0,2.451-.2c1.938-.3,3.89-.488,5.839-.691,3.731-.39,9.44-1.522,12.437-4.819.145.072.286.145.434.213.437.21.9.409,1.381.589C174.515,665.073,156.557,677.124,156.557,677.124Z" transform="translate(-52.128 -222.024)"/><path class="a" d="M166.354,712.389c.119,2.654,2.05,32.54,2.05,32.54H108.264l.409-18.815L109,711.062l.108-4.939.481-17.112-1.739-1.533-9.469-8.352,0,0c.072-.224,2.643-7.842,2.285-8.912s4.581-5.423,6.269-5.666a21.29,21.29,0,0,0,2.827-.861c2.842-1,6.635-2.466,7.054-2.238.589.318,6.5-.231,6.754-.257h.007a16.126,16.126,0,0,0,12.155,5.608,16.717,16.717,0,0,0,2.451-.2c1.938-.3,3.89-.488,5.839-.691,3.919-.409,10.015-1.638,12.871-5.329a18.271,18.271,0,0,1,4.031.864,23.7,23.7,0,0,0,5.9.81,29.89,29.89,0,0,1,4.581,1.685,31.732,31.732,0,0,0,4.339,1.688s2.773.723,3.5,7.712,1.446,10.969,1.446,10.969l-14.343,12.412S166.235,709.739,166.354,712.389Z" transform="translate(-46.378 -222.935)"/><path class="h" d="M69.615,692.653l2.107,3.375,7.9,2.783,5.423-9.894-5-3.374-8.016-3.133-4.58,2.651Z" transform="translate(-17.611 -182.348)"/><path class="f" d="M189.179,776.435s11.208-.844,15.788-6.026,16.149-7.954,16.149-7.954,27.84-3.254,16.872,21.332c0,0-.723,2.772-2.169,3.616s-4.941,3.013-4.941,3.013L188.1,786.679Z" transform="translate(-69.806 -249.499)"/><path class="g" d="M203.408,801.317a13.276,13.276,0,0,1-2.216,7.361c-7.195.64-23.132,2.137-26.466,3.066-4.1,1.135-12.387-.842-13.294-1.067l-.083-.018s-1.6-4.848-2.361-7.951c-.343-1.41-.517-2.459-.293-2.535.723-.242,7.354-2.05,7.231-1.027s19.885-7.773,19.885-7.773l.615,7.714C188.465,801.428,203.408,797.969,203.408,801.317Z" transform="translate(-62.101 -257.087)"/><path class="f" d="M224.272,795l-.844,3.133a24.958,24.958,0,0,1-6.749,5.3c-3.977,2.049-10.967,5.423-10.967,5.423s-25.67,2.169-30.009,3.375-13.377-1.085-13.377-1.085-3.374-10.244-2.651-10.485,7.352-2.049,7.231-1.024,19.885-7.773,19.885-7.773Z" transform="translate(-62.356 -257.216)"/><path class="h" d="M150.412,828.566s12.616.882,15.615,2.029,24.438-.441,24.438-.441,13.851.27,17.821,1.458,2.558-12.133-4.764-13.633-17.644.706-17.644.706-11.645-1.5-13.057-1.676-10.717.086-10.717.086Z" transform="translate(-59.964 -263.765)"/><path class="g" d="M83.31,787.658s16.674,1.5,21.262,4.235Z" transform="translate(-42.442 -256.117)"/><path class="g" d="M217.659,772.853s-13.057,3.176-18.174,7.852Z" transform="translate(-72.778 -252.251)"/><path class="g" d="M84.623,782.524c.265.088,7.675,1.059,7.5,1.765S84.623,782.524,84.623,782.524Z" transform="translate(-42.785 -254.776)"/><path class="g" d="M68.86,805.047l.964,3.616a15.617,15.617,0,0,1,2.651,2.531c.482.844,3.254,1.085,3.254,1.085a20.5,20.5,0,0,1,3.616,2.049c.723.723,8.557,3.013,15.908,3.977s20.97,2.772,23.862,3.736a34.779,34.779,0,0,0,6.267,1.326s5.423,2.892,8.316,2.169,7.834-13.859,7.834-13.859-19.042-4.459-19.644-5.905-18.921-8.191-18.921-8.191l-10.847.257Z" transform="translate(-38.669 -258.708)"/><path class="f" d="M67.881,803.363l.964,3.616a15.612,15.612,0,0,1,2.651,2.531c.482.844,3.254,1.085,3.254,1.085a20.5,20.5,0,0,1,3.616,2.049c.723.723,8.557,3.013,15.908,3.977s20.97,2.772,23.862,3.736a34.763,34.763,0,0,0,6.267,1.326s5.423,2.892,8.316,2.169,7.834-13.86,7.834-13.86-19.042-4.459-19.644-5.905-27.478-12.413-27.478-12.413l-8.436-1.928Z" transform="translate(-38.414 -256.662)"/><path class="a" d="M97.167,684.05l-2.107,1.205-4.066,27.719s-2.147,2.049-1.476,3.374-.13,3.616-.13,3.616-3.627,1.567-2.822,2.531.438,2.772-.117,3.977-1.458,3.375,0,3.736.251,5.062.251,5.062,5.087-.578,4.713,2.41c-.151,1.205,5.754,5.062,5.754,5.062s-6.709-12.172,8.32-10.485l1.292-6.863s1.292-3.863,0-5.069.29-6.93.29-6.93l.284-24.887Z" transform="translate(-43.056 -229.063)"/><path class="g" d="M96.8,732.5c.265.441,8.381,1.341,8.91,2.788S96.8,732.5,96.8,732.5Z" transform="translate(-45.965 -241.713)"/><path class="g" d="M93.339,740.785s1.1-3.441,3.726-2.823S93.339,740.785,93.339,740.785Z" transform="translate(-45.061 -243.121)"/><path class="g" d="M91.429,747.111s1.941-4.588,4.588-4.235S91.429,747.111,91.429,747.111Z" transform="translate(-44.563 -244.419)"/><path class="h" d="M202.622,746.476l-.844,5.062s-8.677,15.908-10.244,16.149-10.123-10.605-10.123-10.605l-2.29-10.606,9.015-1.709,4-3.956S202.26,741.776,202.622,746.476Z" transform="translate(-67.461 -243.885)"/><path class="a" d="M200.869,688.854l3.254,2.29v12.172s2.531-.241,1.928,1.085-1.808,2.049-.723,3.254.844,3.495-.121,3.736-2.651,1.205-1.085,1.808,2.531,1.687,2.531,2.41a4.329,4.329,0,0,1-.482,2.651c-.6.844-1.205,2.772-.482,3.495s-.6,4.459-.6,4.459,2.29,5.905.121,7.593c0,0-.964,3.375-1.085,3.616,0,0,1.519-11.733-13.642-6.77,0,0-.282-4.471-.384-6.13s1.308-2.14.529-3.129-2.728-3.254-1.808-3.857.6-1.687.241-2.531-1.638-.844-.483-1.868,1.837-1.986,1.16-2.469-1.854-2.053-.918-2.773.964-11.208.964-11.208S193.638,681.261,200.869,688.854Z" transform="translate(-69.806 -229.769)"/><path class="g" d="M203.306,717.463s4.634-1.257,4.787,0S203.306,717.463,203.306,717.463Z" transform="translate(-73.776 -237.642)"/><path class="g" d="M196.262,722.055s6.352-1.588,7.146-.353S196.262,722.055,196.262,722.055Z" transform="translate(-71.936 -238.772)"/><path class="g" d="M194.351,726.728s9.528-1.323,10.146.618S194.351,726.728,194.351,726.728Z" transform="translate(-71.438 -240.092)"/><path class="g" d="M196.262,732.5c.353.088,9.175.706,9.352,2.382S196.262,732.5,196.262,732.5Z" transform="translate(-71.936 -241.713)"/><rect class="i" width="75.552" height="42.913" rx="10.467" transform="translate(53.45 496.215)"/><circle class="j" cx="2.787" cy="2.787" r="2.787" transform="translate(88.44 514.885)"/><path class="g" d="M117.466,704.252s7.241,5.535,12.84,1.317C130.306,705.569,120.84,706.43,117.466,704.252Z" transform="translate(-51.361 -234.338)"/><path class="g" d="M167.093,706.265s7.241,5.535,12.84,1.317C179.933,707.582,170.468,708.443,167.093,706.265Z" transform="translate(-64.32 -234.864)"/><path class="g" d="M155.257,627.257a17.263,17.263,0,0,1-2.628,9.183,26.445,26.445,0,0,0-3.912-13.7c-2.408-3.7-9.726-10.181-14.759-8.377a3.573,3.573,0,0,0-2.2,2.365c-.5,1.895.962,2.683,1.9,4.19a12.831,12.831,0,0,1,1.754,8.659,12.2,12.2,0,0,1-.253,1.2c-.792,2.972-2.607,6.374-.734,8.815,1.305,1.7,4.111,2.285,4.49,4.393a2.57,2.57,0,0,1,.036.6c-.087,1.417-1.3,2.668-1.826,4.064a6.671,6.671,0,0,0,.372,4.921c.839,2.151,2.173,4.328,2.495,6.6a13.041,13.041,0,0,1-1.2,6.519,29.214,29.214,0,0,0-1.989,6.136c-.582,4.006.886,8.638-1.634,11.8a1.762,1.762,0,0,1-1.1.745c-1.616.17-1.341-2.733-2.639-3.71a11.357,11.357,0,0,1-.343,5.026c-.615,1.58-2.205,2.918-3.879,2.654q-.287-1.893-.575-3.789a10.928,10.928,0,0,1-4.013,2.513,29.251,29.251,0,0,1,4.187-11.342c-4.245,2.043-6.718,6.468-8.927,10.626-1.378,2.6-2.8,5.441-2.321,8.345.2,1.182.705,2.307.817,3.5a2.911,2.911,0,0,1-1.432,3.037,2.588,2.588,0,0,1-2.795-.868c-.04-.047-.08-.094-.119-.145a2.835,2.835,0,0,1-.192-.271,4.208,4.208,0,0,1-.322-.571,11.077,11.077,0,0,1-.68-2.216l-.076-.326c-1.121-4.928-2.133-10.008-1.312-14.99a28.16,28.16,0,0,0,.792-5.517,10.2,10.2,0,0,0-.629-3.077c-.983-2.755-2.878-5.289-3.959-8.066a.441.441,0,0,1-.025-.061c-.568-1.471-.846-3.308.2-4.487a9.135,9.135,0,0,1,2.014-1.363c2.1-1.367,3.037-3.959,3.42-6.432a21.676,21.676,0,0,0,.264-3.384c2.842-1,6.634-2.466,7.054-2.238.589.318,6.5-.231,6.754-.257a8.837,8.837,0,0,0,4.14-4.8c.069-.2.13-.4.188-.618a17.357,17.357,0,1,1,25.594-15.279Z" transform="translate(-48.138 -209.701)"/><path class="i" d="M135.158,623.206c-.793,2.973-2.606,6.375-.732,8.815,1.306,1.7,4.111,2.284,4.488,4.395.3,1.67-1.188,3.073-1.788,4.66-1.432,3.786,2.3,7.509,2.866,11.517.615,4.348-2.553,8.311-3.184,12.656-.582,4.005.886,8.636-1.635,11.8a1.75,1.75,0,0,1-1.1.746c-1.616.172-1.342-2.731-2.64-3.708a11.3,11.3,0,0,1-.342,5.025c-.613,1.58-2.2,2.917-3.878,2.653l-.575-3.79a10.969,10.969,0,0,1-4.014,2.514,29.269,29.269,0,0,1,4.187-11.341c-4.243,2.044-6.717,6.467-8.925,10.626-1.379,2.6-2.8,5.44-2.322,8.342.2,1.184.7,2.306.817,3.5a2.908,2.908,0,0,1-1.433,3.036,2.63,2.63,0,0,1-2.913-1.01,7.621,7.621,0,0,1-1.193-3.061c-1.151-5.03-2.229-10.224-1.388-15.316a28.064,28.064,0,0,0,.79-5.517c-.146-4.069-3.148-7.4-4.614-11.2-.568-1.472-.844-3.308.2-4.488a9.2,9.2,0,0,1,2.016-1.362c2.1-1.367,3.037-3.958,3.421-6.431a22.288,22.288,0,0,0-.227-8.051c-.846-3.964-2.787-7.832-2.307-11.857.472-3.958,3.184-7.221,5.007-10.765a25.484,25.484,0,0,0,2.582-14.885c-.314-2.377-.862-5.128.749-6.9,1.935-2.132,5.682-1.33,7.89-3.178,1.077-.9,1.6-2.285,2.4-3.44a8.428,8.428,0,0,1,9.006-3.215c1.517.435,2.88,1.3,4.381,1.787,2.119.689,4.4.6,6.611.865s4.555,1.009,5.829,2.837c.676.97.982,2.153,1.6,3.16,1.33,2.158,3.869,3.2,5.791,4.851a11.241,11.241,0,0,1,3.164,12.007c-1.147,3.195-3.8,6.018-3.576,9.405.093,1.391.684,2.756.493,4.137-.531,3.838-6.106,4.606-8.03,7.969.153-5.515-.9-11.2-3.915-15.82-2.409-3.7-9.727-10.182-14.758-8.378a3.574,3.574,0,0,0-2.2,2.365c-.5,1.894.961,2.682,1.9,4.192A12.742,12.742,0,0,1,135.158,623.206Z" transform="translate(-48.138 -202.856)"/><g class="k" transform="translate(56.997 393.882)"><path d="M112.77,657.657a22.273,22.273,0,0,0-.481-5.16c-.72-3.37-2.225-6.672-2.366-10.058-.193,3.77,1.57,7.414,2.366,11.143A22.242,22.242,0,0,1,112.77,657.657Z" transform="translate(-106.385 -612.08)"/><path d="M129.54,699.505c.293-.538.6-1.07.925-1.589-4.243,2.044-6.717,6.467-8.925,10.626-1.277,2.406-2.589,5.021-2.395,7.7a17.344,17.344,0,0,1,2.395-6.615C123.582,705.781,125.854,701.713,129.54,699.505Z" transform="translate(-108.791 -626.566)"/><path d="M117.782,725.016a2.557,2.557,0,0,1-1.411,2.114,2.63,2.63,0,0,1-2.913-1.01,7.62,7.62,0,0,1-1.193-3.061,54.5,54.5,0,0,1-1.678-10.943,50.058,50.058,0,0,0,1.678,12.028,7.621,7.621,0,0,0,1.193,3.061,2.63,2.63,0,0,0,2.913,1.01,2.908,2.908,0,0,0,1.433-3.036C117.8,725.124,117.789,725.07,117.782,725.016Z" transform="translate(-106.56 -630.274)"/><path d="M145.617,632.268a12.059,12.059,0,0,1-.391,2.562c-.588,2.2-1.735,4.643-1.526,6.752a36.166,36.166,0,0,1,1.526-5.667,12.22,12.22,0,0,0,.391-3.647Z" transform="translate(-115.202 -609.424)"/><path d="M120.37,608.106a25.023,25.023,0,0,0-.207-3.846c-.124-.939-.283-1.937-.333-2.909a21.757,21.757,0,0,0,.332,3.994A24.9,24.9,0,0,1,120.37,608.106Z" transform="translate(-108.975 -601.351)"/><path d="M150.11,655.052c-.005-.03-.016-.056-.022-.085-.256,1.255-1.29,2.4-1.766,3.66a5.173,5.173,0,0,0-.3,2.359,4.97,4.97,0,0,1,.3-1.274C148.922,658.125,150.408,656.722,150.11,655.052Z" transform="translate(-116.33 -615.351)"/><path d="M110.245,694.118c-.146-4.069-3.148-7.4-4.614-11.2a7.524,7.524,0,0,1-.471-1.853,6.245,6.245,0,0,0,.471,2.938c1.441,3.736,4.362,7.025,4.6,11C110.247,694.708,110.256,694.414,110.245,694.118Z" transform="translate(-105.139 -622.165)"/><path d="M158.1,621.789c-2.409-3.7-9.727-10.182-14.758-8.378a3.574,3.574,0,0,0-2.2,2.365,2.562,2.562,0,0,0-.038,1.268c.012-.061.021-.12.038-.183a3.574,3.574,0,0,1,2.2-2.365c5.031-1.8,12.349,4.678,14.758,8.378a26.769,26.769,0,0,1,3.922,14.256C162.1,631.766,161.021,626.278,158.1,621.789Z" transform="translate(-114.514 -604.419)"/><path d="M177.454,635.467c-.53,3.83-6.081,4.6-8.017,7.948q0,.554-.013,1.106c1.924-3.363,7.5-4.131,8.03-7.969a4.713,4.713,0,0,0,0-1.137C177.456,635.432,177.457,635.449,177.454,635.467Z" transform="translate(-121.925 -610.245)"/><path d="M183.2,616.081c-1.147,3.195-3.8,6.018-3.576,9.405,0,.05.011.1.016.149.249-2.982,2.52-5.574,3.56-8.47a10.628,10.628,0,0,0,.59-4.128,10.44,10.44,0,0,1-.59,3.043Z" transform="translate(-124.584 -604.402)"/><path d="M144.471,706.71a1.75,1.75,0,0,1-1.1.746c-1.616.172-1.342-2.731-2.64-3.707.032.384.062.772.084,1.161,1.2,1.039.978,3.8,2.556,3.631a1.75,1.75,0,0,0,1.1-.746c1.438-1.806,1.578-4.089,1.541-6.461A8.522,8.522,0,0,1,144.471,706.71Z" transform="translate(-114.432 -627.458)"/><path d="M137.272,710.574c-.613,1.58-2.2,2.917-3.878,2.653l-.575-3.79a10.967,10.967,0,0,1-3.813,2.436c-.073.386-.144.773-.2,1.162a10.969,10.969,0,0,0,4.014-2.514l.575,3.79c1.674.264,3.266-1.074,3.878-2.653a8.546,8.546,0,0,0,.446-3.43A7.294,7.294,0,0,1,137.272,710.574Z" transform="translate(-111.319 -629.259)"/><path d="M147.951,688.763a19.411,19.411,0,0,0-.147,3.071,15.863,15.863,0,0,1,.147-1.987c.6-4.142,3.505-7.937,3.244-12.048C150.961,681.5,148.5,684.987,147.951,688.763Z" transform="translate(-116.278 -621.313)"/></g><path class="c" d="M699.432,265.749V338.3c0,3.829-3.693,6.942-8.253,6.942H516.5c-4.56,0-8.253-3.113-8.253-6.942V265.749c0-3.836,3.693-7.745,8.253-7.745H691.179C695.739,258,699.432,261.913,699.432,265.749Z" transform="translate(-156.733 -114.893)"/><path class="d" d="M699.432,266.257V286.5H508.251V266.257A8.25,8.25,0,0,1,516.5,258H691.179a8.25,8.25,0,0,1,8.253,8.253Z" transform="translate(-156.733 -114.76)"/><circle class="c" cx="5.519" cy="5.519" r="5.519" transform="translate(357.166 151.941)"/><circle class="c" cx="5.519" cy="5.519" r="5.519" transform="translate(373.104 151.941)"/><circle class="c" cx="5.519" cy="5.519" r="5.519" transform="translate(389.043 151.941)"/><circle class="a" cx="21.575" cy="21.575" r="21.575" transform="translate(483.076 178.753)"/><rect class="l" width="90.985" height="3.211" transform="translate(459.326 189.069) rotate(180)"/><rect class="d" width="90.985" height="3.211" transform="translate(459.326 196.84) rotate(180)"/><rect class="d" width="90.985" height="3.211" transform="translate(459.326 204.61) rotate(180)"/><rect class="d" width="90.985" height="3.211" transform="translate(459.326 212.38) rotate(180)"/><path class="a" d="M668.82,514.206s-6.411-1.472-10.606,2.846c0,0,2.7,2.438,9.044-.261Z" transform="translate(-195.986 -182.932)"/><path class="a" d="M672.877,514.218s3.791,5.375,1.384,10.894c0,0-3.279-1.576-3.185-8.469Z" transform="translate(-199.386 -183.029)"/><path class="a" d="M674.676,502.556s-2.273-4.926-13.088,1.031c0,0,1.168,3.29,5.765,3.338S673.3,504.98,674.676,502.556Z" transform="translate(-196.896 -179.391)"/><path class="a" d="M679.638,502.829s5.419-.252,5.115,12.091c0,0-3.458.479-5.618-3.579S678.121,505.169,679.638,502.829Z" transform="translate(-201.229 -179.998)"/><path class="a" d="M680.481,488.041s-2.461-8.584-13.835-3.359c0,0,1.989,7.858,12.52,6.135Z" transform="translate(-198.247 -174.694)"/><path class="a" d="M685.5,471.592s-5.134-8.85-15.771-1.667c0,0,3.009,8.187,14.7,4.633Z" transform="translate(-199.076 -170.462)"/><path class="a" d="M687.9,455.73s-6.131-8.223-16.676-1.12c0,0,5.849,7.249,16.542,3.107Z" transform="translate(-199.479 -166.354)"/><path class="a" d="M690.485,440.049s-6.194-8.574-16.3-1.529c0,0,7.122,7.682,16.174,3.429Z" transform="translate(-200.267 -162.096)"/><path class="a" d="M690.762,425.3s-6.383-10.931-15.845-4.449c0,0,7,9.5,15.711,6.436Z" transform="translate(-200.461 -157.586)"/><path class="a" d="M689.548,409.053s-6.821-10.873-16.081-3.51c0,0,8.3,9.584,15.954,5.411Z" transform="translate(-200.075 -153.369)"/><path class="a" d="M687.06,393.737s-8.244-10.34-16.282-6.974c0,0,8.579,10.97,16.483,9.591Z" transform="translate(-199.36 -148.87)"/><path class="a" d="M683.978,378.968s-9.481-12.614-15.71-9.04c0,0,6.945,9.753,16.3,11.336Z" transform="translate(-198.69 -144.396)"/><path class="a" d="M679.2,362.959s-8.335-10.348-15.064-8.37c0,0,7.011,10.626,16.066,11.494Z" transform="translate(-197.588 -140.409)"/><path class="a" d="M675.174,347.593s-9.31-10-13.74-8.647c0,0,6.475,10.85,14.033,10.75Z" transform="translate(-196.859 -136.27)"/><path class="a" d="M671.149,332.58s-7.805-11.72-12.529-11.17c0,0,4.517,10.284,12.454,12.293Z" transform="translate(-196.102 -131.627)"/><path class="a" d="M667.076,314.252S660.09,305.2,656,304.944c0,0,5.2,11.81,11.2,12.114Z" transform="translate(-195.4 -127.242)"/><path class="a" d="M666.169,298.457l-6.106-18.289s-1.447,16.065,6.814,21.654Z" transform="translate(-196.438 -120.657)"/><path class="a" d="M665.293,272.4s-.212-14.943.647-16.1c0,0-6.051,12.005-1.038,22.67Z" transform="translate(-197.208 -114.293)"/><path class="a" d="M685.386,489.326s7.889-4.185,12.019,7.631c0,0-7.039,4.021-13.106-4.758Z" transform="translate(-202.95 -176.195)"/><path class="a" d="M691.07,472.375s9.573-3.613,13.274,8.678c0,0-7.506,4.442-14.322-5.7Z" transform="translate(-204.481 -171.739)"/><path class="a" d="M694.263,457.109s7.175-7.33,16.676,1.12c0,0-6.766,6.4-16.809.867Z" transform="translate(-205.587 -167.004)"/><path class="a" d="M696.507,440.454s7.285-7.669,16.359.665c0,0-8.085,6.661-16.487,1.236Z" transform="translate(-206.185 -162.493)"/><path class="a" d="M696.335,425.43s5.514-11.394,15.451-5.667c0,0-6.241,10.012-15.164,7.638Z" transform="translate(-206.169 -157.415)"/><path class="a" d="M694.431,408.516s5.5-11.6,15.558-5.373c0,0-7.114,10.491-15.208,7.246Z" transform="translate(-205.662 -152.924)"/><path class="a" d="M691.454,391.651s2.739-12.937,11.433-13.528c0,0-2.756,13.651-10.441,15.959Z" transform="translate(-204.85 -146.764)"/><path class="a" d="M689.23,376.83s1.779-15.679,8.96-15.756c0,0-1.043,11.928-8.3,18.034Z" transform="translate(-204.247 -142.224)"/><path class="a" d="M683.564,360.351s3.01-12.942,9.93-14.085c0,0-1.7,12.617-9.475,17.334Z" transform="translate(-202.74 -138.273)"/><path class="a" d="M678.927,345.324s.988-13.626,5.287-15.35c0,0,1.755,12.513-4.2,17.172Z" transform="translate(-201.486 -133.928)"/><path class="a" d="M675.161,330.756s1.527-14,5.973-15.687c0,0,.73,11.209-5.388,16.649Z" transform="translate(-200.484 -129.953)"/><path class="a" d="M670.072,314.092s.793-11.409,4.051-13.885c0,0,2.222,12.712-2.6,16.29Z" transform="translate(-199.122 -125.989)"/><path class="a" d="M668.772,297.549l4.271-18.8s3.025,15.844-4.643,22.22Z" transform="translate(-198.679 -120.279)"/><path class="a" d="M668.641,273.739s8.549-12.257,8.486-13.7c0,0-1.716,13.334-11.844,19.358Z" transform="translate(-197.876 -115.285)"/><path class="a" d="M668.75,266.71s8.476-17.657,11.858-18.906c0,0-10.722,4.574-12.428,18.347Z" transform="translate(-198.65 -112.021)"/><path class="b" d="M669.725,308.516l.506-.119c-4.784-20.384-5.456-33.236-1.893-36.188l-.331-.4C664.23,274.938,664.824,287.631,669.725,308.516Z" transform="translate(-197.918 -118.461)"/><path class="b" d="M684.8,368.837l.751-.21c-.526-1.874-1.1-3.778-1.715-5.658-5.323-16.363-9.771-31.551-12.5-43.165l-.617-.364c2.731,11.636,7.042,27.387,12.372,43.77C683.7,365.08,684.278,366.974,684.8,368.837Z" transform="translate(-199.339 -131.207)"/><path class="b" d="M658.612,494.6c.107-.1,10.785-10.614,18.987-29.236a112.714,112.714,0,0,0,9.031-34.348c1.471-14.819-.531-31.612-4.858-47.032l-.626.64c9.713,34.611,3.007,63.262-4.479,80.279-8.117,18.452-18.673,28.85-18.779,28.953Z" transform="translate(-195.977 -148.69)"/><path class="m" d="M1034.072,721.024l-20.446-29.642s-.382-7.339-1.72-9.055-.287-5.528-.287-5.528,1.433-2.1.191-2.288-.191-4.861-.191-4.861l-.1-7.434s1.146-7.148.191-8.864a2.811,2.811,0,0,1,.1-3.05s1.146-4.1,0-5.147-.86-7.434-.573-12.486-2.006-7.911-2.006-8.674-7.548-8.2-7.548-8.864-4.777-3.431-7.643-4.194-4.3-1.334-4.2-1.716-4.49-1.906-4.49-1.906-4.013-.286-5.541-2.288c-1.507-1.973-6.2-2.581-6.336-2.6-.029-.134-.062-.266-.088-.4s-.059-.287-.087-.431c.361-.6.7-1.227,1-1.868q.136-.288.263-.582a8.123,8.123,0,0,0,4.7-1.458,6.4,6.4,0,0,0,2.289-4.571,10.032,10.032,0,0,0-1.117-5.079c-.839-1.716-2.068-3.494-1.643-5.356.184-.8.666-1.51.912-2.3a6.049,6.049,0,0,0-.686-4.514c-.724-1.385-1.732-2.6-2.536-3.942a15.458,15.458,0,0,1-2.017-5.576,8.652,8.652,0,0,0-.746-3.035,5.629,5.629,0,0,0-1.675-1.692,16.743,16.743,0,0,0-10.27-3.114c-2.6.09-5.193.79-7.776.473a28.462,28.462,0,0,1-4.54-1.188c-3.2-.947-6.9-1.338-9.691.5-2.84,1.868-3.9,5.441-5.792,8.262-1.672,2.5-4.12,4.588-5.4,7.231.015-.051.028-.1.043-.154a8.681,8.681,0,0,0-.712,1.926,13.7,13.7,0,0,0,.423,6.321,4.4,4.4,0,0,0,1.543,2.822c.947.607,2.239.46,3.34.655-.043.181-.089.362-.128.545a21.823,21.823,0,0,0,15.148,25.456c0,.195.008.389.006.578a14.97,14.97,0,0,1-.1,1.638h0s-9.606-1.974-12.185-.64-7.643,2.383-8.408,3.145-2.675.191-4.395,4.67-1.911,9.055-4.108,11.152-3.344,3.527-3.44,5.052.287,1.906-.573,2.383-2.1,2.478-1.72,3.241a2.715,2.715,0,0,1-1.051,2.859,3.185,3.185,0,0,0-1.338,2.859s-.573,2.1-1.911,2.573-2.2,3.622-2.2,3.622l-4.334,4.981-8.587-9.5a3.624,3.624,0,0,0-5.11-.263l-4.215,3.793a8.322,8.322,0,0,0-4.22,2.511,10.972,10.972,0,0,0-2.186,3.254l-2.31,2.078a5.861,5.861,0,0,0-.592,6.477l5.5,6.084.034.051a9.692,9.692,0,0,0-5.321,2.167c-8.215,7.243-8.312,13.917-7.068,16.965s11.654,14.774,11.654,14.774,6.047,7.864,14.783,12.046l-.012.012-.066.067c-.173.183-.344.383-.512.6-.047.06-.094.118-.14.18s-.089.124-.133.186-.1.15-.157.229q-.061.092-.121.188c-.056.088-.11.18-.164.273-.035.061-.071.12-.105.183-.066.119-.131.244-.195.37-.021.041-.042.08-.063.122-.081.167-.16.341-.237.521-.027.063-.052.129-.078.193-.05.124-.1.249-.148.379-.03.08-.058.163-.087.246q-.063.183-.123.374c-.028.089-.055.177-.082.268-.04.136-.077.277-.114.419-.022.086-.046.17-.067.258q-.08.332-.149.684c-.017.088-.032.181-.048.271-.029.161-.057.324-.083.491-.017.113-.032.229-.048.344-.021.156-.04.314-.058.476-.013.12-.026.24-.037.363-.016.177-.03.359-.042.542-.008.111-.016.221-.022.335-.016.3-.028.605-.034.922-.192,11.152.461,12.773.461,12.773a6.189,6.189,0,0,0,5.07,3.806,6.617,6.617,0,0,0,1.634-.089c4.967-.858,16.624-2.859,20.732-2.1,2.471.457,7.042-.22,10.3-.835q.448-.084.858-.166l.595,1.9,1.891-.517c.611.354,1.154.669,1.6.926.43.249.775.447,1.012.583,1.887,6.393,9.539,4.213,9.539,4.213l1.817,1.049,18.439.475a37.14,37.14,0,0,0,6.526,3.134,5.824,5.824,0,0,0,.926.2,42.359,42.359,0,0,0,5.139.1c1.413-.037,2.505-.1,2.505-.1s-.188-5.006-.456-10.611a150.651,150.651,0,0,0,17.079-1.4c9.845-1.729,13.954-10.685,15.468-15.469a45.047,45.047,0,0,1,.966,5.937,42.922,42.922,0,0,0,1.529,5.147,17.418,17.418,0,0,0,2.1,3.813c7.261-2.478,2.866-6.2,1.338-7.816s1.051-2.955,1.051-2.955,2.006-1.334,1.815-2.573-.287-2.573,6.21-2.478S1034.072,721.024,1034.072,721.024Zm-100.886-60.86c.083.546.989,6.417,1.809,7.961a10.508,10.508,0,0,1,.215,3.14c-3.849-.307-7.859-.471-7.859-.471a.918.918,0,0,1,.205.49q-.293-.064-.6-.136c-.285-.066-.58-.139-.88-.216l7.095-10.785Zm-14.051,22.353,6.664,1.055.559.088a22.1,22.1,0,0,0-.345,3.147c.02.1.15.22.364.356a8.7,8.7,0,0,0-.129,1.577c.106.527,3.223,1.666,6.795,2.612-.048.193-.1.375-.146.547h0c-3.156-1.661-8.126-2.436-8.7-3.669s-17.484-7.143-17.484-7.143-.619-.327-1.684-.841l4.456.842,1.223-.124a66.691,66.691,0,0,0,8.427,1.553Z" transform="translate(-253.433 -195.889)"/><path class="f" d="M1020.855,771.947s-2.651,16-16.1,18.37-58.329,1.894-58.329,1.894-25.661-3.693-34.941-25.377-15.245-30.3-7.291-30.68,50.849,14.488,53.311,14.677S1023.222,717.879,1020.855,771.947Z" transform="translate(-261.963 -242.666)"/><path class="n" d="M1020.855,771.947s-2.651,16-16.1,18.37-58.329,1.894-58.329,1.894-25.661-3.693-34.941-25.377-15.245-30.3-7.291-30.68,50.849,14.488,53.311,14.677S1023.222,717.879,1020.855,771.947Z" transform="translate(-261.963 -242.666)"/><path class="i" d="M900.314,800.125a6.138,6.138,0,0,0,5.025,3.781,6.543,6.543,0,0,0,1.619-.088c4.923-.852,16.476-2.841,20.547-2.082,2.449.454,6.98-.219,10.207-.829,2.145-.4,3.713-.781,3.713-.781s-3.787-12.593-4.261-12.974-17.044-10.32-17.044-10.32L907,775.888l-.04,0a6.911,6.911,0,0,0-4.448,2.614c-1.386,1.676-2.574,4.429-2.653,8.937C899.666,798.514,900.314,800.125,900.314,800.125Z" transform="translate(-260.57 -253.043)"/><path class="n" d="M900.314,800.125a6.138,6.138,0,0,0,5.025,3.781,54.112,54.112,0,0,1-3.565-5.2l.071-9.184A16.179,16.179,0,0,1,907,775.888l-.04,0s-6.911.472-7.1,11.55S900.314,800.125,900.314,800.125Z" transform="translate(-260.368 -253.043)"/><path class="g" d="M974.828,771.366l12.215-9.562,19.223-18.939s-2.077-.1-5.21-.236c-.778.5-2.963,2.06-3.042,3.957-.094,2.315-5.2.162-7.846,1.486s-15.624,17.928-17.9,17.82-4.071-1.153-5.019.457c-.02.037-.046.071-.068.105Z" transform="translate(-279.378 -244.359)"/><path class="g" d="M903.46,778.5q.652.315,1.324.605c9.281,3.977,20.737,12.309,21.589,13.826.52.92,7.161,4.954,12.289,7.977,2.145-.4,3.713-.781,3.713-.781s-3.787-12.593-4.261-12.974-17.044-10.32-17.044-10.32l-13.121-.943-.04,0A6.911,6.911,0,0,0,903.46,778.5Z" transform="translate(-261.524 -253.043)"/><path class="f" d="M868.4,735.928c1.23,3.031,11.55,14.678,11.55,14.678s6.534,8.522,15.814,12.5,20.737,12.309,21.589,13.826c.548.974,7.943,5.429,13.155,8.488.4.236.793.466,1.167.682,1.02.594,1.909,1.111,2.585,1.5.852.494,1.366.787,1.366.787s3.17-2.545,6.329-5.108c3.116-2.528,6.218-5.071,6.267-5.213.094-.284,1.324-3.505,1.04-3.693-.148-.1-.8-1.409-1.994-2.929a13.4,13.4,0,0,0-4.824-3.986,13.713,13.713,0,0,1-6.25-6.517s-.415-.3-1.043-.7a12.66,12.66,0,0,0-4.258-1.9c-2.085-.261-5.966-4.522-5.966-4.522a11.657,11.657,0,0,1-3.693-3.88c-.994-2.077-15.681-12.164-17.041-13.1l35.6,22.865,8.519,5.474,12.215-9.562,19.223-18.939s-2.585-.125-6.343-.287c-9.343-.4-25.936-1.037-28.029-.565a15.975,15.975,0,0,1-5.21.341s-4.727.213-7.855-1.437-8.053-2.42-8.622-3.645-17.328-7.1-17.328-7.1-22.819-12.118-30.964-4.923S867.164,732.9,868.4,735.928Z" transform="translate(-253.433 -237.613)"/><path class="o" d="M968.176,638.7l2.935,9.752,3.787,21.967,13.919.949,4.031-6.684,4.02-6.667s2.506-8.877,4.307-17.465c1.594-7.6,2.633-14.971.9-15.772-1.537-.71-2.548-3.27-3.2-6.019-.082-.341-.159-.687-.227-1.031a53.623,53.623,0,0,1-.923-7.059s-29.165-1.514-25.095,10.511a19.136,19.136,0,0,1,1.1,6.394,14.9,14.9,0,0,1-.1,1.628A13.634,13.634,0,0,1,968.176,638.7Z" transform="translate(-279.637 -209.019)"/><path class="p" d="M959.972,643.662l1.043,16.57,2.366,14.11,2.653,6.534,2.366,35.747s22.831,2.639,28.384-.048a2.427,2.427,0,0,0,1.006-.784c6.707-10.127,4.508-39.46,4.508-39.46l2.557-18.939-1.7-9.829-4.119-.437-3.17-.338s-.716.881-1.75,2.247c-2.807,3.707-7.971,11-7.625,14.039.472,4.167-.568,8.428-2.179,9.09s-2.934,1.8-3.219.665a5.127,5.127,0,0,1-.284-3.031c.284-1.611-1.233-6.534-1.233-6.534s-2.557-5.775-2.366-8.238-.284-5.3-1.042-5.965-1.8-1.327-.946-4.355-3.736-8.928-3.736-8.928Z" transform="translate(-277.495 -216.458)"/><path class="g" d="M1000.774,681.291l.949,28.313s2.15,1.19,5.468,3.031a2.427,2.427,0,0,0,1.006-.784c6.707-10.127,4.508-39.46,4.508-39.46l2.557-18.939-1.7-9.829-4.119-.437c1.594-7.6,2.633-14.971.9-15.772-1.537-.71-2.548-3.27-3.2-6.019h0l-2.951,20.033s.247,1.8.335,3.667a10.494,10.494,0,0,1-.239,3.528,11.755,11.755,0,0,0-.19,4.735c-1.707,3.008-2.56,8.579-2.977,13.959C1000.558,674.474,1000.774,681.291,1000.774,681.291Z" transform="translate(-288.139 -212.702)"/><path class="i" d="M1007.409,620.784s4.771.593,6.286,2.582,5.492,2.273,5.492,2.273,4.545,1.515,4.45,1.894,1.326.947,4.166,1.7,7.575,3.5,7.575,4.166,7.48,8.049,7.48,8.806,2.273,3.6,1.989,8.617-.568,11.363.568,12.4,0,5.113,0,5.113a2.8,2.8,0,0,0-.095,3.03c.947,1.7-.19,8.806-.19,8.806l.095,7.386s-1.042,4.64.189,4.829-.189,2.273-.189,2.273-1.042,3.788.284,5.492,1.7,9,1.7,9l20.264,29.449s.284,5.4-6.155,5.3-6.344,1.231-6.155,2.462-1.8,2.557-1.8,2.557-2.557,1.326-1.042,2.935,5.871,5.3-1.326,7.765a17.313,17.313,0,0,1-2.083-3.788,42.718,42.718,0,0,1-1.515-5.113s-.663-7.2-1.989-8.143-1.136-5.492-1.136-5.492,1.894-3.693-.758-5.208-41.1-22.82-41.1-22.82l-.947-28.312s-.663-20.927,3.314-27.934a11.78,11.78,0,0,1,.189-4.734c.663-1.7-.095-7.2-.095-7.2Z" transform="translate(-288.323 -212.543)"/><path class="g" d="M963.709,635.773s-9.52-1.961-12.076-.636-7.575,2.367-8.333,3.125-2.651.189-4.356,4.64-1.894,9-4.072,11.079-3.314,3.5-3.409,5.019.284,1.894-.568,2.367-2.083,2.462-1.7,3.219,19.7,17.423,19.7,17.423.947,6.344,1.8,7.954-.947,23.767-2.841,25.282,12.783,1.375,12.783,1.375.663-14.537,1.231-15.295-.379-16.287-.379-16.287-.095-13.257,1.136-16.76,1.092-15.15,1.092-15.15,1.088-6.989,2.411-8.617S963.709,635.773,963.709,635.773Z" transform="translate(-268.359 -216.171)"/><path class="i" d="M963.325,635.388s-9.52-1.961-12.077-.636-7.575,2.367-8.333,3.125-2.651.189-4.356,4.64-1.894,9-4.072,11.079-3.314,3.5-3.409,5.019.284,1.894-.568,2.367-2.083,2.462-1.7,3.219,19.7,17.423,19.7,17.423.947,6.344,1.8,7.954-.947,23.767-2.841,25.282,12.783,1.375,12.783,1.375.663-14.537,1.231-15.295-.379-16.287-.379-16.287-.095-13.257,1.136-16.76,1.092-15.15,1.092-15.15,1.088-6.99,2.411-8.617S963.325,635.388,963.325,635.388Z" transform="translate(-268.257 -216.07)"/><path class="g" d="M974.059,621.183a19.135,19.135,0,0,1,1.1,6.394,21.715,21.715,0,0,0,24.919-9.846,53.622,53.622,0,0,1-.923-7.059S969.988,609.158,974.059,621.183Z" transform="translate(-281.072 -208.765)"/><path class="o" d="M954.72,597.006a21.671,21.671,0,1,0,.472-4.508,21.671,21.671,0,0,0-.472,4.508Z" transform="translate(-276.124 -199.491)"/><path class="i" d="M929.154,672.592l-5.208,1.61a2.7,2.7,0,0,1-1.042,2.841,3.168,3.168,0,0,0-1.326,2.841s-.568,2.083-1.894,2.557-2.178,3.6-2.178,3.6l-4.356,5.019s-1.61,1.326-1.326,1.989-1.7.852-1.7.852l1.042,16.855,9,1.7,5.587-.568,4.545-1.7,3.977-2.367,1.8-4.64,7.954-12.12Z" transform="translate(-263.271 -226.071)"/><path class="o" d="M903.712,699.569S892.16,682.9,883.543,691.9s3.5,23.578,6.344,23.1,16.381-1.231,16.381-1.231Z" transform="translate(-255.323 -230.417)"/><rect class="i" width="60.465" height="46.948" rx="1.544" transform="translate(623.075 435.176) rotate(27.036)"/><rect class="a" width="50.823" height="38.297" transform="translate(625.511 441.16) rotate(27.036)"/><circle class="q" cx="0.834" cy="0.834" r="0.834" transform="translate(614.514 456.481)"/><circle class="q" cx="1.374" cy="1.374" r="1.374" transform="translate(662.615 481.047)"/><path class="o" d="M901.791,705.888c-.094,12.5,25.757,15.15,25.757,15.15l6.6,1.048,2.957.469,1.233-12.215s-1.355-.2-3.048-.6c-2.5-.582-5.744-1.591-6.423-3C927.735,704.374,901.885,693.389,901.791,705.888Z" transform="translate(-261.065 -233.232)"/><path class="g" d="M955.358,592.5a2.569,2.569,0,0,1,1.585.71c.733.775.773,2.15,1.724,2.628a1.92,1.92,0,0,0,1.131.131c2.517-.355,3.974-3.2,6.392-3.98a6.425,6.425,0,0,1,4.235.364,3.156,3.156,0,0,1,1.4.9c.81,1.048.241,2.588.616,3.855.52,1.758,2.619,2.457,4.437,2.687s3.866.358,5.079,1.73a4.6,4.6,0,0,1,.9,3.664,2.879,2.879,0,0,0-.011,1.355c.5,1.42,2.957,1.21,3.6.088.469-.815.327-1.491,1.432-1.719a4.706,4.706,0,0,1,2.318.4,17.018,17.018,0,0,0,6,.92A21.687,21.687,0,1,0,955.358,592.5Z" transform="translate(-276.29 -199.43)"/><path class="i" d="M980.973,601.9a2.917,2.917,0,0,1,.011-1.356,4.6,4.6,0,0,0-.9-3.664c-1.214-1.374-3.262-1.5-5.081-1.732s-3.916-.927-4.437-2.685c-.375-1.267.192-2.809-.616-3.855a3.124,3.124,0,0,0-1.4-.9,6.433,6.433,0,0,0-4.237-.366c-2.417.782-3.876,3.626-6.391,3.981a1.925,1.925,0,0,1-1.13-.131c-.952-.477-.993-1.851-1.724-2.626-1.149-1.217-3.331-.431-4.74-1.336a4.369,4.369,0,0,1-1.53-2.8,13.641,13.641,0,0,1-.419-6.28c.824-3.522,3.97-5.937,5.981-8.945,1.874-2.8,2.926-6.352,5.741-8.208,2.766-1.823,6.429-1.435,9.6-.493a28.161,28.161,0,0,0,4.5,1.18c2.56.315,5.129-.38,7.707-.47a16.565,16.565,0,0,1,10.178,3.093,5.586,5.586,0,0,1,1.66,1.681,8.613,8.613,0,0,1,.739,3.015,15.38,15.38,0,0,0,2,5.539c.8,1.331,1.8,2.54,2.513,3.916a6.022,6.022,0,0,1,.679,4.485c-.244.782-.721,1.483-.9,2.282-.421,1.85.8,3.616,1.628,5.321a9.985,9.985,0,0,1,1.107,5.046,6.364,6.364,0,0,1-2.269,4.541,8.153,8.153,0,0,1-4.8,1.455,17.028,17.028,0,0,1-6.116-.918,4.734,4.734,0,0,0-2.318-.4c-1.106.227-.964.9-1.432,1.72C983.929,603.108,981.474,603.318,980.973,601.9Z" transform="translate(-274.41 -195.323)"/><path class="g" d="M973.75,772.117l12.215-9.562,19.223-18.939s-2.585-.125-6.343-.287a4.15,4.15,0,0,0-1.341,2.588c-.094,2.315-5.2.162-7.846,1.486s-15.624,17.928-17.9,17.82-4.071-1.153-5.019.457c-.02.037-.046.071-.068.105a2.7,2.7,0,0,1-1.443.858Z" transform="translate(-278.868 -244.542)"/><path class="f" d="M943.44,769.145l6.139,19.592.963,3.076,2.92-.8,6.446-1.77,28.7-7.883a24.9,24.9,0,0,0,10.329-2.756,31.292,31.292,0,0,1,17.834-3.888c3.794.355,8.013-1.282,11.513-7.75,0,0,7.954-23.481-12.121-30.205s-21.033,3.574-21.033,3.574-.1.057-.273.168c-.778.5-2.963,2.06-3.042,3.957-.094,2.315-5.2.162-7.846,1.486s-15.624,17.928-17.9,17.82-4.071-1.153-5.02.457c-.02.037-.046.071-.068.105-.7.966-2.809,1.19-4.2,1.23-.761.023-1.312-.011-1.312-.011l-.179.054-1.457.435Z" transform="translate(-273.178 -242.232)"/><path class="g" d="M945.589,725.523l2.957.469,1.233-12.215s-1.355-.2-3.048-.6C947.18,714.884,946.163,721.472,945.589,725.523Z" transform="translate(-273.74 -236.669)"/><path class="g" d="M1023.171,652.534s8.806-2.557,6.628,22.442-18.465,40.811-18.465,40.811-18.749,8.238-27.176,6.912-14.582-1.61-14.582-1.61a21.406,21.406,0,0,0-8.522-2.273c-4.735-.189-14.677-3.125-14.866-4.072s2.462-14.866,1.326-15.908c0,0,13.257.543,14.582,1.5s3.219.271,4.64,0,5.776-4.059,14.393-.745c0,0,2.935.284,4.072-.473a4.064,4.064,0,0,1,2.962-.189,8.332,8.332,0,0,0,2.057-1.042c.284-.379,2.557,0,2.557,0a1.007,1.007,0,0,0,1.42-.663,6.193,6.193,0,0,1,1.326-2.083s2.557-14.393,7.386-19.79a3.084,3.084,0,0,0,1.042-2.746C1003.57,671.093,1011.808,649.5,1023.171,652.534Z" transform="translate(-273.893 -220.757)"/><path class="i" d="M1022.856,649.934s8.806-2.557,6.628,22.442-18.465,40.811-18.465,40.811-18.749,8.238-27.176,6.912-14.582-1.61-14.582-1.61a21.408,21.408,0,0,0-8.522-2.273c-4.735-.189-14.677-3.125-14.866-4.072s2.462-14.866,1.326-15.908c0,0,13.257.543,14.582,1.5s3.219.272,4.64,0,5.776-4.059,14.393-.745c0,0,2.935.284,4.072-.473a4.064,4.064,0,0,1,2.962-.189,8.335,8.335,0,0,0,2.057-1.042c.284-.379,2.557,0,2.557,0a1.007,1.007,0,0,0,1.42-.663,6.194,6.194,0,0,1,1.326-2.083s2.557-14.393,7.386-19.79a3.084,3.084,0,0,0,1.042-2.746C1003.255,668.494,1011.493,646.9,1022.856,649.934Z" transform="translate(-273.811 -220.079)"/><path class="g" d="M957.5,777.031l12.508,15.132a.38.38,0,0,0,.08-.088c.094-.284,1.324-3.505,1.04-3.693s-2.46-4.926-6.818-6.914a12.947,12.947,0,0,1-5.352-4.872Z" transform="translate(-276.851 -253.229)"/><path class="g" d="M957.643,806.716c.852.494,1.366.787,1.366.787s3.17-2.545,6.329-5.108c3.116-2.528,6.218-5.071,6.267-5.213.094-.284,1.324-3.505,1.04-3.693-.148-.1-.8-1.409-1.994-2.929-8.48-2.375-3.079,3.511-2.361,3.781,0,0-10.32-2.369-10.888,8.874a13.2,13.2,0,0,0,.242,3.5Z" transform="translate(-276.817 -256.728)"/><path class="i" d="M968.4,811.48l1.8,1.043,18.274.472a36.778,36.778,0,0,0,6.468,3.113,5.752,5.752,0,0,0,.918.2,41.9,41.9,0,0,0,5.093.1c1.4-.037,2.483-.1,2.483-.1s-.864-23.047-1.517-25.473c-.312-1.159-1.844-.9-3.355-.324a22.2,22.2,0,0,0-3.273,1.656s-7.764.753-9,1.42-4.733-.383-6.911,0-6.059-2.562-6.059-2.562c-10.607-3.5-4.642,3.031-3.883,3.315,0,0-10.32-2.369-10.888,8.874S968.4,811.48,968.4,811.48Z" transform="translate(-277.12 -256.728)"/><path class="r" d="M1007.642,802.589c.2,4.77,3.917,10.692,6.136,13.826,1.4-.037,2.483-.1,2.483-.1s-.864-23.047-1.517-25.473c-.313-1.159-1.844-.9-3.355-.324C1009.553,793.959,1007.483,798.743,1007.642,802.589Z" transform="translate(-289.94 -256.737)"/><path class="g" d="M1007.642,802.589c.2,4.77,3.917,10.692,6.136,13.826,1.4-.037,2.483-.1,2.483-.1s-.864-23.047-1.517-25.473c-.313-1.159-1.844-.9-3.355-.324C1009.553,793.959,1007.483,798.743,1007.642,802.589Z" transform="translate(-289.94 -256.737)"/><path class="n" d="M1003.307,803.222c1.258,4.6,1.244,9.769,3.25,12.894a5.765,5.765,0,0,0,.918.2,41.9,41.9,0,0,0,5.093.1c1.4-.037,2.483-.1,2.483-.1s-.864-23.047-1.517-25.473c-.313-1.159-1.844-.9-3.355-.324a22.2,22.2,0,0,0-3.273,1.656S1001.7,797.325,1003.307,803.222Z" transform="translate(-288.73 -256.737)"/><path class="g" d="M918.089,744.653s9.077,2.95,16.769,13.415Z" transform="translate(-265.293 -244.888)"/><g class="s" transform="translate(673.718 380.871)"><path d="M1017.787,590.877c-.017.067-.034.134-.055.2a6.682,6.682,0,0,1-.316.79A5.772,5.772,0,0,1,1017.787,590.877Z" transform="translate(-966.213 -584.37)"/><path d="M948.335,583.984a8.636,8.636,0,0,1,.706-1.913c-.049.163-.1.326-.138.493a13.641,13.641,0,0,0,.419,6.28,4.369,4.369,0,0,0,1.529,2.8c1.409.9,3.59.118,4.74,1.336.731.775.772,2.149,1.724,2.626a1.925,1.925,0,0,0,1.13.131c2.516-.355,3.974-3.2,6.391-3.981a6.433,6.433,0,0,1,4.237.366,3.124,3.124,0,0,1,1.4.9c.808,1.045.241,2.588.616,3.855.521,1.758,2.618,2.455,4.437,2.685s3.867.358,5.081,1.732a4.6,4.6,0,0,1,.9,3.664,2.914,2.914,0,0,0-.011,1.356c.5,1.419,2.957,1.209,3.6.087.468-.816.326-1.493,1.432-1.72a4.735,4.735,0,0,1,2.318.4,17.028,17.028,0,0,0,6.116.918,8.153,8.153,0,0,0,4.8-1.455,5.658,5.658,0,0,0,1.473-1.79,6.059,6.059,0,0,1-2.041,3.211,8.153,8.153,0,0,1-4.8,1.455,17.029,17.029,0,0,1-6.116-.918,4.734,4.734,0,0,0-2.318-.4c-1.106.227-.964.9-1.432,1.72-.643,1.122-3.1,1.332-3.6-.087a2.916,2.916,0,0,1,.011-1.357,4.605,4.605,0,0,0-.9-3.664c-1.214-1.374-3.262-1.5-5.081-1.732s-3.916-.927-4.437-2.685c-.375-1.267.192-2.809-.616-3.855a3.125,3.125,0,0,0-1.4-.9,6.432,6.432,0,0,0-4.237-.366c-2.417.782-3.875,3.626-6.391,3.981a1.925,1.925,0,0,1-1.13-.131c-.953-.478-.993-1.851-1.724-2.626-1.149-1.217-3.331-.431-4.74-1.336a4.369,4.369,0,0,1-1.529-2.8A13.641,13.641,0,0,1,948.335,583.984Z" transform="translate(-948.118 -582.071)"/></g><path class="g" d="M1017.216,685.628c-1.734,2.342-3.715,4.508-5.25,6.985a13.285,13.285,0,0,0-2.3,8.266c1.588-1.63,2.316-3.881,3.317-5.925,1.7-3.461,4.232-6.4,6.37-9.577.409-.609,3.024-4.119,1.7-4.287C1019.959,680.953,1017.807,684.829,1017.216,685.628Z" transform="translate(-290.456 -227.57)"/><ellipse class="t" cx="89.405" cy="84.232" rx="89.405" ry="84.232" transform="translate(139.46 299.718)"/><path class="u" d="M442.534,654.485l-73.963-22.051a112.961,112.961,0,0,1-49.15,11.175c-57.854,0-104.921-43.09-104.921-96.054S261.567,451.5,319.421,451.5s104.921,43.09,104.921,96.054c0,26.737-12.275,52.4-33.711,70.545ZM368.44,630.853l.277.082,65.51,19.531L388.2,618.2l.744-.618c21.555-17.9,33.918-43.425,33.918-70.028,0-52.15-46.4-94.577-103.443-94.577S215.978,495.4,215.978,547.554s46.4,94.577,103.443,94.577a111.442,111.442,0,0,0,48.76-11.151Z" transform="translate(-78.069 -168.339)"/><circle class="a" cx="8.128" cy="8.128" r="8.128" transform="translate(198.02 377.94)"/><circle class="a" cx="8.128" cy="8.128" r="8.128" transform="translate(221.489 377.94)"/><circle class="a" cx="8.128" cy="8.128" r="8.128" transform="translate(244.959 377.94)"/><path class="v" d="M291.116,388.492c5.09,3.41,12.808,1.786,12.808,1.786s11.659-5.522,15.107-5.522,11.823-3.41,11.823-3.41l-.282-2.3-.855-6.928c5.307,4.136,11.2,2.709,14.11,2.407,3.12-.325,19.784-10.231,21.387-10.881a4.24,4.24,0,0,0,1.461-1.475h0a37.54,37.54,0,0,0,2.821-5.155h0c1.045-.918,1.806-1.656,1.752-1.816a11.48,11.48,0,0,1,1.021-2.727,13.361,13.361,0,0,0,5.055-1.82,4.593,4.593,0,0,0,.7-.708,4.494,4.494,0,0,0,.943-2.865s16.257-16.4,14.122-23.224,5.255-6.983,5.255-6.983,11.33-4.872,12.907-7.8c.972-1.8,9.468-5.746,15.866-8.52l.786-.339c2.487,5.44,15.086,1.255,17.569-1.047,2.627-2.436,10.345-3.573,10.345-3.573s.328-31.831,2.792-35.891c1.169-1.926,1.452-8.211,1.422-14.282q0-.324,0-.646c3.45-.673,11.654-2.232,15.466-2.611,2.416-.24,4.932-1.746,6.863-3.209.147.183.227.286.227.286a4.742,4.742,0,0,0,2.1.345,3.251,3.251,0,0,0,1.84-.345c1.478-.812,6.9-2.436,8.867-3.248s-.328-6.659-1.806-7.8-2.463-2.6-1.642-3.248-1.971-2.274-3.613-2.6a53.442,53.442,0,0,1-6.568-2.6s-1.806-3.735-4.762-3.735-6.9-2.923-6.9-2.923c-.164-1.3-3.284-1.462-3.284-1.462s-11.823-9.095-13.794-7.958-7.389-1.786-7.389-1.786-6.646.744-8.21-.48V201.4a1.868,1.868,0,0,0-.394-1.1c-.354-1.1-2.071-2.6-3.736-3.859a14.652,14.652,0,0,0,.19-2.346c0-.341-.013-.682-.036-1.017,0-.056-.011-.112-.016-.168l.232-2.287a4.74,4.74,0,0,1,.574-2.152c.277-.427.685-.765.994-1.173a3.257,3.257,0,0,0,.2-.3c.017-.028.032-.057.048-.086q.067-.121.123-.245c.013-.028.026-.056.038-.084a3.7,3.7,0,0,0,.212-.692c0-.019.007-.037.01-.056q.031-.161.049-.325l.005-.045a6.992,6.992,0,0,0-.37-2.789,18.761,18.761,0,0,1-1.345-4.618,14.234,14.234,0,0,0-.083-2.38c-.4-1.773-2.223-2.906-3.978-3.642a22.153,22.153,0,0,1-5.6-3.642c-1.658-1.286-4.391-.64-6.478-.506a56.577,56.577,0,0,0-13.948,3.224,13.866,13.866,0,0,0-4.873,2.419,5.369,5.369,0,0,0-1.783,3.009h0v0a3.773,3.773,0,0,0-.054.82c0,.024,0,.049.005.073q.01.158.035.314c.005.034.01.068.017.1a3.34,3.34,0,0,0,.091.372l0,.01c.189.6.54,1.141.743,1.735a3.77,3.77,0,0,1,.112.4c0,.014.006.029.009.043.028.13.05.26.066.392h0c.181,1.477-.363,3.019-.6,4.524-.034.213-.057.43-.074.648h0v.008a7.744,7.744,0,0,0,.227,2.593l.007.029c.029.1.062.206.1.308.014.044.028.089.043.132.031.087.065.172.1.257.023.057.045.114.07.17.033.076.069.15.106.224s.062.125.1.186.075.133.114.2.078.128.119.19.08.119.123.177.1.126.145.188.086.106.131.157.113.122.172.182.09.092.137.136c.066.061.135.118.2.175.046.038.091.077.138.113.082.061.168.117.255.173.041.027.08.056.123.081a4.284,4.284,0,0,0,.414.218c.943.43,2.13.583,2.7,1.411a1.848,1.848,0,0,1,.277.647c0,.056,0,.112,0,.168v.143c.007.481.033.955.082,1.423a5.445,5.445,0,0,0,.043.77,2.223,2.223,0,0,0,.161.559,14.731,14.731,0,0,0,4.98,8.364c.047.25.1.544.168.873a16.407,16.407,0,0,1-4.777,2.5c-3.941,1.153-9.524,6.477-9.524,6.477s-2.775,19.976-3.439,22.412-1.159,11.855-1.159,11.855a27.212,27.212,0,0,1-1.642,5.847c-.7,1.374-.572,7.275,1.375,10.861a9.173,9.173,0,0,1-1.211,1.969c-3.941,4.547-15.764,4.385-19.705,4.385-3.631,0-4.75,2.2-4.9,2.548-7.214,2.049-30.584,8.719-33.356,9.931-3.284,1.436-5.09,15.617-5.09,15.617s-6.9,23.548-6.568,26.647-2.3,11.68-2.3,11.68,0,9.715-1.117,10.374a.087.087,0,0,1-.033.019c-1.149.487-.985,5.2-.985,5.2s.845.244,2.165.579a37.736,37.736,0,0,1-2.66,8.074c-.511-.647-1.01-.918-1.311-.162-.821,2.066-13.137,16.682-16.257,16.682-1.488,0-3.944,1.218-5.56,2.862C289.2,384.389,288.452,386.708,291.116,388.492ZM347.6,303.88c13.958,1.3,28.9-.991,28.9-.991a33.2,33.2,0,0,1-2.135,5.7c-.985,1.624-3.777,10.881-3.777,12.83s-4.434,18.676-5.747,19.488a4.861,4.861,0,0,0-1.429,2.066,19.387,19.387,0,0,0-.87,2.482c.019.424.059.823.113,1.2-.981.9-2.019,1.841-2.944,2.676h0s-5.872,3.268-7.843,5.054-11.166,3.976-11.166,3.976a56.985,56.985,0,0,0-6.608,3.372c-2.849,1.719-5.7,3.9-6.445,6.055.322-3.629.847-8,1.2-10.782.179,0,.354-.011.524-.022,4.6-.286,3.915-4.677,3.672-5.765-.033-.156-.059-.244-.059-.244,3.284-3.573,10.674-30.207,9.688-33.13s.821-5.522,1.212-5.522.923-3.248.1-5.034,3.613-3.411,3.613-3.411Zm112.872-71.646c-.291.07-.581.14-.871.215-.007-.123-.011-.189-.011-.189s.328,0,.882-.026Zm-47.713-24.506c-.131.163-.266.322-.406.474-.055.06-.112.117-.168.175,0-.3,0-.608,0-.9q.284.132.574.252Zm-16.45,31.508.06.914s-.09.557-.255,1.512Zm75.464-9.076-2.864.494c.406-.153.806-.32,1.192-.5a2.734,2.734,0,0,1,.913-.248,4.979,4.979,0,0,1,1.068.229,2.241,2.241,0,0,0-.31.03Z" transform="translate(-98.107 -90.052)"/><path class="w" d="M398.679,409.216s-3.3,6.828-3.139,7.312-7.091,6.286-7.091,6.286l-7.9-5.641.806-3.868s8.864-7.988,9.509-8.909S398.679,409.216,398.679,409.216Z" transform="translate(-121.991 -153.751)"/><path class="i" d="M343.747,434.588c5.48,5.319,11.927,3.707,14.989,3.385s19.418-10.154,20.991-10.8a4.184,4.184,0,0,0,1.434-1.463h0a37.4,37.4,0,0,0,2.769-5.115c-.11.029-5.47,1.56-6.824,0,0,0-2.256-2.766-2.74-2.766s-.039-4.854-.039-4.854-5.763,3.243-7.7,5.016-10.959,3.945-10.959,3.945a55.688,55.688,0,0,0-6.485,3.346C344.914,427.887,340.63,431.565,343.747,434.588Z" transform="translate(-111.944 -156.089)"/><path class="g" d="M343.747,438.937c5.48,5.319,11.927,3.707,14.989,3.385s19.418-10.154,20.991-10.8a4.184,4.184,0,0,0,1.434-1.463c-1.908-1.138-14.367,6.782-17.854,8.232s-12.307.645-17.3-1.451c-2.495-1.044.032-4.258,3.185-7.214C344.914,432.236,340.63,435.914,343.747,438.937Z" transform="translate(-111.938 -160.487)"/><path class="w" d="M339.3,418.717s-2.3,17.245-1.712,19.5-14.405-7.736-14.405-7.736,5.245-10.806,3.707-13.289S339.3,418.717,339.3,418.717Z" transform="translate(-106.693 -156.987)"/><path class="i" d="M325.581,390.816s9.348,2.74,14.505,2.418c4.516-.284,3.842-4.642,3.6-5.721-.032-.155-.058-.242-.058-.242,3.223-3.546,10.476-29.977,9.509-32.878s.806-5.48,1.189-5.48.906-3.223.1-5,3.546-3.385,3.546-3.385c13.7,1.289,28.366-.983,28.366-.983a33.184,33.184,0,0,1-2.1,5.657c-.967,1.612-3.707,10.8-3.707,12.732s-4.352,18.534-5.641,19.34a4.825,4.825,0,0,0-1.4,2.05,19.381,19.381,0,0,0-.854,2.463c.483,10.8,12.732,6.608,14.505,5.157a4.394,4.394,0,0,0,1.612-3.546s15.956-16.278,13.861-23.047,5.157-6.93,5.157-6.93,11.121-4.835,12.668-7.736c.954-1.786,9.293-5.7,15.572-8.455,3.933-1.725,7.056-2.988,7.056-2.988l-2.614-9.374-2.06-7.388-3.878-1.457-12.4-4.667L399.857,308.3l-2.04.264-21.629,2.8s-31.589,9.025-34.812,10.45-5,15.5-5,15.5-6.769,23.37-6.447,26.445-2.256,11.591-2.256,11.591,0,9.641-1.1,10.3a.085.085,0,0,1-.032.019C325.419,386.143,325.581,390.816,325.581,390.816Z" transform="translate(-107.557 -128.337)"/><path class="g" d="M369.427,347.42c13.7,1.289,28.366-.983,28.366-.983.967-3.046,14.515-11.427,14.515-11.427C401.193,332.27,369.427,347.42,369.427,347.42Z" transform="translate(-119.083 -135.172)"/><path class="b" d="M389.276,406.893c.483,10.8,12.732,6.608,14.505,5.157a4.532,4.532,0,0,0,.687-.7c-4.281,1.576-11.868,2.795-14.338-6.917A19.374,19.374,0,0,0,389.276,406.893Z" transform="translate(-124.311 -153.757)"/><path class="b" d="M325.581,418.149s9.348,2.74,14.505,2.418c4.516-.284,3.842-4.642,3.6-5.721-4.732-.148-12.881-.593-17.11-1.873a.087.087,0,0,1-.032.019C325.419,413.475,325.581,418.149,325.581,418.149Z" transform="translate(-107.334 -156.027)"/><path class="g" d="M389.276,406.893c.483,10.8,12.732,6.608,14.505,5.157a4.532,4.532,0,0,0,.687-.7c-4.281,1.576-11.868,2.795-14.338-6.917A19.374,19.374,0,0,0,389.276,406.893Z" transform="translate(-124.311 -153.757)"/><path class="g" d="M325.581,418.149s9.348,2.74,14.505,2.418c4.516-.284,3.842-4.642,3.6-5.721-4.732-.148-12.881-.593-17.11-1.873a.087.087,0,0,1-.032.019C325.419,413.475,325.581,418.149,325.581,418.149Z" transform="translate(-107.334 -156.027)"/><path class="i" d="M293.788,456.48c5,3.385,12.571,1.773,12.571,1.773s11.443-5.48,14.828-5.48,11.6-3.385,11.6-3.385l-.277-2.282-1.334-10.934s-12.552-.322-13.055-1.451c0,0-2.256-5.551-3.062-3.5s-12.893,16.555-15.956,16.555c-1.46,0-3.871,1.209-5.457,2.84C291.911,452.409,291.173,454.71,293.788,456.48Z" transform="translate(-98.445 -160.845)"/><path class="g" d="M353.067,336.654s10.476,6.608,7.575,8.058S353.067,336.654,353.067,336.654Z" transform="translate(-114.643 -135.686)"/><path class="g" d="M347.178,353.886s9.025,8.568,5.641,8.8S347.178,353.886,347.178,353.886Z" transform="translate(-113.069 -140.281)"/><path class="g" d="M334.09,390.75s4.582,8.613,2.855,10.109S334.09,390.75,334.09,390.75Z" transform="translate(-109.575 -150.112)"/><path class="g" d="M402.325,400.53c-1.612,1.612,15.311-5.319,11.443-5.641S402.325,400.53,402.325,400.53Z" transform="translate(-127.753 -151.198)"/><path class="w" d="M448.17,231.2l.538-.081c2-.306,9.27-1.447,15.788-2.862,1.589-.345,3.13-.706,4.542-1.077,4.993-1.309,8.342-2.721,6.208-3.878a11.431,11.431,0,0,1-5.1-6.721c-.074-.235-.145-.464-.21-.69a17.714,17.714,0,0,1-.651-3.71s-18.212-6.447-14.666,0c1.741,3.162.571,5.744-1.073,7.552a14.145,14.145,0,0,1-3.923,2.924Z" transform="translate(-140.046 -101.762)"/><path class="g" d="M460.507,232.172s-6.514,4.674-13.169.806-15.358,34.168-15.358,34.168l-9.025,22.241s-5.847,4.835,1.428,6.93,23.418-2.1,27.515,4.029,11.859,7.091,12.652,7.091,3.864-23.047,3.864-23.047l.8-33.362Z" transform="translate(-132.786 -107.959)"/><path class="x" d="M424.819,294.572c7.275,2.1,23.418-2.1,27.515,4.029a15.739,15.739,0,0,0,6.934,5.58,18.153,18.153,0,0,0,5.718,1.512c.106,0,.258-.422.435-1.154,1.135-4.664,3.43-21.893,3.43-21.893l.8-33.362-7.659-16.591-1.044-2.266a13.881,13.881,0,0,1-3.32,1.615,11.685,11.685,0,0,1-9.851-.809c-1.953-1.135-4.081,1.338-6.115,5.4-4.9,9.78-9.241,28.769-9.241,28.769l-9.025,22.241a7.829,7.829,0,0,0-.612.587C421.5,289.579,419.094,292.925,424.819,294.572Z" transform="translate(-132.902 -107.492)"/><path class="g" d="M472.172,292.505a41.96,41.96,0,0,0-.216,8.487,99.435,99.435,0,0,0,1.515,11.988,4.583,4.583,0,0,0,.2.732c3.932-1.724,7.056-2.988,7.056-2.988l-2.614-9.374c1.135-4.664,3.43-21.893,3.43-21.893l.8-33.362L474.677,229.5c4.993-1.309,8.342-2.721,6.208-3.878-3.1-1.683-4.593-4.877-5.312-7.411a27,27,0,0,1-4.58,4.929l-.1.084-.58,5.625-.177,1.728-.371,3.588s1.773,42.387,3.062,44.8.645,7.091-.484,12.571C472.279,291.854,472.224,292.173,472.172,292.505Z" transform="translate(-145.76 -104.269)"/><path class="y" d="M473.216,287.312c-1.128,5.48-.161,14.505,1.128,21.435s14.989,2.418,17.567,0,10.154-3.546,10.154-3.546.322-31.589,2.74-35.618c1.147-1.911,1.425-8.149,1.4-14.173-.023-5.412-.29-10.65-.39-12.426-.026-.413-.039-.638-.039-.638s10.476-17.729,10.315-19.018-3.223-1.451-3.223-1.451-11.6-9.025-13.538-7.9-7.253-1.773-7.253-1.773-6.74.764-8.133-.535a.708.708,0,0,1-.248-.593c.158-2.063-6.869-6.469-7.085-6.6,5.921,5.328-3.655,13.538-4.742,14.438l-.1.084-1.128,10.94s1.773,42.387,3.062,44.8S474.344,281.832,473.216,287.312Z" transform="translate(-146.092 -100.617)"/><circle class="b" cx="0.806" cy="0.806" r="0.806" transform="translate(327.055 139.757)"/><path class="g" d="M472.736,219.784l4.9,4.738,7.178-11.978a.708.708,0,0,1-.248-.593c.158-2.063-6.869-6.469-7.085-6.6C483.4,210.675,473.822,218.885,472.736,219.784Z" transform="translate(-146.55 -100.699)"/><circle class="g" cx="0.806" cy="0.806" r="0.806" transform="translate(328.655 165.356)"/><circle class="b" cx="0.806" cy="0.806" r="0.806" transform="translate(328.655 165.036)"/><path class="y" d="M472.3,218.912l4.9,4.738,7.178-11.978a.708.708,0,0,1-.248-.593c.158-2.063-6.869-6.469-7.085-6.6C482.962,209.8,473.385,218.013,472.3,218.912Z" transform="translate(-146.434 -100.466)"/><rect class="i" width="11.216" height="23.7" rx="1.699" transform="matrix(-1, -0.023, 0.023, -1, 332.03, 163.554)"/><rect class="g" width="11.216" height="23.7" rx="1.699" transform="matrix(-1, -0.023, 0.023, -1, 332.03, 163.554)"/><rect class="i" width="11.216" height="23.7" rx="1.699" transform="matrix(-1, -0.023, 0.023, -1, 332.09, 164.074)"/><circle class="y" cx="1.763" cy="1.763" r="1.763" transform="translate(325.283 145.417)"/><path class="g" d="M391.676,289.592c4.029,1.773,30.461-2.9,34.329-4.029s9.509-9.831,6.769-16.117.967-12.41.967-12.41,5.8-12.41,7.091-14.828,3.978-9.457,4.352-10.637a.958.958,0,0,0-.229-.738c-1.048-1.6-5.09-4.419-5.09-4.419-1.138.413-1.28-2.846-1.235-5.241.026-1.341.106-2.411.106-2.411s-.535.545-1.409,1.286c-.319.268-.683.564-1.086.87a16.689,16.689,0,0,1-5.08,2.775c-3.868,1.144-9.348,6.427-9.348,6.427l1.612,24.752s-3.707,23.276-7.575,27.789-15.472,4.352-19.34,4.352S391.676,289.592,391.676,289.592Z" transform="translate(-125.046 -104.366)"/><path class="y" d="M391.239,288.283c4.029,1.773,30.461-2.9,34.329-4.029s9.509-9.831,6.769-16.117.967-12.41.967-12.41,5.8-12.41,7.091-14.828,3.978-9.457,4.352-10.637a.958.958,0,0,0-.229-.738c-1.048-1.6-5.09-4.419-5.09-4.419-1.138.413-1.28-2.846-1.235-5.241.026-1.341.106-2.411.106-2.411s-.535.545-1.409,1.286c-.319.268-.683.564-1.086.87a16.688,16.688,0,0,1-5.08,2.775c-3.868,1.144-9.348,6.427-9.348,6.427l1.612,24.752s-3.707,23.276-7.575,27.789-15.472,4.352-19.34,4.352S391.239,288.283,391.239,288.283Z" transform="translate(-124.93 -104.017)"/><path class="g" d="M450.57,218.325s.151.851.406,2.156c.867,4.426,2.936,14.089,4.429,13.715,1.07-.268,2.878-2.163,4.284-3.8-1.048-1.6-5.09-4.419-5.09-4.419-1.138.413-1.28-2.846-1.235-5.241l-1.3-1.125Z" transform="translate(-140.634 -104.155)"/><path class="y" d="M451.006,217.453s.151.851.406,2.156c.867,4.426,2.936,14.089,4.429,13.715,1.07-.268,2.878-2.163,4.284-3.8-1.048-1.6-5.09-4.419-5.09-4.419-1.138.413-1.28-2.846-1.235-5.241l-1.3-1.125Z" transform="translate(-140.75 -103.922)"/><path class="w" d="M434.543,278.243s8.058-1.612,10.315-5.157,17.606-6.608,15.733-2.9-15.733,15.836-15.733,15.836l-6.005,8.6-8.017-2.034-3.376-6.567Z" transform="translate(-134.538 -117.555)"/><path class="g" d="M459.643,294.131s-7.8,2.9-8.979,6.769S459.643,294.131,459.643,294.131Z" transform="translate(-140.633 -124.349)"/><path class="g" d="M466.122,300.227s.71,4.027-9.073,3.706Z" transform="translate(-142.36 -125.965)"/><path class="g" d="M522.433,230.313l3.546-.322s3.868,2.9,6.769,2.9,4.674,3.707,4.674,3.707a52.12,52.12,0,0,0,6.447,2.579c1.612.322,4.352,1.934,3.546,2.579s.161,2.1,1.612,3.223,3.707,6.93,1.773,7.736-7.253,2.418-8.7,3.223a4,4,0,0,1-3.223,0s-8.538-11.121-12.892-9.025-10.317,2.1-10.317,2.1l-4.674-9.831Z" transform="translate(-156.841 -107.283)"/><path class="y" d="M425.356,284.085a4.308,4.308,0,0,0,3,2.089,22.774,22.774,0,0,0,9.386-.867s-16.236-5.157-.6-17.7h-4.19l-1.4-.529.638-3.34.919-30.106-3.385-.806s-2.724,19.824-3.375,22.241-1.138,11.765-1.138,11.765a27.239,27.239,0,0,1-1.612,5.8C422.877,274.089,423.064,280.645,425.356,284.085Z" transform="translate(-133.359 -108.09)"/><path class="g" d="M426.981,296.189a4.309,4.309,0,0,0,3,2.089,22.775,22.775,0,0,0,9.386-.867s-16.236-5.157-.6-17.7h-4.19l-1.4-.529C430.888,283.247,427.275,290.48,426.981,296.189Z" transform="translate(-134.355 -120.389)"/><path class="z" d="M426.109,296.189a4.308,4.308,0,0,0,3,2.089,22.775,22.775,0,0,0,9.386-.867s-16.236-5.157-.6-17.7h-4.19l-1.4-.529C430.016,283.247,426.4,290.48,426.109,296.189Z" transform="translate(-134.122 -120.389)"/><path class="y" d="M426.109,296.189a4.308,4.308,0,0,0,3,2.089,22.775,22.775,0,0,0,9.386-.867s-16.236-5.157-.6-17.7h-4.19l-1.4-.529C430.016,283.247,426.4,290.48,426.109,296.189Z" transform="translate(-134.122 -120.389)"/><path class="g" d="M455.442,219.735a14.667,14.667,0,0,0,16.6-3.152c-.074-.235-.145-.464-.21-.69a17.714,17.714,0,0,1-.651-3.71s-18.212-6.447-14.666,0C458.256,215.345,457.086,217.927,455.442,219.735Z" transform="translate(-141.953 -101.747)"/><path class="w" d="M443.808,199.287v.142c.006.477.032.948.081,1.412.048.445.116.886.2,1.318a14.671,14.671,0,0,0,28.259,1.9c.1-.284.187-.571.264-.861a14.594,14.594,0,0,0,.529-3.907c0-.338-.013-.677-.035-1.009a14.666,14.666,0,0,0-29.3,1.009Z" transform="translate(-138.887 -95.185)"/><path class="g" d="M443.808,199.429a6.352,6.352,0,0,1,.081,1.412,5.463,5.463,0,0,0,.042.764,2.224,2.224,0,0,0,.158.554c.593,1.393,2.527,2.292,3.8,1.4a4.13,4.13,0,0,0,1.144-1.5c1.354-2.517,3.24-5.415,6.205-5.464a14.116,14.116,0,0,1,3.675.822,3.938,3.938,0,0,0,3.584-.484c.7-.638,1.031-1.731,1.973-1.957s1.805.638,2.237,1.483.774,1.837,1.647,2.272c.387.193.841.248,1.222.455,1.754.961.948,4.326,2.769,4.871a1.375,1.375,0,0,0,.174.042c.029-.3.061-.6.09-.9q.247-2.456.493-4.916a14.666,14.666,0,0,0-29.3,1.009Z" transform="translate(-138.887 -94.495)"/><path class="i" d="M467.711,173.287c1.723.73,3.517,1.854,3.9,3.614a14.287,14.287,0,0,1,.082,2.362,18.775,18.775,0,0,0,1.32,4.583c.483,1.521.656,3.3-.312,4.591-.3.4-.7.74-.975,1.164a4.745,4.745,0,0,0-.563,2.135l-.8,7.933c-2.046-.381-1.135-3.925-2.944-4.913-.38-.207-.833-.263-1.221-.456-.873-.435-1.214-1.429-1.647-2.273s-1.283-1.709-2.238-1.481c-.939.224-1.271,1.32-1.97,1.957a3.935,3.935,0,0,1-3.587.482,14.2,14.2,0,0,0-3.673-.822c-2.966.05-4.852,2.946-6.206,5.464a4.1,4.1,0,0,1-1.144,1.5c-1.44,1.013-3.714-.262-3.961-1.952-.138-.946.157-2-.389-2.8-.56-.821-1.726-.974-2.651-1.4-2.355-1.085-3.086-4.026-2.694-6.492.282-1.777.99-3.607.411-5.318-.2-.59-.545-1.128-.73-1.722a4.653,4.653,0,0,1,1.656-4.667,13.55,13.55,0,0,1,4.783-2.4,55.016,55.016,0,0,1,13.69-3.2c2.048-.133,4.731-.773,6.358.5A21.721,21.721,0,0,0,467.711,173.287Z" transform="translate(-136.715 -90.388)"/><circle class="g" cx="0.806" cy="0.806" r="0.806" transform="translate(326.255 127.117)"/><circle class="b" cx="0.806" cy="0.806" r="0.806" transform="translate(326.255 126.797)"/><circle class="g" cx="0.806" cy="0.806" r="0.806" transform="translate(331.375 177.356)"/><circle class="b" cx="0.806" cy="0.806" r="0.806" transform="translate(331.375 177.036)"/><circle class="g" cx="0.806" cy="0.806" r="0.806" transform="translate(328.655 190.635)"/><circle class="b" cx="0.806" cy="0.806" r="0.806" transform="translate(328.655 190.315)"/><path class="g" d="M439.385,254.27s-1.773,12.038,0,14.134S439.385,254.27,439.385,254.27Z" transform="translate(-137.422 -113.736)"/><path class="g" d="M509.344,284.522s3.385,7.291,0,14.283-5.48,9.83-4.352,14.293S509.344,284.522,509.344,284.522Z" transform="translate(-155.049 -121.835)"/><path class="g" d="M293.788,462.254c5,3.385,12.571,1.773,12.571,1.773s11.443-5.48,14.828-5.48,11.6-3.385,11.6-3.385l-.277-2.282c-3.339.645-10.934,2.176-11.81,2.927-1.128.967-14.989,5.641-14.989,5.641s-9.438-1.18-12.065-5.057C291.911,458.183,291.173,460.484,293.788,462.254Z" transform="translate(-98.445 -166.68)"/><g class="s" transform="translate(298.858 87.061)"><path d="M484.461,181c-.009-.175-.009-.35-.006-.525.014.2.017.4.014.6C484.468,181.049,484.463,181.024,484.461,181Z" transform="translate(-448.337 -180.472)"/><path d="M438.872,197.53c.925.426,2.091.579,2.651,1.4.546.8.251,1.857.389,2.8.247,1.69,2.522,2.965,3.961,1.952a4.1,4.1,0,0,0,1.144-1.5c1.354-2.517,3.24-5.414,6.206-5.464a14.2,14.2,0,0,1,3.673.823,3.935,3.935,0,0,0,3.587-.482c.7-.637,1.032-1.733,1.97-1.957.955-.228,1.805.637,2.238,1.481s.775,1.837,1.647,2.273c.388.193.841.249,1.22.456,1.809.988.9,4.532,2.944,4.913l.8-7.933a4.745,4.745,0,0,1,.563-2.135c.272-.424.672-.759.975-1.164a3.549,3.549,0,0,0,.662-1.706,4.123,4.123,0,0,1-.662,3c-.3.4-.7.74-.975,1.164a4.744,4.744,0,0,0-.563,2.135l-.8,7.933c-2.046-.381-1.135-3.925-2.944-4.913-.38-.207-.833-.263-1.22-.456-.873-.435-1.214-1.429-1.647-2.273s-1.283-1.709-2.238-1.481c-.939.224-1.271,1.32-1.97,1.957a3.935,3.935,0,0,1-3.587.482,14.2,14.2,0,0,0-3.673-.823c-2.966.05-4.852,2.946-6.206,5.464a4.1,4.1,0,0,1-1.144,1.5c-1.44,1.013-3.714-.262-3.961-1.952-.138-.946.157-2-.389-2.8-.56-.821-1.726-.974-2.651-1.4-2.154-.993-2.946-3.536-2.766-5.85A5.257,5.257,0,0,0,438.872,197.53Z" transform="translate(-435.706 -183.297)"/><path d="M435.726,181.281c.185.594.53,1.133.73,1.722a4.955,4.955,0,0,1,.183,2.119,4.112,4.112,0,0,0-.183-.83c-.2-.59-.544-1.128-.73-1.722a3.566,3.566,0,0,1-.094-1.682A3.352,3.352,0,0,0,435.726,181.281Z" transform="translate(-435.573 -180.581)"/></g><path class="g" d="M492.82,272.71c3.707-.812,12.41-3.378,12.41-3.378l1.557-.313c-.023-5.412-.29-10.65-.39-12.426l-.039.006s-7.414,2.418-9.187,3.707-7.253.967-7.253.967a24.841,24.841,0,0,0-15.633,8.381C467.194,277.552,489.113,273.523,492.82,272.71Z" transform="translate(-146.655 -114.363)"/><path class="w" d="M529.046,257.353a2.15,2.15,0,0,1,.484,3.613c-1.963,1.626-4.831,3.571-7.566,3.846-4.565.459-15.553,2.663-16.645,2.883-.059.012-.115.026-.173.043-.906.266-8.833,2.588-12.325,3.353-3.707.812-25.626,4.842-18.534-3.056a25.068,25.068,0,0,1,15.476-8.368,2.013,2.013,0,0,1,.284-.006c.829.039,5.513.2,7.126-.973a15.2,15.2,0,0,1,2.667-1.328,51.213,51.213,0,0,1,10.9-3.142l7.581-1.322a2.181,2.181,0,0,1,1.277.163Z" transform="translate(-146.729 -113.372)"/><path class="y" d="M523.306,230.313l3.546-.322s3.868,2.9,6.769,2.9,4.674,3.707,4.674,3.707a52.12,52.12,0,0,0,6.447,2.579c1.612.322,4.352,1.934,3.546,2.579s.161,2.1,1.612,3.223,3.707,6.93,1.773,7.736-7.253,2.418-8.7,3.223a4,4,0,0,1-3.223,0s-8.538-11.121-12.892-9.025-10.317,2.1-10.317,2.1l-4.674-9.831Z" transform="translate(-157.074 -107.283)"/></g></svg>